<?xml version="1.0" encoding="utf-8"?>
<!-- Generator: Adobe Illustrator 25.2.0, SVG Export Plug-In . SVG Version: 6.00 Build 0)  -->
<svg version="1.1" id="Слой_4" xmlns="http://www.w3.org/2000/svg" xmlns:xlink="http://www.w3.org/1999/xlink" x="0px" y="0px"
	 viewBox="0 0 500 324" style="enable-background:new 0 0 500 324;" xml:space="preserve">
<style type="text/css">
	.st0{fill:#B1ABB5;}
	.st1{fill-rule:evenodd;clip-rule:evenodd;fill:#786E79;}
	.st2{fill-rule:evenodd;clip-rule:evenodd;fill:#453E43;}
	.st3{fill-rule:evenodd;clip-rule:evenodd;fill:#B1ABB5;}
	.st4{fill-rule:evenodd;clip-rule:evenodd;fill:#F0F0F3;}
	.st5{fill-rule:evenodd;clip-rule:evenodd;fill:#463E43;}
	.st6{fill:#786E79;}
	.st7{fill-rule:evenodd;clip-rule:evenodd;fill:#786E78;}
	.st8{fill:#262225;}
	.st9{fill:#FBA615;}
	.st10{fill:#F88604;}
	.st11{fill:#F0F0F3;}
	.st12{fill:#2E396D;}
	.st13{fill:#03D7FB;}
	.st14{opacity:0.41;}
	.st15{fill:#49639E;}
	.st16{fill:url(#SVGID_1_);}
	.st17{fill:#3A4B84;}
	.st18{fill:url(#SVGID_2_);}
	.st19{fill:#42528E;}
	.st20{fill:#FFFFFF;}
	.st21{fill:url(#SVGID_3_);}
	.st22{enable-background:new    ;}
</style>
<path class="st0" d="M419.5,301.8l-0.5-0.3l-107.7-62.1l65-38.3l0.5,0.3l107.7,62.1L419.5,301.8z M315.2,239.4l104.3,60.1l61.1-36
	l-104.3-60.1L315.2,239.4z"/>
<path class="st0" d="M418.2,40.5l-0.5,0.3l-107.7,62.1l30.4,17.9l-81,46.8l-87-49.4l30.3-17.8L94.9,38.2l-0.5-0.3l-65,38.3
	l107.7,62.1l0.5,0.3l32.7-19.3l82.7,46.9c0.1,0.1,0.2,0.2,0.3,0.2l4,2.3l-88.1,50.9l-31.5-18.6l-0.5,0.3L29.4,263.5l65,38.3l0.5-0.3
	l107.7-62.1l-31.5-18.6l88.1-50.9l87,50.2c0.2,0.1,0.3,0.1,0.5,0.1c0.3,0,0.7-0.2,0.9-0.5c0.3-0.5,0.1-1.1-0.4-1.4l-69.3-40
	c-0.1-0.2-0.2-0.4-0.5-0.6l-16.2-9.2l1.4-0.8l0,0l79.5-45.9l32.7,19.2l0.5-0.3l107.7-62.1L418.2,40.5z M33.3,76.2l61.1-36
	l104.3,60.1l-61.1,36L33.3,76.2z M94.4,299.5l-61.1-36l104.3-60.1l61.1,36L94.4,299.5z M374.9,138.9l-61.1-36l104.3-60.1l61.1,36
	L374.9,138.9z"/>
<g>
	<polygon class="st1" points="320,79.3 320,90.2 323.8,88.8 330,86.3 328.3,79.1 328.6,77.5 	"/>
	<path class="st1" d="M330,85.6C330,85.6,330,85.6,330,85.6L330,85.6c-0.5-0.3-1.3-0.4-1.9-0.4c-0.4,0-0.8,0.2-1.1,0.3l-6.4,3.7
		c-0.8,0.5-0.8,1.3,0,1.8c0.8,0.5,2.2,0.5,3,0l4.9-2.8l51.5,30.2c0.8,0.5,2.2,0.5,3,0l0.1,0c0.8-0.5,0.8-1.2,0-1.7L330,85.6
		C330,85.6,330,85.6,330,85.6"/>
	<path class="st2" d="M463.7,49.8l-8.6,2.8l-31.7-18.3c-1.5,0.4-2.9,0.9-4.1,1.6l-77.5,44.7l-9.6-5.5v11.1l46.2,26.7l81.5-47
		c2.4-1.4,3.7-3.2,3.7-5l0,0V49.8z"/>
	<path class="st1" d="M459.9,44.4l-36.5-21.1c-1.5,0.4-2.9,0.9-4.1,1.6l-87.1,50.3l46.2,26.7l81.5-47C465,52,464.9,47.3,459.9,44.4"
		/>
	<g>
		<g>
			<path class="st3" d="M350.7,80.6c-0.8-0.5-0.8-1.3,0-1.8l9.3-5.3c0.8-0.5,2.2-0.5,3.1,0c0.8,0.5,0.8,1.3,0,1.8l-9.3,5.3
				C352.9,81.1,351.5,81.1,350.7,80.6"/>
			<path class="st3" d="M356.8,84.1c-0.8-0.5-0.8-1.3,0-1.8L366,77c0.8-0.5,2.2-0.5,3.1,0c0.8,0.5,0.8,1.3,0,1.8l-9.3,5.3
				C359,84.6,357.6,84.6,356.8,84.1"/>
			<path class="st3" d="M362.9,87.7c-0.8-0.5-0.8-1.3,0-1.8l9.3-5.3c0.8-0.5,2.2-0.5,3.1,0c0.8,0.5,0.8,1.3,0,1.8l-9.3,5.3
				C365.1,88.1,363.7,88.1,362.9,87.7"/>
			<path class="st3" d="M368.9,91.2c-0.8-0.5-0.8-1.3,0-1.8l9.3-5.3c0.8-0.5,2.2-0.5,3.1,0c0.8,0.5,0.8,1.3,0,1.8l-9.3,5.3
				C371.2,91.7,369.8,91.7,368.9,91.2"/>
		</g>
		<path class="st3" d="M411,40.5c7.5-4.3,19.6-4.3,27.1,0s7.5,11.3,0,15.7s-19.6,4.3-27.1,0C403.5,51.8,403.5,44.8,411,40.5"/>
	</g>
	<g>
		<path class="st3" d="M404.7,59.9L404.7,59.9c0.2,0.1,0.4,0.2,0.6,0.3c0.3,0.2,0.5,0.4,0.8,0.5c0.2,0.1,0.3,0.3,0.5,0.4
			c0.2,0.2,0.5,0.4,0.7,0.6c0.2,0.1,0.3,0.3,0.4,0.4c0.2,0.2,0.4,0.4,0.6,0.6c0.1,0.2,0.3,0.3,0.4,0.5c0.2,0.2,0.3,0.5,0.5,0.7
			c0.1,0.2,0.2,0.3,0.3,0.5c0.1,0.3,0.3,0.5,0.4,0.8c0.1,0.2,0.1,0.4,0.2,0.6c0.1,0.3,0.2,0.6,0.2,0.9c0,0.2,0.1,0.4,0.1,0.6
			c0,0.3,0,0.7,0,1c0,0.2-0.1,0.5-0.1,0.7c0,0.2-0.1,0.3-0.1,0.5c-0.1,0.3-0.2,0.5-0.3,0.7c-0.1,0.2-0.2,0.4-0.3,0.7
			c0,0.1-0.1,0.2-0.2,0.3c-0.3,0.6-0.8,1.2-1.3,1.8c-0.6,0.6-1.2,1.2-2,1.7c-0.4,0.3-0.9,0.6-1.4,0.9c-0.5,0.3-1,0.5-1.5,0.8
			c-0.9,0.4-1.9,0.8-2.9,1.1c-1,0.3-2,0.6-3.1,0.8l-0.5,0.1c-0.4,0.1-0.8,0.1-1.1,0.2c-0.4,0.1-0.9,0.1-1.3,0.1
			c-0.3,0-0.5,0-0.8,0.1c-0.4,0-0.8,0.1-1.3,0.1c-0.6,0-1.2,0-1.7,0c-0.4,0-0.7,0-1.1,0c-0.5,0-1-0.1-1.5-0.1c-0.3,0-0.7-0.1-1-0.1
			c-0.5-0.1-0.9-0.1-1.4-0.2c-0.3-0.1-0.6-0.1-0.9-0.2c-0.4-0.1-0.8-0.2-1.2-0.3c-0.3-0.1-0.5-0.1-0.8-0.2c-0.4-0.1-0.8-0.2-1.1-0.4
			c-0.2-0.1-0.5-0.2-0.7-0.3c-0.3-0.1-0.7-0.3-1-0.4c-0.2-0.1-0.4-0.2-0.7-0.3c-0.3-0.1-0.6-0.3-0.9-0.5c-0.2-0.1-0.4-0.2-0.5-0.3
			l-0.1,0c-0.3-0.2-0.6-0.3-0.8-0.5c-0.2-0.1-0.4-0.2-0.5-0.4c-0.3-0.2-0.5-0.4-0.7-0.6c-0.2-0.1-0.3-0.3-0.5-0.4
			c-0.2-0.2-0.4-0.4-0.6-0.6c-0.1-0.1-0.3-0.3-0.4-0.4c-0.2-0.2-0.4-0.5-0.5-0.7c-0.1-0.2-0.2-0.3-0.3-0.5c-0.2-0.3-0.3-0.5-0.4-0.8
			c-0.1-0.2-0.2-0.4-0.2-0.5c-0.1-0.3-0.2-0.6-0.3-0.8c-0.1-0.2-0.1-0.4-0.1-0.6c0-0.3-0.1-0.6-0.1-1c0-0.2,0-0.5,0-0.7
			c0-0.4,0.1-0.7,0.2-1.1c0,0,0,0,0,0c0.1-0.3,0.2-0.6,0.3-0.9c0.1-0.2,0.2-0.3,0.2-0.5c0.2-0.3,0.4-0.7,0.6-1
			c0.3-0.5,0.7-0.9,1.1-1.3c0.5-0.5,1.1-1,1.7-1.4c0.4-0.3,0.9-0.6,1.4-0.9c0.5-0.3,1-0.5,1.5-0.8c0.8-0.4,1.6-0.7,2.5-1
			c0.7-0.3,1.5-0.5,2.3-0.7c0.6-0.1,1.1-0.2,1.7-0.4c0.3-0.1,0.6-0.1,0.9-0.1c0.5-0.1,1-0.1,1.5-0.2c0,0,0.1,0,0.1,0
			c0.6-0.1,1.2-0.1,1.9-0.1c0.4,0,0.8,0,1.2,0c0.6,0,1.1,0,1.7,0c0.3,0,0.7,0,1.1,0.1c0.5,0,1,0.1,1.5,0.2c0.3,0,0.6,0.1,0.9,0.1
			c0.4,0.1,0.9,0.1,1.3,0.2c0.3,0.1,0.6,0.1,0.8,0.2c0.4,0.1,0.8,0.2,1.2,0.3c0.3,0.1,0.5,0.1,0.8,0.2c0.4,0.1,0.7,0.2,1.1,0.4
			c0.2,0.1,0.5,0.2,0.7,0.3c0.3,0.1,0.7,0.3,1,0.4c0.2,0.1,0.4,0.2,0.6,0.3C404.1,59.6,404.4,59.8,404.7,59.9z"/>
		<path class="st4" d="M383.9,57.5l-10.5,6c0.3-0.5,0.7-0.9,1.1-1.3l7-4.1C382.3,57.9,383.1,57.7,383.9,57.5z"/>
		<path class="st4" d="M387.9,56.9l-15.7,9.1c0.1-0.3,0.2-0.6,0.3-0.9l13.9-8C386.9,57,387.4,56.9,387.9,56.9z"/>
		<path class="st4" d="M391.1,56.7l-19.1,11c0-0.2,0-0.5,0-0.7l17.9-10.3C390.3,56.7,390.7,56.7,391.1,56.7z"/>
		<path class="st4" d="M393.8,56.8l-21.7,12.5c-0.1-0.2-0.1-0.4-0.1-0.6l20.7-12C393.1,56.8,393.5,56.8,393.8,56.8z"/>
		<path class="st4" d="M396.2,57.1l-23.6,13.6c-0.1-0.2-0.2-0.4-0.2-0.5L395.3,57C395.6,57,395.9,57.1,396.2,57.1z"/>
		<path class="st4" d="M398.4,57.5l-25,14.4c-0.1-0.2-0.2-0.3-0.3-0.5l24.5-14.1C397.8,57.4,398.1,57.5,398.4,57.5z"/>
		<path class="st4" d="M400.4,58.1l-26,15c-0.1-0.1-0.3-0.3-0.4-0.4l25.7-14.8C399.9,57.9,400.1,58,400.4,58.1z"/>
		<path class="st4" d="M402.2,58.7l-26.7,15.4c-0.2-0.1-0.3-0.3-0.5-0.4l26.5-15.3C401.7,58.5,401.9,58.6,402.2,58.7z"/>
		<path class="st4" d="M403.8,59.5l-27.1,15.6c-0.2-0.1-0.4-0.2-0.5-0.4l27-15.6C403.4,59.2,403.6,59.3,403.8,59.5z"/>
		<path class="st4" d="M404.7,59.9L404.7,59.9c0.2,0.1,0.4,0.2,0.6,0.3l-27.1,15.7c-0.2-0.1-0.4-0.2-0.5-0.3l-0.1,0L404.7,59.9z"/>
		<path class="st4" d="M406.1,60.8c0.2,0.1,0.3,0.3,0.5,0.4l-26.9,15.5c-0.2-0.1-0.4-0.2-0.7-0.3L406.1,60.8z"/>
		<path class="st4" d="M407.3,61.8c0.2,0.1,0.3,0.3,0.4,0.4l-26.3,15.2c-0.2-0.1-0.5-0.2-0.7-0.3L407.3,61.8z"/>
		<path class="st4" d="M408.3,62.8c0.1,0.2,0.3,0.3,0.4,0.5l-25.3,14.6c-0.3-0.1-0.5-0.1-0.8-0.2L408.3,62.8z"/>
		<path class="st4" d="M409.2,64c0.1,0.2,0.2,0.3,0.3,0.5l-24,13.9c-0.3-0.1-0.6-0.1-0.9-0.2L409.2,64z"/>
		<g>
			<path class="st4" d="M409.9,65.3c0.1,0.2,0.1,0.4,0.2,0.6l-22.2,12.8c-0.3,0-0.7-0.1-1-0.1L409.9,65.3z"/>
		</g>
		<path class="st4" d="M410.3,66.8c0,0.2,0.1,0.4,0.1,0.6l-19.9,11.5c-0.4,0-0.7,0-1.1,0L410.3,66.8z"/>
		<path class="st4" d="M410.3,68.4c0,0.2-0.1,0.5-0.1,0.7l-16.7,9.7c-0.4,0-0.8,0.1-1.3,0.1L410.3,68.4z"/>
		<path class="st4" d="M409.8,70.4c-0.1,0.2-0.2,0.4-0.3,0.7c0,0.1-0.1,0.2-0.2,0.3l-12.1,7l-0.5,0.1c-0.4,0.1-0.8,0.1-1.1,0.2
			L409.8,70.4z"/>
		<path class="st4" d="M406.1,74.8c0.8-0.5,1.4-1.1,2-1.7l-2.5,1.4l-2.9,1.6l-2.5,1.4c1-0.3,2-0.7,2.9-1.1L406.1,74.8z"/>
		<path class="st4" d="M379.8,58.8l27,15.6l-4.2,2.4l-27-15.6c0.6-0.4,1.3-0.8,2-1.2C378.3,59.6,379,59.2,379.8,58.8z"/>
		<g>
			<path class="st3" d="M372.2,66l0.8,0.5l0.6,0.3l0.9,0.5l0.6,0.3l0.9,0.5l0.6,0.3l0.9,0.5l0.6,0.3l0.9,0.5l0.6,0.3l0.9,0.5
				l0.6,0.3l0.9,0.5l0.6,0.3l0.9,0.5l0.6,0.3l0.9,0.5l0.6,0.3l0.9,0.5l0.6,0.3l0.9,0.5l0.6,0.3l0.9,0.5l0.6,0.3l0.9,0.5l0.6,0.3
				l0.9,0.5l0.6,0.3l0.9,0.5l0.6,0.3l0.4,0.2l1.3-0.1c0.4-0.1,0.8-0.1,1.1-0.2l-0.4-0.2l-0.9-0.5l-0.6-0.3l-0.9-0.5l-0.6-0.3
				l-0.9-0.5l-0.6-0.3l-0.9-0.5l-0.6-0.3l-0.9-0.5l-0.6-0.3l-0.9-0.5l-0.6-0.3l-0.9-0.5l-0.6-0.3l-0.9-0.5l-0.6-0.3l-0.9-0.5
				l-0.6-0.3l-0.9-0.5l-0.6-0.3l-0.9-0.5l-0.6-0.3l-0.9-0.5l-0.6-0.3l-0.9-0.5l-0.6-0.3l-0.9-0.5l-0.6-0.3l-0.9-0.5l-0.6-0.3
				l-0.9-0.5l-0.6-0.3l-0.3-0.2c-0.1,0.2-0.2,0.3-0.2,0.5C372.4,65.4,372.3,65.6,372.2,66L372.2,66z"/>
			<path class="st3" d="M387.9,56.9c-0.5,0-1,0.1-1.5,0.2c-0.3,0-0.6,0.1-0.9,0.1l0.3,0.2l0.6,0.3l0.9,0.5l0.6,0.3l0.9,0.5l0.6,0.3
				l0.9,0.5l0.6,0.3l0.9,0.5l0.6,0.3l0.9,0.5l0.6,0.3l0.9,0.5l0.6,0.3l0.9,0.5l0.6,0.3l0.9,0.5l0.6,0.3l0.9,0.5l0.6,0.3l0.9,0.5
				l0.6,0.3l0.9,0.5l0.6,0.3l0.9,0.5l0.6,0.3l0.9,0.5l0.6,0.3l0.9,0.5l0.6,0.3l0.9,0.5l0.6,0.3l0.9,0.5l0.4,0.2
				c0.1-0.2,0.2-0.4,0.3-0.7c0.1-0.2,0.2-0.5,0.3-0.7l-0.4-0.2l-0.6-0.3l-0.9-0.5l-0.6-0.3l-0.9-0.5l-0.6-0.3l-0.9-0.5l-0.6-0.3
				l-0.9-0.5l-0.6-0.3l-0.9-0.5l-0.6-0.3l-0.9-0.5l-0.6-0.3l-0.9-0.5l-0.6-0.3l-0.9-0.5l-0.6-0.3l-0.9-0.5l-0.6-0.3l-0.9-0.5
				l-0.6-0.3l-0.9-0.5l-0.6-0.3l-0.9-0.5l-0.6-0.3l-0.9-0.5l-0.6-0.3l-0.9-0.5l-0.6-0.3L387.9,56.9L387.9,56.9z"/>
		</g>
	</g>
	<g>
		<path class="st3" d="M438.2,40.4L438.2,40.4c0.2,0.1,0.4,0.2,0.6,0.3c0.3,0.2,0.5,0.4,0.8,0.5c0.2,0.1,0.3,0.3,0.5,0.4
			c0.2,0.2,0.5,0.4,0.7,0.6c0.2,0.1,0.3,0.3,0.4,0.4c0.2,0.2,0.4,0.4,0.6,0.6c0.1,0.2,0.3,0.3,0.4,0.5c0.2,0.2,0.3,0.5,0.5,0.7
			c0.1,0.2,0.2,0.3,0.3,0.5c0.1,0.3,0.3,0.5,0.4,0.8c0.1,0.2,0.1,0.4,0.2,0.6c0.1,0.3,0.2,0.6,0.2,0.9c0,0.2,0.1,0.4,0.1,0.6
			c0,0.3,0,0.7,0,1c0,0.2-0.1,0.5-0.1,0.7c0,0.2-0.1,0.3-0.1,0.5c-0.1,0.3-0.2,0.5-0.3,0.7c-0.1,0.2-0.2,0.4-0.3,0.7
			c0,0.1-0.1,0.2-0.2,0.3c-0.3,0.6-0.8,1.2-1.3,1.8c-0.6,0.6-1.2,1.2-2,1.7c-0.4,0.3-0.9,0.6-1.4,0.9c-0.5,0.3-1,0.5-1.5,0.8
			c-0.9,0.4-1.9,0.8-2.9,1.1c-1,0.3-2,0.6-3.1,0.8l-0.5,0.1c-0.4,0.1-0.8,0.1-1.1,0.2c-0.4,0.1-0.9,0.1-1.3,0.1
			c-0.3,0-0.5,0-0.8,0.1c-0.4,0-0.8,0.1-1.3,0.1c-0.6,0-1.2,0-1.7,0c-0.4,0-0.7,0-1.1,0c-0.5,0-1-0.1-1.5-0.1c-0.3,0-0.7-0.1-1-0.1
			c-0.5-0.1-0.9-0.1-1.4-0.2c-0.3-0.1-0.6-0.1-0.9-0.2c-0.4-0.1-0.8-0.2-1.2-0.3c-0.3-0.1-0.5-0.1-0.8-0.2c-0.4-0.1-0.8-0.2-1.1-0.4
			c-0.2-0.1-0.5-0.2-0.7-0.3c-0.3-0.1-0.7-0.3-1-0.4c-0.2-0.1-0.4-0.2-0.7-0.3c-0.3-0.1-0.6-0.3-0.9-0.5c-0.2-0.1-0.4-0.2-0.5-0.3
			l-0.1,0c-0.3-0.2-0.6-0.3-0.8-0.5c-0.2-0.1-0.4-0.2-0.5-0.4c-0.3-0.2-0.5-0.4-0.7-0.6c-0.2-0.1-0.3-0.3-0.5-0.4
			c-0.2-0.2-0.4-0.4-0.6-0.6c-0.1-0.1-0.3-0.3-0.4-0.4c-0.2-0.2-0.4-0.5-0.5-0.7c-0.1-0.2-0.2-0.3-0.3-0.5c-0.2-0.3-0.3-0.5-0.4-0.8
			c-0.1-0.2-0.2-0.4-0.2-0.5c-0.1-0.3-0.2-0.6-0.3-0.8c-0.1-0.2-0.1-0.4-0.1-0.6c0-0.3-0.1-0.6-0.1-1c0-0.2,0-0.5,0-0.7
			c0-0.4,0.1-0.7,0.2-1.1c0,0,0,0,0,0c0.1-0.3,0.2-0.6,0.3-0.9c0.1-0.2,0.2-0.3,0.2-0.5c0.2-0.3,0.4-0.7,0.6-1
			c0.3-0.5,0.7-0.9,1.1-1.3c0.5-0.5,1.1-1,1.7-1.4c0.4-0.3,0.9-0.6,1.4-0.9c0.5-0.3,1-0.5,1.5-0.8c0.8-0.4,1.6-0.7,2.5-1
			c0.7-0.3,1.5-0.5,2.3-0.7c0.6-0.1,1.1-0.2,1.7-0.4c0.3-0.1,0.6-0.1,0.9-0.1c0.5-0.1,1-0.1,1.5-0.2c0,0,0.1,0,0.1,0
			c0.6-0.1,1.2-0.1,1.9-0.1c0.4,0,0.8,0,1.2,0c0.6,0,1.1,0,1.7,0c0.3,0,0.7,0,1.1,0.1c0.5,0,1,0.1,1.5,0.2c0.3,0,0.6,0.1,0.9,0.1
			c0.4,0.1,0.9,0.1,1.3,0.2c0.3,0.1,0.6,0.1,0.8,0.2c0.4,0.1,0.8,0.2,1.2,0.3c0.3,0.1,0.5,0.1,0.8,0.2c0.4,0.1,0.7,0.2,1.1,0.4
			c0.2,0.1,0.5,0.2,0.7,0.3c0.3,0.1,0.7,0.3,1,0.4c0.2,0.1,0.4,0.2,0.6,0.3C437.6,40,437.9,40.2,438.2,40.4z"/>
		<path class="st4" d="M417.4,38l-10.5,6c0.3-0.5,0.7-0.9,1.1-1.3l7-4.1C415.8,38.4,416.6,38.2,417.4,38z"/>
		<path class="st4" d="M421.4,37.3l-15.7,9.1c0.1-0.3,0.2-0.6,0.3-0.9l13.9-8C420.4,37.4,420.9,37.4,421.4,37.3z"/>
		<path class="st4" d="M424.6,37.2l-19.1,11c0-0.2,0-0.5,0-0.7l17.9-10.3C423.8,37.2,424.2,37.2,424.6,37.2z"/>
		<path class="st4" d="M427.3,37.3l-21.7,12.5c-0.1-0.2-0.1-0.4-0.1-0.6l20.7-12C426.6,37.2,427,37.2,427.3,37.3z"/>
		<path class="st4" d="M429.7,37.6l-23.6,13.6c-0.1-0.2-0.2-0.4-0.2-0.5l22.9-13.2C429.1,37.5,429.4,37.5,429.7,37.6z"/>
		<path class="st4" d="M431.9,38l-25,14.4c-0.1-0.2-0.2-0.3-0.3-0.5L431,37.8C431.3,37.8,431.6,37.9,431.9,38z"/>
		<path class="st4" d="M433.8,38.5l-26,15c-0.1-0.1-0.3-0.3-0.4-0.4l25.7-14.8C433.3,38.4,433.6,38.4,433.8,38.5z"/>
		<path class="st4" d="M435.6,39.2l-26.7,15.4c-0.2-0.1-0.3-0.3-0.5-0.4l26.5-15.3C435.2,39,435.4,39.1,435.6,39.2z"/>
		<path class="st4" d="M437.3,39.9l-27.1,15.6c-0.2-0.1-0.4-0.2-0.5-0.4l27-15.6C436.8,39.7,437.1,39.8,437.3,39.9z"/>
		<path class="st4" d="M438.2,40.4L438.2,40.4c0.2,0.1,0.4,0.2,0.6,0.3l-27.1,15.7c-0.2-0.1-0.4-0.2-0.5-0.3l-0.1,0L438.2,40.4z"/>
		<path class="st4" d="M439.5,41.3c0.2,0.1,0.3,0.3,0.5,0.4l-26.9,15.5c-0.2-0.1-0.4-0.2-0.7-0.3L439.5,41.3z"/>
		<path class="st4" d="M440.8,42.2c0.2,0.1,0.3,0.3,0.4,0.4l-26.3,15.2c-0.2-0.1-0.5-0.2-0.7-0.3L440.8,42.2z"/>
		<path class="st4" d="M441.8,43.3c0.1,0.2,0.3,0.3,0.4,0.5l-25.3,14.6c-0.3-0.1-0.5-0.1-0.8-0.2L441.8,43.3z"/>
		<path class="st4" d="M442.7,44.5c0.1,0.2,0.2,0.3,0.3,0.5l-24,13.9c-0.3-0.1-0.6-0.1-0.9-0.2L442.7,44.5z"/>
		<g>
			<path class="st4" d="M443.4,45.8c0.1,0.2,0.1,0.4,0.2,0.6l-22.2,12.8c-0.3,0-0.7-0.1-1-0.1L443.4,45.8z"/>
		</g>
		<path class="st4" d="M443.8,47.2c0,0.2,0.1,0.4,0.1,0.6l-19.9,11.5c-0.4,0-0.7,0-1.1,0L443.8,47.2z"/>
		<path class="st4" d="M443.8,48.8c0,0.2-0.1,0.5-0.1,0.7L427,59.2c-0.4,0-0.8,0.1-1.3,0.1L443.8,48.8z"/>
		<path class="st4" d="M443.3,50.8c-0.1,0.2-0.2,0.4-0.3,0.7c0,0.1-0.1,0.2-0.2,0.3l-12.1,7l-0.5,0.1c-0.4,0.1-0.8,0.1-1.1,0.2
			L443.3,50.8z"/>
		<path class="st4" d="M439.6,55.2c0.8-0.5,1.4-1.1,2-1.7l-2.5,1.4l-2.9,1.6l-2.5,1.4c1-0.3,2-0.7,2.9-1.1L439.6,55.2z"/>
		<path class="st4" d="M413.2,39.2l27,15.6l-4.2,2.4l-27-15.6c0.6-0.4,1.3-0.8,2-1.2C411.8,40,412.5,39.6,413.2,39.2z"/>
		<g>
			<path class="st3" d="M405.7,46.4l0.8,0.5l0.6,0.3l0.9,0.5l0.6,0.3l0.9,0.5l0.6,0.3l0.9,0.5l0.6,0.3l0.9,0.5l0.6,0.3l0.9,0.5
				l0.6,0.3l0.9,0.5l0.6,0.3l0.9,0.5l0.6,0.3l0.9,0.5l0.6,0.3l0.9,0.5l0.6,0.3l0.9,0.5l0.6,0.3l0.9,0.5l0.6,0.3L424,57l0.6,0.3
				l0.9,0.5l0.6,0.3l0.9,0.5l0.6,0.3l0.4,0.2l1.3-0.1c0.4-0.1,0.8-0.1,1.1-0.2l-0.4-0.2l-0.9-0.5l-0.6-0.3l-0.9-0.5l-0.6-0.3
				l-0.9-0.5l-0.6-0.3l-0.9-0.5l-0.6-0.3l-0.9-0.5l-0.6-0.3l-0.9-0.5l-0.6-0.3l-0.9-0.5l-0.6-0.3l-0.9-0.5l-0.6-0.3l-0.9-0.5
				l-0.6-0.3l-0.9-0.5l-0.6-0.3l-0.9-0.5l-0.6-0.3l-0.9-0.5l-0.6-0.3l-0.9-0.5l-0.6-0.3l-0.9-0.5l-0.6-0.3l-0.9-0.5L408,46l-0.9-0.5
				l-0.6-0.3l-0.3-0.2c-0.1,0.2-0.2,0.3-0.2,0.5C405.9,45.8,405.8,46.1,405.7,46.4L405.7,46.4z"/>
			<path class="st3" d="M421.4,37.3c-0.5,0-1,0.1-1.5,0.2c-0.3,0-0.6,0.1-0.9,0.1l0.3,0.2l0.6,0.3l0.9,0.5l0.6,0.3l0.9,0.5l0.6,0.3
				l0.9,0.5l0.6,0.3l0.9,0.5l0.6,0.3l0.9,0.5l0.6,0.3l0.9,0.5l0.6,0.3l0.9,0.5l0.6,0.3l0.9,0.5l0.6,0.3l0.9,0.5l0.6,0.3l0.9,0.5
				l0.6,0.3l0.9,0.5l0.6,0.3l0.9,0.5l0.6,0.3l0.9,0.5l0.6,0.3l0.9,0.5l0.6,0.3l0.9,0.5l0.6,0.3l0.9,0.5l0.4,0.2
				c0.1-0.2,0.2-0.4,0.3-0.7c0.1-0.2,0.2-0.5,0.3-0.7l-0.4-0.2l-0.6-0.3l-0.9-0.5l-0.6-0.3l-0.9-0.5l-0.6-0.3l-0.9-0.5l-0.6-0.3
				l-0.9-0.5l-0.6-0.3l-0.9-0.5l-0.6-0.3l-0.9-0.5l-0.6-0.3l-0.9-0.5l-0.6-0.3l-0.9-0.5l-0.6-0.3l-0.9-0.5l-0.6-0.3l-0.9-0.5
				l-0.6-0.3l-0.9-0.5l-0.6-0.3l-0.9-0.5l-0.6-0.3l-0.9-0.5l-0.6-0.3l-0.9-0.5l-0.6-0.3L421.4,37.3L421.4,37.3z"/>
		</g>
	</g>
	<path class="st5" d="M415.9,56.9c0-1.7,1.2-3.3,3.3-4.6c0.9-0.5,1.9-0.9,3-1.2c-0.3,0.7-0.5,1.5-0.5,2.2c0,1.8,0.9,3.5,2.6,4.9
		C421.4,58.2,418.5,57.8,415.9,56.9 M433.2,39.7c0,1.7-1.2,3.3-3.3,4.6c-0.9,0.5-1.9,0.9-3,1.2c0.3-0.7,0.5-1.5,0.5-2.2
		c0-1.8-0.9-3.5-2.6-4.9C427.8,38.4,430.6,38.9,433.2,39.7 M423.4,43.3c0,0.7-0.2,1.4-0.6,2.1c-0.6-0.6-1.5-1.2-2.4-1.8
		c-2.2-1.2-4.9-2.1-7.8-2.4c2.2-1.2,4.8-2,7.5-2.4C422.2,39.9,423.4,41.6,423.4,43.3 M409.7,43.3c3,0,5.8,0.7,7.9,1.9
		c0.9,0.5,1.6,1.1,2.1,1.7c-1.2-0.2-2.5-0.3-3.9-0.3c-3.1,0-6,0.5-8.5,1.5C407.4,46.5,408.2,44.8,409.7,43.3 M408,50.9
		c2.1-1.2,4.9-1.9,7.9-1.9c1.2,0,2.4,0.1,3.6,0.3c-1.1,0.4-2.1,0.8-3.1,1.4c-2.2,1.2-3.6,2.8-4.2,4.5
		C410.1,53.9,408.7,52.4,408,50.9 M425.7,53.3c0-0.7,0.2-1.4,0.6-2.1c0.6,0.6,1.5,1.2,2.4,1.8c2.2,1.2,4.9,2.1,7.8,2.4
		c-2.2,1.2-4.8,2-7.5,2.4C426.9,56.7,425.7,55.1,425.7,53.3 M439.4,53.3c-3,0-5.8-0.7-7.9-1.9c-0.9-0.5-1.6-1.1-2.1-1.7
		c1.2,0.2,2.5,0.3,3.9,0.3c3.1,0,6-0.5,8.5-1.5C441.6,50.2,440.9,51.8,439.4,53.3 M441.2,45.8c-2.1,1.2-4.9,1.9-7.9,1.9
		c-1.2,0-2.4-0.1-3.6-0.3c1.1-0.4,2.1-0.8,3.1-1.4c2.2-1.2,3.6-2.8,4.2-4.5C439,42.7,440.4,44.2,441.2,45.8 M409.5,39.6
		c-8.3,4.8-8.3,12.6,0,17.3s21.7,4.8,30,0c8.3-4.8,8.3-12.6,0-17.3S417.8,34.9,409.5,39.6"/>
	<path class="st4" d="M420.5,46c2.2-1.3,5.9-1.3,8.1,0c2.2,1.3,2.2,3.4,0,4.7s-5.9,1.3-8.1,0C418.2,49.4,418.2,47.3,420.5,46"/>
	<path class="st3" d="M422.6,45.2c0.8,0.2,1.5,0.4,2.1,0.8c2.3,1.3,2.2,3.4,0,4.7c-0.6,0.4-1.3,0.6-2.1,0.8c2,0.4,4.4,0.2,6.1-0.8
		c2.3-1.3,2.2-3.4,0-4.7C427,45,424.6,44.8,422.6,45.2"/>
	<g>
		<path class="st5" d="M382.6,76.4c0-1.7,1.2-3.3,3.3-4.6c0.9-0.5,1.9-0.9,3-1.2c-0.3,0.7-0.5,1.5-0.5,2.2c0,1.8,0.9,3.5,2.6,4.9
			C388,77.7,385.1,77.2,382.6,76.4 M399.8,59.2c0,1.7-1.2,3.3-3.3,4.6c-0.9,0.5-1.9,0.9-3,1.2c0.3-0.7,0.5-1.5,0.5-2.2
			c0-1.8-0.9-3.5-2.6-4.9C394.4,57.9,397.2,58.4,399.8,59.2 M390,62.8c0,0.7-0.2,1.4-0.6,2.1c-0.6-0.6-1.5-1.2-2.4-1.8
			c-2.2-1.2-4.9-2.1-7.8-2.4c2.2-1.2,4.8-2,7.5-2.4C388.8,59.4,390,61.1,390,62.8 M376.3,62.8c3,0,5.8,0.7,7.9,1.9
			c0.9,0.5,1.6,1.1,2.1,1.7c-1.2-0.2-2.5-0.3-3.9-0.3c-3.1,0-6,0.5-8.5,1.5C374,66,374.8,64.3,376.3,62.8 M374.6,70.3
			c2.1-1.2,4.9-1.9,7.9-1.9c1.2,0,2.4,0.1,3.6,0.3c-1.1,0.4-2.1,0.8-3.1,1.4c-2.2,1.2-3.6,2.8-4.2,4.5
			C376.7,73.4,375.3,71.9,374.6,70.3 M392.3,72.8c0-0.7,0.2-1.4,0.6-2.1c0.6,0.6,1.5,1.2,2.4,1.8c2.2,1.2,4.9,2.1,7.8,2.4
			c-2.2,1.2-4.8,2-7.5,2.4C393.5,76.2,392.3,74.5,392.3,72.8 M406,72.8c-3,0-5.8-0.7-7.9-1.9c-0.9-0.5-1.6-1.1-2.1-1.7
			c1.2,0.2,2.5,0.3,3.9,0.3c3.1,0,6-0.5,8.5-1.5C408.3,69.7,407.5,71.3,406,72.8 M407.8,65.3c-2.1,1.2-4.9,1.9-7.9,1.9
			c-1.2,0-2.4-0.1-3.6-0.3c1.1-0.4,2.1-0.8,3.1-1.4c2.2-1.2,3.6-2.8,4.2-4.5C405.6,62.2,407,63.7,407.8,65.3 M376.2,59.1
			c-8.3,4.8-8.3,12.6,0,17.3s21.7,4.8,30,0c8.3-4.8,8.3-12.6,0-17.3C397.9,54.4,384.4,54.4,376.2,59.1"/>
		<g>
			<path class="st4" d="M387.1,65.5c2.2-1.3,5.9-1.3,8.1,0c2.2,1.3,2.2,3.4,0,4.7c-2.2,1.3-5.9,1.3-8.1,0
				C384.9,68.9,384.9,66.8,387.1,65.5"/>
			<path class="st3" d="M389.2,64.7c0.8,0.2,1.5,0.4,2.1,0.8c2.3,1.3,2.2,3.4,0,4.7c-0.6,0.4-1.3,0.6-2.1,0.8c2,0.4,4.4,0.2,6.1-0.8
				c2.3-1.3,2.2-3.4,0-4.7C393.6,64.5,391.2,64.3,389.2,64.7"/>
		</g>
	</g>
	<polygon class="st6" points="383.7,117.5 328.3,85 328.3,77.4 383.7,106.8 	"/>
	<path class="st7" d="M362.4,97.2l-3.5,2c-0.9,0.5-2.3,0.5-3.2,0L338,88.9c-0.9-0.5-0.9-1.3,0-1.8l3.5-2L362.4,97.2z"/>
	<path class="st3" d="M330,74.9C330,74.9,330,74.9,330,74.9L330,74.9c-0.5-0.3-1.3-0.4-1.9-0.4c-0.4,0-0.8,0.2-1.1,0.3l-6.4,3.7
		c-0.8,0.5-0.8,1.3,0,1.8c0.8,0.5,2.2,0.5,3,0l4.9-2.8l51.5,30.2c0.8,0.5,2.2,0.5,3,0l0.1,0c0.8-0.5,0.8-1.2,0-1.7L330,74.9
		C330,74.9,330,74.9,330,74.9"/>
	<g>
		<path class="st8" d="M397.3,102.3l-5.1-2.9L453.6,64l2.1,1.2l-2.8,1.6l1.9,0.5l-4.1,2.4l-0.3-0.2c-0.5-0.3-1.3-0.3-1.8,0l0,0
			c-0.5,0.3-0.5,0.7,0,1l1.8,1.1L411,94.4l-1.8-1.1c-0.4-0.2-1-0.2-1.3,0l0,0c-0.4,0.2-0.4,0.6,0,0.8l1.8,1.1l-5.9,3.4l-2.9-1.7
			l-2.2,1.3l2.9,1.7L397.3,102.3z"/>
		<polygon class="st9" points="452.8,73 413.4,95.7 411,94.4 450.5,71.6 		"/>
		<path class="st9" d="M403.8,96v2.6l2.2,1.3c0,0,5.9-3.3,5.9-3.4c0-0.1,0-2.6,0-2.6L403.8,96z"/>
		<polygon class="st8" points="392.2,96.8 392.2,99.4 401.6,99.8 403.8,98.5 402.3,96.5 392.3,96.8 		"/>
		<path class="st9" d="M450.7,69.7l2.4,1.4l5.6-3.2c0.7-0.4,0.7-1.1,0-1.6l-1.2-0.7L450.7,69.7z"/>
		<polygon class="st9" points="411.9,96.4 406,99.8 403.8,98.5 409.7,95.1 		"/>
		<polygon class="st9" points="411,91.8 411,93.5 413.3,95.1 414.2,92.7 		"/>
		<g>
			<path class="st6" d="M397.3,99.8l-5.1-2.9l61.4-35.4l2.1,1.2l-2.8,1.6l1.9,0.5l-4.1,2.4l-0.3-0.2c-0.5-0.3-1.3-0.3-1.8,0l0,0
				c-0.5,0.3-0.5,0.7,0,1l1.8,1.1L411,91.8l-1.8-1.1c-0.4-0.2-1-0.2-1.3,0l0,0c-0.4,0.2-0.4,0.6,0,0.8l1.8,1.1l-5.9,3.4l-2.9-1.7
				l-2.2,1.3l2.9,1.7L397.3,99.8z"/>
			<path class="st9" d="M450.7,67.1l2.4,1.4l5.6-3.2c0.7-0.4,0.7-1.1,0-1.6l-1.2-0.7L450.7,67.1z"/>
			<polygon class="st10" points="452.8,70.4 413.4,93.2 411,91.8 450.5,69 			"/>
			<polygon class="st10" points="411.9,93.8 406,97.2 403.8,96 409.7,92.6 			"/>
		</g>
		<polygon class="st9" points="452.8,70.4 452.8,73 450.1,73.3 450.1,72 		"/>
		<polygon class="st8" points="455.7,62.6 455.7,64.1 454.6,64.7 452.8,64.3 		"/>
	</g>
	<polygon class="st2" points="367.8,108.1 356.4,101.6 356.4,97 367.8,103.5 	"/>
	<polygon class="st2" points="355.2,101 343.9,94.5 343.9,90 355.2,96.5 	"/>
	<polygon class="st2" points="342.7,94 331.4,87.5 331.4,82.9 342.7,89.5 	"/>
</g>
<g>
	<polygon class="st1" points="194.2,76.7 194.2,87.5 190.4,86.2 184.1,83.6 185.8,76.5 185.6,74.9 	"/>
	<path class="st1" d="M184.2,82.9C184.2,82.9,184.2,82.9,184.2,82.9L184.2,82.9c0.5-0.3,1.3-0.4,1.9-0.4c0.4,0,0.8,0.2,1.1,0.3
		l6.4,3.7c0.8,0.5,0.8,1.3,0,1.8c-0.8,0.5-2.2,0.5-3,0l-4.9-2.8l-51.5,30.2c-0.8,0.5-2.2,0.5-3,0l-0.1,0c-0.8-0.5-0.8-1.2,0-1.7
		L184.2,82.9C184.1,82.9,184.2,82.9,184.2,82.9"/>
	<path class="st2" d="M50.4,47.1l8.6,2.8l31.7-18.3c1.5,0.4,2.9,0.9,4.1,1.6l77.5,44.7l9.6-5.5v11.1l-46.2,26.7l-81.5-47
		c-2.4-1.4-3.7-3.2-3.7-5l0,0V47.1z"/>
	<path class="st1" d="M54.2,41.7l36.5-21.1c1.5,0.4,2.9,0.9,4.1,1.6l87.1,50.3l-46.2,26.7l-81.5-47C49.2,49.3,49.2,44.6,54.2,41.7"
		/>
	<g>
		<g>
			<path class="st3" d="M163.5,78c0.8-0.5,0.8-1.3,0-1.8l-9.3-5.3c-0.8-0.5-2.2-0.5-3.1,0c-0.8,0.5-0.8,1.3,0,1.8l9.3,5.3
				C161.3,78.5,162.6,78.5,163.5,78"/>
			<path class="st3" d="M157.4,81.5c0.8-0.5,0.8-1.3,0-1.8l-9.3-5.3c-0.8-0.5-2.2-0.5-3.1,0c-0.8,0.5-0.8,1.3,0,1.8l9.3,5.3
				C155.2,82,156.6,82,157.4,81.5"/>
			<path class="st3" d="M151.3,85c0.8-0.5,0.8-1.3,0-1.8l-9.3-5.3c-0.8-0.5-2.2-0.5-3.1,0c-0.8,0.5-0.8,1.3,0,1.8l9.3,5.3
				C149.1,85.5,150.5,85.5,151.3,85"/>
			<path class="st3" d="M145.2,88.5c0.8-0.5,0.8-1.3,0-1.8l-9.3-5.3c-0.8-0.5-2.2-0.5-3.1,0c-0.8,0.5-0.8,1.3,0,1.8l9.3,5.3
				C143,89,144.4,89,145.2,88.5"/>
		</g>
		<path class="st3" d="M103.2,37.8c-7.5-4.3-19.6-4.3-27.1,0c-7.5,4.3-7.5,11.3,0,15.7c7.5,4.3,19.6,4.3,27.1,0
			C110.7,49.2,110.7,42.2,103.2,37.8"/>
	</g>
	<g>
		<path class="st3" d="M109.5,57.3L109.5,57.3c-0.2,0.1-0.4,0.2-0.6,0.3c-0.3,0.2-0.5,0.4-0.8,0.5c-0.2,0.1-0.3,0.3-0.5,0.4
			c-0.2,0.2-0.5,0.4-0.7,0.6c-0.2,0.1-0.3,0.3-0.4,0.4c-0.2,0.2-0.4,0.4-0.6,0.6c-0.1,0.2-0.3,0.3-0.4,0.5c-0.2,0.2-0.3,0.5-0.5,0.7
			c-0.1,0.2-0.2,0.3-0.3,0.5c-0.1,0.3-0.3,0.5-0.4,0.8c-0.1,0.2-0.1,0.4-0.2,0.6c-0.1,0.3-0.2,0.6-0.2,0.9c0,0.2-0.1,0.4-0.1,0.6
			c0,0.3,0,0.7,0,1c0,0.2,0.1,0.5,0.1,0.7c0,0.2,0.1,0.3,0.1,0.5c0.1,0.3,0.2,0.5,0.3,0.7c0.1,0.2,0.2,0.4,0.3,0.7
			c0,0.1,0.1,0.2,0.2,0.3c0.3,0.6,0.8,1.2,1.3,1.8c0.6,0.6,1.2,1.2,2,1.7c0.4,0.3,0.9,0.6,1.4,0.9c0.5,0.3,1,0.5,1.5,0.8
			c0.9,0.4,1.9,0.8,2.9,1.1c1,0.3,2,0.6,3.1,0.8l0.5,0.1c0.4,0.1,0.8,0.1,1.1,0.2c0.4,0.1,0.9,0.1,1.3,0.1c0.3,0,0.5,0,0.8,0.1
			c0.4,0,0.8,0.1,1.3,0.1c0.6,0,1.2,0,1.7,0c0.4,0,0.7,0,1.1,0c0.5,0,1-0.1,1.5-0.1c0.3,0,0.7-0.1,1-0.1c0.5-0.1,0.9-0.1,1.4-0.2
			c0.3-0.1,0.6-0.1,0.9-0.2c0.4-0.1,0.8-0.2,1.2-0.3c0.3-0.1,0.5-0.1,0.8-0.2c0.4-0.1,0.8-0.2,1.1-0.4c0.2-0.1,0.5-0.2,0.7-0.3
			c0.3-0.1,0.7-0.3,1-0.4c0.2-0.1,0.4-0.2,0.7-0.3c0.3-0.1,0.6-0.3,0.9-0.5c0.2-0.1,0.4-0.2,0.5-0.3l0.1,0c0.3-0.2,0.6-0.3,0.8-0.5
			c0.2-0.1,0.4-0.2,0.5-0.4c0.3-0.2,0.5-0.4,0.7-0.6c0.2-0.1,0.3-0.3,0.5-0.4c0.2-0.2,0.4-0.4,0.6-0.6c0.1-0.1,0.3-0.3,0.4-0.4
			c0.2-0.2,0.4-0.5,0.5-0.7c0.1-0.2,0.2-0.3,0.3-0.5c0.2-0.3,0.3-0.5,0.4-0.8c0.1-0.2,0.2-0.4,0.2-0.5c0.1-0.3,0.2-0.6,0.3-0.8
			c0.1-0.2,0.1-0.4,0.1-0.6c0-0.3,0.1-0.6,0.1-1c0-0.2,0-0.5,0-0.7c0-0.4-0.1-0.7-0.2-1.1c0,0,0,0,0,0c-0.1-0.3-0.2-0.6-0.3-0.9
			c-0.1-0.2-0.2-0.3-0.2-0.5c-0.2-0.3-0.4-0.7-0.6-1c-0.3-0.5-0.7-0.9-1.1-1.3c-0.5-0.5-1.1-1-1.7-1.4c-0.4-0.3-0.9-0.6-1.4-0.9
			c-0.5-0.3-1-0.5-1.5-0.8c-0.8-0.4-1.6-0.7-2.5-1c-0.7-0.3-1.5-0.5-2.3-0.7c-0.6-0.1-1.1-0.2-1.7-0.4c-0.3-0.1-0.6-0.1-0.9-0.1
			c-0.5-0.1-1-0.1-1.5-0.2c0,0-0.1,0-0.1,0c-0.6-0.1-1.2-0.1-1.9-0.1c-0.4,0-0.8,0-1.2,0c-0.6,0-1.1,0-1.7,0c-0.3,0-0.7,0-1.1,0.1
			c-0.5,0-1,0.1-1.5,0.2c-0.3,0-0.6,0.1-0.9,0.1c-0.4,0.1-0.9,0.1-1.3,0.2c-0.3,0.1-0.6,0.1-0.8,0.2c-0.4,0.1-0.8,0.2-1.2,0.3
			c-0.3,0.1-0.5,0.1-0.8,0.2c-0.4,0.1-0.7,0.2-1.1,0.4c-0.2,0.1-0.5,0.2-0.7,0.3c-0.3,0.1-0.7,0.3-1,0.4c-0.2,0.1-0.4,0.2-0.6,0.3
			C110.1,57,109.8,57.1,109.5,57.3z"/>
		<path class="st4" d="M130.3,54.9l10.5,6c-0.3-0.5-0.7-0.9-1.1-1.3l-7-4.1C131.8,55.3,131.1,55.1,130.3,54.9z"/>
		<path class="st4" d="M126.2,54.2l15.7,9.1c-0.1-0.3-0.2-0.6-0.3-0.9l-13.9-8C127.2,54.4,126.7,54.3,126.2,54.2z"/>
		<path class="st4" d="M123.1,54.1l19.1,11c0-0.2,0-0.5,0-0.7l-17.9-10.3C123.9,54.1,123.5,54.1,123.1,54.1z"/>
		<path class="st4" d="M120.3,54.2L142,66.7c0.1-0.2,0.1-0.4,0.1-0.6l-20.7-12C121,54.1,120.7,54.2,120.3,54.2z"/>
		<path class="st4" d="M117.9,54.5l23.6,13.6c0.1-0.2,0.2-0.4,0.2-0.5l-22.9-13.2C118.5,54.4,118.2,54.4,117.9,54.5z"/>
		<path class="st4" d="M115.8,54.9l25,14.4c0.1-0.2,0.2-0.3,0.3-0.5l-24.5-14.1C116.3,54.8,116,54.8,115.8,54.9z"/>
		<path class="st4" d="M113.8,55.4l26,15c0.1-0.1,0.3-0.3,0.4-0.4l-25.7-14.8C114.3,55.3,114,55.4,113.8,55.4z"/>
		<path class="st4" d="M112,56.1l26.7,15.4c0.2-0.1,0.3-0.3,0.5-0.4l-26.5-15.3C112.5,55.9,112.2,56,112,56.1z"/>
		<path class="st4" d="M110.4,56.8l27.1,15.6c0.2-0.1,0.4-0.2,0.5-0.4l-27-15.6C110.8,56.6,110.6,56.7,110.4,56.8z"/>
		<path class="st4" d="M109.5,57.3L109.5,57.3c-0.2,0.1-0.4,0.2-0.6,0.3L136,73.3c0.2-0.1,0.4-0.2,0.5-0.3l0.1,0L109.5,57.3z"/>
		<path class="st4" d="M108.1,58.2c-0.2,0.1-0.3,0.3-0.5,0.4l26.9,15.5c0.2-0.1,0.4-0.2,0.7-0.3L108.1,58.2z"/>
		<path class="st4" d="M106.9,59.2c-0.2,0.1-0.3,0.3-0.4,0.4l26.3,15.2c0.2-0.1,0.5-0.2,0.7-0.3L106.9,59.2z"/>
		<path class="st4" d="M105.8,60.2c-0.1,0.2-0.3,0.3-0.4,0.5l25.3,14.6c0.3-0.1,0.5-0.1,0.8-0.2L105.8,60.2z"/>
		<path class="st4" d="M104.9,61.4c-0.1,0.2-0.2,0.3-0.3,0.5l24,13.9c0.3-0.1,0.6-0.1,0.9-0.2L104.9,61.4z"/>
		<g>
			<path class="st4" d="M104.3,62.7c-0.1,0.2-0.1,0.4-0.2,0.6l22.2,12.8c0.3,0,0.7-0.1,1-0.1L104.3,62.7z"/>
		</g>
		<path class="st4" d="M103.9,64.1c0,0.2-0.1,0.4-0.1,0.6l19.9,11.5c0.4,0,0.7,0,1.1,0L103.9,64.1z"/>
		<path class="st4" d="M103.8,65.8c0,0.2,0.1,0.5,0.1,0.7l16.7,9.7c0.4,0,0.8,0.1,1.3,0.1L103.8,65.8z"/>
		<path class="st4" d="M104.3,67.7c0.1,0.2,0.2,0.4,0.3,0.7c0,0.1,0.1,0.2,0.2,0.3l12.1,7l0.5,0.1c0.4,0.1,0.8,0.1,1.1,0.2
			L104.3,67.7z"/>
		<path class="st4" d="M108.1,72.1c-0.8-0.5-1.4-1.1-2-1.7l2.5,1.4l2.9,1.6l2.5,1.4c-1-0.3-2-0.7-2.9-1.1L108.1,72.1z"/>
		<path class="st4" d="M134.4,56.2l-27,15.6l4.2,2.4l27-15.6c-0.6-0.4-1.3-0.8-2-1.2C135.9,56.9,135.1,56.5,134.4,56.2z"/>
		<g>
			<path class="st3" d="M141.9,63.3l-0.8,0.5l-0.6,0.3l-0.9,0.5l-0.6,0.3l-0.9,0.5l-0.6,0.3l-0.9,0.5l-0.6,0.3l-0.9,0.5l-0.6,0.3
				l-0.9,0.5l-0.6,0.3l-0.9,0.5l-0.6,0.3l-0.9,0.5l-0.6,0.3l-0.9,0.5l-0.6,0.3l-0.9,0.5l-0.6,0.3l-0.9,0.5l-0.6,0.3l-0.9,0.5
				l-0.6,0.3l-0.9,0.5l-0.6,0.3l-0.9,0.5l-0.6,0.3l-0.9,0.5l-0.6,0.3l-0.4,0.2l-1.3-0.1c-0.4-0.1-0.8-0.1-1.1-0.2l0.4-0.2l0.9-0.5
				l0.6-0.3l0.9-0.5l0.6-0.3l0.9-0.5l0.6-0.3l0.9-0.5l0.6-0.3l0.9-0.5l0.6-0.3l0.9-0.5l0.6-0.3l0.9-0.5l0.6-0.3l0.9-0.5l0.6-0.3
				l0.9-0.5l0.6-0.3l0.9-0.5l0.6-0.3l0.9-0.5l0.6-0.3l0.9-0.5l0.6-0.3l0.9-0.5l0.6-0.3l0.9-0.5l0.6-0.3l0.9-0.5l0.6-0.3l0.9-0.5
				l0.6-0.3l0.3-0.2c0.1,0.2,0.2,0.3,0.2,0.5C141.7,62.7,141.8,63,141.9,63.3L141.9,63.3z"/>
			<path class="st3" d="M126.2,54.2c0.5,0,1,0.1,1.5,0.2c0.3,0,0.6,0.1,0.9,0.1l-0.3,0.2l-0.6,0.3l-0.9,0.5l-0.6,0.3l-0.9,0.5
				l-0.6,0.3l-0.9,0.5l-0.6,0.3l-0.9,0.5l-0.6,0.3l-0.9,0.5l-0.6,0.3l-0.9,0.5l-0.6,0.3l-0.9,0.5l-0.6,0.3l-0.9,0.5l-0.6,0.3
				l-0.9,0.5l-0.6,0.3l-0.9,0.5l-0.6,0.3l-0.9,0.5l-0.6,0.3l-0.9,0.5l-0.6,0.3l-0.9,0.5l-0.6,0.3l-0.9,0.5l-0.6,0.3l-0.9,0.5
				l-0.6,0.3l-0.9,0.5l-0.4,0.2c-0.1-0.2-0.2-0.4-0.3-0.7c-0.1-0.2-0.2-0.5-0.3-0.7l0.4-0.2l0.6-0.3l0.9-0.5l0.6-0.3l0.9-0.5
				l0.6-0.3l0.9-0.5l0.6-0.3l0.9-0.5l0.6-0.3l0.9-0.5l0.6-0.3l0.9-0.5l0.6-0.3l0.9-0.5l0.6-0.3l0.9-0.5l0.6-0.3l0.9-0.5l0.6-0.3
				l0.9-0.5l0.6-0.3l0.9-0.5l0.6-0.3l0.9-0.5l0.6-0.3l0.9-0.5l0.6-0.3l0.9-0.5l0.6-0.3L126.2,54.2L126.2,54.2z"/>
		</g>
	</g>
	<g>
		<path class="st3" d="M76,37.7L76,37.7c-0.2,0.1-0.4,0.2-0.6,0.3c-0.3,0.2-0.5,0.4-0.8,0.5c-0.2,0.1-0.3,0.3-0.5,0.4
			c-0.2,0.2-0.5,0.4-0.7,0.6c-0.2,0.1-0.3,0.3-0.4,0.4c-0.2,0.2-0.4,0.4-0.6,0.6c-0.1,0.2-0.3,0.3-0.4,0.5c-0.2,0.2-0.3,0.5-0.5,0.7
			c-0.1,0.2-0.2,0.3-0.3,0.5c-0.1,0.3-0.3,0.5-0.4,0.8c-0.1,0.2-0.1,0.4-0.2,0.6c-0.1,0.3-0.2,0.6-0.2,0.9c0,0.2-0.1,0.4-0.1,0.6
			c0,0.3,0,0.7,0,1c0,0.2,0.1,0.5,0.1,0.7c0,0.2,0.1,0.3,0.1,0.5c0.1,0.3,0.2,0.5,0.3,0.7c0.1,0.2,0.2,0.4,0.3,0.7
			c0,0.1,0.1,0.2,0.2,0.3c0.3,0.6,0.8,1.2,1.3,1.8c0.6,0.6,1.2,1.2,2,1.7c0.4,0.3,0.9,0.6,1.4,0.9c0.5,0.3,1,0.5,1.5,0.8
			c0.9,0.4,1.9,0.8,2.9,1.1c1,0.3,2,0.6,3.1,0.8l0.5,0.1c0.4,0.1,0.8,0.1,1.1,0.2c0.4,0.1,0.9,0.1,1.3,0.1c0.3,0,0.5,0,0.8,0.1
			c0.4,0,0.8,0.1,1.3,0.1c0.6,0,1.2,0,1.7,0c0.4,0,0.7,0,1.1,0c0.5,0,1-0.1,1.5-0.1c0.3,0,0.7-0.1,1-0.1c0.5-0.1,0.9-0.1,1.4-0.2
			c0.3-0.1,0.6-0.1,0.9-0.2c0.4-0.1,0.8-0.2,1.2-0.3c0.3-0.1,0.5-0.1,0.8-0.2c0.4-0.1,0.8-0.2,1.1-0.4c0.2-0.1,0.5-0.2,0.7-0.3
			c0.3-0.1,0.7-0.3,1-0.4c0.2-0.1,0.4-0.2,0.7-0.3c0.3-0.1,0.6-0.3,0.9-0.5c0.2-0.1,0.4-0.2,0.5-0.3l0.1,0c0.3-0.2,0.6-0.3,0.8-0.5
			c0.2-0.1,0.4-0.2,0.5-0.4c0.3-0.2,0.5-0.4,0.7-0.6c0.2-0.1,0.3-0.3,0.5-0.4c0.2-0.2,0.4-0.4,0.6-0.6c0.1-0.1,0.3-0.3,0.4-0.4
			c0.2-0.2,0.4-0.5,0.5-0.7c0.1-0.2,0.2-0.3,0.3-0.5c0.2-0.3,0.3-0.5,0.4-0.8c0.1-0.2,0.2-0.4,0.2-0.5c0.1-0.3,0.2-0.6,0.3-0.8
			c0.1-0.2,0.1-0.4,0.1-0.6c0-0.3,0.1-0.6,0.1-1c0-0.2,0-0.5,0-0.7c0-0.4-0.1-0.7-0.2-1.1c0,0,0,0,0,0c-0.1-0.3-0.2-0.6-0.3-0.9
			c-0.1-0.2-0.2-0.3-0.2-0.5c-0.2-0.3-0.4-0.7-0.6-1c-0.3-0.5-0.7-0.9-1.1-1.3c-0.5-0.5-1.1-1-1.7-1.4c-0.4-0.3-0.9-0.6-1.4-0.9
			c-0.5-0.3-1-0.5-1.5-0.8c-0.8-0.4-1.6-0.7-2.5-1c-0.7-0.3-1.5-0.5-2.3-0.7c-0.6-0.1-1.1-0.2-1.7-0.4c-0.3-0.1-0.6-0.1-0.9-0.1
			c-0.5-0.1-1-0.1-1.5-0.2c0,0-0.1,0-0.1,0c-0.6-0.1-1.2-0.1-1.9-0.1c-0.4,0-0.8,0-1.2,0c-0.6,0-1.1,0-1.7,0c-0.3,0-0.7,0-1.1,0.1
			c-0.5,0-1,0.1-1.5,0.2c-0.3,0-0.6,0.1-0.9,0.1c-0.4,0.1-0.9,0.1-1.3,0.2c-0.3,0.1-0.6,0.1-0.8,0.2c-0.4,0.1-0.8,0.2-1.2,0.3
			c-0.3,0.1-0.5,0.1-0.8,0.2c-0.4,0.1-0.7,0.2-1.1,0.4c-0.2,0.1-0.5,0.2-0.7,0.3c-0.3,0.1-0.7,0.3-1,0.4c-0.2,0.1-0.4,0.2-0.6,0.3
			C76.6,37.4,76.3,37.6,76,37.7z"/>
		<path class="st4" d="M96.8,35.4l10.5,6c-0.3-0.5-0.7-0.9-1.1-1.3l-7-4.1C98.4,35.8,97.6,35.5,96.8,35.4z"/>
		<path class="st4" d="M92.7,34.7l15.7,9.1c-0.1-0.3-0.2-0.6-0.3-0.9l-13.9-8C93.7,34.8,93.2,34.7,92.7,34.7z"/>
		<path class="st4" d="M89.6,34.5l19.1,11c0-0.2,0-0.5,0-0.7L90.8,34.6C90.4,34.5,90,34.5,89.6,34.5z"/>
		<path class="st4" d="M86.8,34.6l21.7,12.5c0.1-0.2,0.1-0.4,0.1-0.6l-20.7-12C87.5,34.6,87.2,34.6,86.8,34.6z"/>
		<path class="st4" d="M84.4,34.9L108,48.5c0.1-0.2,0.2-0.4,0.2-0.5L85.4,34.8C85.1,34.8,84.8,34.9,84.4,34.9z"/>
		<path class="st4" d="M82.3,35.3l25,14.4c0.1-0.2,0.2-0.3,0.3-0.5L83.1,35.2C82.8,35.2,82.5,35.3,82.3,35.3z"/>
		<path class="st4" d="M80.3,35.9l26,15c0.1-0.1,0.3-0.3,0.4-0.4L81.1,35.6C80.8,35.7,80.6,35.8,80.3,35.9z"/>
		<path class="st4" d="M78.5,36.5L105.2,52c0.2-0.1,0.3-0.3,0.5-0.4L79.2,36.3C79,36.3,78.7,36.4,78.5,36.5z"/>
		<path class="st4" d="M76.9,37.3L104,52.9c0.2-0.1,0.4-0.2,0.5-0.4L77.5,37C77.3,37.1,77.1,37.2,76.9,37.3z"/>
		<path class="st4" d="M76,37.7L76,37.7c-0.2,0.1-0.4,0.2-0.6,0.3l27.1,15.7c0.2-0.1,0.4-0.2,0.5-0.3l0.1,0L76,37.7z"/>
		<path class="st4" d="M74.6,38.6c-0.2,0.1-0.3,0.3-0.5,0.4l26.9,15.5c0.2-0.1,0.4-0.2,0.7-0.3L74.6,38.6z"/>
		<path class="st4" d="M73.4,39.6c-0.2,0.1-0.3,0.3-0.4,0.4l26.3,15.2c0.2-0.1,0.5-0.2,0.7-0.3L73.4,39.6z"/>
		<path class="st4" d="M72.3,40.7c-0.1,0.2-0.3,0.3-0.4,0.5l25.3,14.6c0.3-0.1,0.5-0.1,0.8-0.2L72.3,40.7z"/>
		<path class="st4" d="M71.5,41.8c-0.1,0.2-0.2,0.3-0.3,0.5l24,13.9c0.3-0.1,0.6-0.1,0.9-0.2L71.5,41.8z"/>
		<g>
			<path class="st4" d="M70.8,43.1c-0.1,0.2-0.1,0.4-0.2,0.6l22.2,12.8c0.3,0,0.7-0.1,1-0.1L70.8,43.1z"/>
		</g>
		<path class="st4" d="M70.4,44.6c0,0.2-0.1,0.4-0.1,0.6l19.9,11.5c0.4,0,0.7,0,1.1,0L70.4,44.6z"/>
		<path class="st4" d="M70.3,46.2c0,0.2,0.1,0.5,0.1,0.7l16.7,9.7c0.4,0,0.8,0.1,1.3,0.1L70.3,46.2z"/>
		<path class="st4" d="M70.8,48.2c0.1,0.2,0.2,0.4,0.3,0.7c0,0.1,0.1,0.2,0.2,0.3l12.1,7l0.5,0.1c0.4,0.1,0.8,0.1,1.1,0.2L70.8,48.2
			z"/>
		<path class="st4" d="M74.6,52.6c-0.8-0.5-1.4-1.1-2-1.7l2.5,1.4l2.9,1.6l2.5,1.4c-1-0.3-2-0.7-2.9-1.1L74.6,52.6z"/>
		<path class="st4" d="M100.9,36.6l-27,15.6l4.2,2.4l27-15.6c-0.6-0.4-1.3-0.8-2-1.2C102.4,37.4,101.7,37,100.9,36.6z"/>
		<g>
			<path class="st3" d="M108.4,43.8l-0.8,0.5l-0.6,0.3l-0.9,0.5l-0.6,0.3l-0.9,0.5l-0.6,0.3l-0.9,0.5l-0.6,0.3l-0.9,0.5l-0.6,0.3
				l-0.9,0.5l-0.6,0.3l-0.9,0.5l-0.6,0.3l-0.9,0.5l-0.6,0.3L96,51l-0.6,0.3l-0.9,0.5L94,52.1l-0.9,0.5L92.5,53l-0.9,0.5l-0.6,0.3
				l-0.9,0.5l-0.6,0.3l-0.9,0.5l-0.6,0.3L87.3,56l-0.6,0.3l-0.4,0.2l-1.3-0.1c-0.4-0.1-0.8-0.1-1.1-0.2l0.4-0.2l0.9-0.5l0.6-0.3
				l0.9-0.5l0.6-0.3l0.9-0.5l0.6-0.3l0.9-0.5l0.6-0.3l0.9-0.5l0.6-0.3l0.9-0.5l0.6-0.3l0.9-0.5l0.6-0.3l0.9-0.5l0.6-0.3l0.9-0.5
				l0.6-0.3l0.9-0.5l0.6-0.3l0.9-0.5l0.6-0.3l0.9-0.5l0.6-0.3l0.9-0.5l0.6-0.3l0.9-0.5l0.6-0.3l0.9-0.5l0.6-0.3l0.9-0.5l0.6-0.3
				l0.3-0.2c0.1,0.2,0.2,0.3,0.2,0.5C108.2,43.2,108.3,43.5,108.4,43.8L108.4,43.8z"/>
			<path class="st3" d="M92.7,34.7c0.5,0,1,0.1,1.5,0.2c0.3,0,0.6,0.1,0.9,0.1l-0.3,0.2l-0.6,0.3L93.3,36l-0.6,0.3l-0.9,0.5
				l-0.6,0.3l-0.9,0.5L89.8,38L89,38.5l-0.6,0.3l-0.9,0.5l-0.6,0.3l-0.9,0.5l-0.6,0.3L84.6,41L84,41.4l-0.9,0.5l-0.6,0.3l-0.9,0.5
				l-0.6,0.3l-0.9,0.5l-0.6,0.3l-0.9,0.5l-0.6,0.3l-0.9,0.5l-0.6,0.3l-0.9,0.5l-0.6,0.3l-0.9,0.5l-0.6,0.3L73,47.8l-0.6,0.3
				l-0.9,0.5l-0.4,0.2c-0.1-0.2-0.2-0.4-0.3-0.7c-0.1-0.2-0.2-0.5-0.3-0.7l0.4-0.2l0.6-0.3l0.9-0.5L73,46l0.9-0.5l0.6-0.3l0.9-0.5
				l0.6-0.3l0.9-0.5l0.6-0.3l0.9-0.5l0.6-0.3l0.9-0.5l0.6-0.3l0.9-0.5l0.6-0.3l0.9-0.5l0.6-0.3l0.9-0.5l0.6-0.3l0.9-0.5l0.6-0.3
				l0.9-0.5l0.6-0.3l0.9-0.5l0.6-0.3l0.9-0.5l0.6-0.3l0.9-0.5l0.6-0.3L92.7,34.7L92.7,34.7z"/>
		</g>
	</g>
	<path class="st5" d="M98.2,54.3c-2.6,0.9-5.4,1.3-8.3,1.3c1.6-1.4,2.6-3.1,2.6-4.9c0-0.8-0.2-1.5-0.5-2.2c1.1,0.3,2.1,0.7,3,1.2
		C97,50.9,98.2,52.6,98.2,54.3 M81,37.1c2.6-0.9,5.4-1.3,8.3-1.3c-1.6,1.4-2.6,3.1-2.6,4.9c0,0.8,0.2,1.5,0.5,2.2
		c-1.1-0.3-2.1-0.7-3-1.2C82.1,40.4,81,38.8,81,37.1 M90.8,40.7c0-1.7,1.2-3.4,3.2-4.6c2.7,0.4,5.3,1.2,7.5,2.4
		c-2.9,0.3-5.6,1.2-7.8,2.4c-0.9,0.5-1.7,1.1-2.4,1.8C91,42.1,90.8,41.4,90.8,40.7 M104.5,40.7c1.5,1.5,2.3,3.1,2.3,4.8
		c-2.5-0.9-5.4-1.5-8.5-1.5c-1.3,0-2.6,0.1-3.9,0.3c0.5-0.6,1.2-1.2,2.1-1.7C98.7,41.4,101.5,40.7,104.5,40.7 M106.2,48.2
		c-0.7,1.6-2.1,3.1-4.2,4.3c-0.6-1.7-2-3.3-4.2-4.5c-0.9-0.5-2-1-3.1-1.4c1.1-0.2,2.4-0.3,3.6-0.3C101.3,46.3,104.1,47,106.2,48.2
		 M88.5,50.7c0,1.7-1.2,3.3-3.2,4.6c-2.7-0.4-5.3-1.2-7.5-2.4c2.9-0.3,5.6-1.2,7.8-2.4c0.9-0.5,1.7-1.1,2.4-1.8
		C88.3,49.3,88.5,50,88.5,50.7 M74.8,50.7c-1.5-1.5-2.3-3.1-2.3-4.8c2.5,1,5.4,1.5,8.5,1.5c1.3,0,2.6-0.1,3.9-0.3
		c-0.5,0.6-1.2,1.2-2.1,1.7C80.5,50,77.7,50.6,74.8,50.7 M73,43.1c0.7-1.6,2.1-3.1,4.2-4.3c0.6,1.7,2,3.3,4.2,4.5
		c0.9,0.5,2,1,3.1,1.4c-1.1,0.2-2.4,0.3-3.6,0.3C77.9,45,75.1,44.3,73,43.1 M104.6,37c-8.3-4.8-21.7-4.8-30,0s-8.3,12.5,0,17.3
		c8.3,4.8,21.7,4.8,30,0S112.9,41.8,104.6,37"/>
	<path class="st4" d="M93.7,43.3c-2.2-1.3-5.9-1.3-8.1,0c-2.2,1.3-2.2,3.4,0,4.7c2.2,1.3,5.9,1.3,8.1,0
		C95.9,46.7,95.9,44.6,93.7,43.3"/>
	<path class="st3" d="M91.6,42.6c-0.8,0.2-1.5,0.4-2.1,0.8c-2.3,1.3-2.2,3.4,0,4.7c0.6,0.4,1.3,0.6,2.1,0.8c-2,0.4-4.4,0.2-6.1-0.8
		c-2.3-1.3-2.2-3.4,0-4.7C87.2,42.4,89.6,42.1,91.6,42.6"/>
	<g>
		<path class="st5" d="M131.6,73.8c-2.6,0.9-5.4,1.3-8.3,1.3c1.6-1.4,2.6-3.1,2.6-4.9c0-0.8-0.2-1.5-0.5-2.2c1.1,0.3,2.1,0.7,3,1.2
			C130.4,70.4,131.6,72,131.6,73.8 M114.4,56.6c2.6-0.9,5.4-1.3,8.3-1.3c-1.6,1.4-2.6,3.1-2.6,4.9c0,0.8,0.2,1.5,0.5,2.2
			c-1.1-0.3-2.1-0.7-3-1.2C115.5,59.9,114.4,58.3,114.4,56.6 M124.2,60.2c0-1.7,1.2-3.4,3.2-4.6c2.7,0.4,5.3,1.2,7.5,2.4
			c-2.9,0.3-5.6,1.2-7.8,2.4c-0.9,0.5-1.7,1.1-2.4,1.8C124.3,61.6,124.2,60.9,124.2,60.2 M137.9,60.2c1.5,1.5,2.3,3.1,2.3,4.8
			c-2.5-0.9-5.4-1.5-8.5-1.5c-1.3,0-2.6,0.1-3.9,0.3c0.5-0.6,1.2-1.2,2.1-1.7C132.1,60.9,134.9,60.2,137.9,60.2 M139.6,67.7
			c-0.7,1.6-2.1,3.1-4.2,4.3c-0.6-1.7-2-3.3-4.2-4.5c-0.9-0.5-2-1-3.1-1.4c1.1-0.2,2.4-0.3,3.6-0.3
			C134.6,65.8,137.5,66.5,139.6,67.7 M121.8,70.2c0,1.7-1.2,3.3-3.2,4.6c-2.7-0.4-5.3-1.2-7.5-2.4c2.9-0.3,5.6-1.2,7.8-2.4
			c0.9-0.5,1.7-1.1,2.4-1.8C121.7,68.8,121.8,69.5,121.8,70.2 M108.1,70.1c-1.5-1.5-2.3-3.1-2.3-4.8c2.5,1,5.4,1.5,8.5,1.5
			c1.3,0,2.6-0.1,3.9-0.3c-0.5,0.6-1.2,1.2-2.1,1.7C113.9,69.5,111.1,70.1,108.1,70.1 M106.4,62.6c0.7-1.6,2.1-3.1,4.2-4.3
			c0.6,1.7,2,3.3,4.2,4.5c0.9,0.5,2,1,3.1,1.4c-1.1,0.2-2.4,0.3-3.6,0.3C111.3,64.5,108.5,63.8,106.4,62.6 M138,56.5
			c-8.3-4.8-21.7-4.8-30,0s-8.3,12.5,0,17.3c8.3,4.8,21.7,4.8,30,0S146.3,61.3,138,56.5"/>
		<g>
			<path class="st4" d="M127.1,62.8c-2.2-1.3-5.9-1.3-8.1,0c-2.2,1.3-2.2,3.4,0,4.7c2.2,1.3,5.9,1.3,8.1,0
				C129.3,66.2,129.3,64.1,127.1,62.8"/>
			<path class="st3" d="M125,62.1c-0.8,0.2-1.5,0.4-2.1,0.8c-2.3,1.3-2.2,3.4,0,4.7c0.6,0.4,1.3,0.6,2.1,0.8c-2,0.4-4.4,0.2-6.1-0.8
				c-2.3-1.3-2.2-3.4,0-4.7C120.6,61.9,122.9,61.6,125,62.1"/>
		</g>
	</g>
	<polygon class="st6" points="130.5,114.9 185.8,82.4 185.8,74.8 130.5,104.2 	"/>
	<path class="st7" d="M151.7,94.5l3.5,2c0.9,0.5,2.3,0.5,3.2,0l17.8-10.3c0.9-0.5,0.9-1.3,0-1.8l-3.5-2L151.7,94.5z"/>
	<path class="st3" d="M184.2,72.3C184.2,72.3,184.2,72.3,184.2,72.3L184.2,72.3c0.5-0.3,1.3-0.4,1.9-0.4c0.4,0,0.8,0.2,1.1,0.3
		l6.4,3.7c0.8,0.5,0.8,1.3,0,1.8c-0.8,0.5-2.2,0.5-3,0l-4.9-2.8l-51.5,30.2c-0.8,0.5-2.2,0.5-3,0l-0.1,0c-0.8-0.5-0.8-1.2,0-1.7
		L184.2,72.3C184.1,72.3,184.2,72.3,184.2,72.3"/>
	<g>
		<path class="st8" d="M116.9,99.7l5.1-2.9L60.6,61.3l-2.1,1.2l2.8,1.6l-1.9,0.5l4.1,2.4l0.3-0.2c0.5-0.3,1.3-0.3,1.8,0l0,0
			c0.5,0.3,0.5,0.7,0,1L63.7,69l39.4,22.8l1.8-1.1c0.4-0.2,1-0.2,1.3,0l0,0c0.4,0.2,0.4,0.6,0,0.8l-1.8,1.1l5.9,3.4l2.9-1.7l2.2,1.3
			l-2.9,1.7L116.9,99.7z"/>
		<polygon class="st9" points="61.3,70.3 100.7,93.1 103.1,91.7 63.7,69 		"/>
		<path class="st9" d="M110.3,93.3v2.6l-2.2,1.3c0,0-5.9-3.3-5.9-3.4c0-0.1,0-2.6,0-2.6L110.3,93.3z"/>
		<polygon class="st8" points="122,94.2 122,96.8 112.5,97.2 110.3,95.9 111.8,93.9 121.8,94.1 		"/>
		<path class="st9" d="M63.5,67l-2.4,1.4l-5.6-3.2c-0.7-0.4-0.7-1.1,0-1.6l1.2-0.7L63.5,67z"/>
		<polygon class="st9" points="102.2,93.8 108.1,97.2 110.3,95.9 104.4,92.5 		"/>
		<polygon class="st9" points="103.1,89.2 103.1,90.9 100.9,92.5 100,90.1 		"/>
		<g>
			<path class="st6" d="M116.9,97.1l5.1-2.9L60.6,58.8L58.5,60l2.8,1.6l-1.9,0.5l4.1,2.4l0.3-0.2c0.5-0.3,1.3-0.3,1.8,0l0,0
				c0.5,0.3,0.5,0.7,0,1l-1.8,1.1l39.4,22.8l1.8-1.1c0.4-0.2,1-0.2,1.3,0l0,0c0.4,0.2,0.4,0.6,0,0.8l-1.8,1.1l5.9,3.4l2.9-1.7
				l2.2,1.3l-2.9,1.7L116.9,97.1z"/>
			<path class="st9" d="M63.5,64.5l-2.4,1.4l-5.6-3.2c-0.7-0.4-0.7-1.1,0-1.6l1.2-0.7L63.5,64.5z"/>
			<polygon class="st10" points="61.3,67.8 100.7,90.5 103.1,89.2 63.7,66.4 			"/>
			<polygon class="st10" points="102.2,91.2 108.1,94.6 110.3,93.3 104.4,89.9 			"/>
		</g>
		<polygon class="st9" points="61.3,67.8 61.3,70.3 64.1,70.7 64,69.3 		"/>
		<polygon class="st8" points="58.5,60 58.5,61.4 59.6,62.1 61.3,61.6 		"/>
	</g>
	<polygon class="st2" points="146.4,105.4 157.7,98.9 157.7,94.4 146.4,100.9 	"/>
	<polygon class="st2" points="158.9,98.4 170.2,91.9 170.2,87.3 158.9,93.9 	"/>
	<polygon class="st2" points="171.4,91.4 182.7,84.8 182.7,80.3 171.4,86.8 	"/>
</g>
<g>
	<polygon class="st1" points="32.8,243.5 32.8,254.4 36.6,253 42.8,250.5 41.1,243.3 41.3,241.7 	"/>
	<path class="st1" d="M42.8,249.8C42.8,249.8,42.8,249.8,42.8,249.8L42.8,249.8c-0.5-0.3-1.3-0.4-1.9-0.4c-0.4,0-0.8,0.2-1.1,0.3
		l-6.4,3.7c-0.8,0.5-0.8,1.3,0,1.8c0.8,0.5,2.2,0.5,3,0l4.9-2.8l51.5,30.2c0.8,0.5,2.2,0.5,3,0l0.1,0c0.8-0.5,0.8-1.2,0-1.7
		L42.8,249.8C42.8,249.8,42.8,249.8,42.8,249.8"/>
	<path class="st2" d="M176.5,214l-8.6,2.8l-31.7-18.3c-1.5,0.4-2.9,0.9-4.1,1.6l-77.5,44.7l-9.6-5.5v11.1l46.2,26.7l81.5-47
		c2.4-1.4,3.7-3.2,3.7-5l0,0V214z"/>
	<path class="st1" d="M172.7,208.6l-36.5-21.1c-1.5,0.4-2.9,0.9-4.1,1.6L45,239.4l46.2,26.7l81.5-47
		C177.8,216.2,177.7,211.5,172.7,208.6"/>
	<g>
		<g>
			<path class="st3" d="M63.5,244.8c-0.8-0.5-0.8-1.3,0-1.8l9.3-5.3c0.8-0.5,2.2-0.5,3.1,0c0.8,0.5,0.8,1.3,0,1.8l-9.3,5.3
				C65.7,245.3,64.3,245.3,63.5,244.8"/>
			<path class="st3" d="M69.5,248.4c-0.8-0.5-0.8-1.3,0-1.8l9.3-5.3c0.8-0.5,2.2-0.5,3.1,0c0.8,0.5,0.8,1.3,0,1.8l-9.3,5.3
				C71.8,248.8,70.4,248.8,69.5,248.4"/>
			<path class="st3" d="M75.6,251.9c-0.8-0.5-0.8-1.3,0-1.8l9.3-5.3c0.8-0.5,2.2-0.5,3.1,0c0.8,0.5,0.8,1.3,0,1.8l-9.3,5.3
				C77.8,252.3,76.5,252.4,75.6,251.9"/>
			<path class="st3" d="M81.7,255.4c-0.8-0.5-0.8-1.3,0-1.8l9.3-5.3c0.8-0.5,2.2-0.5,3.1,0c0.8,0.5,0.8,1.3,0,1.8l-9.3,5.3
				C83.9,255.9,82.6,255.9,81.7,255.4"/>
		</g>
		<path class="st3" d="M123.8,204.7c7.5-4.3,19.6-4.3,27.1,0c7.5,4.3,7.5,11.3,0,15.7c-7.5,4.3-19.6,4.3-27.1,0
			C116.3,216,116.3,209,123.8,204.7"/>
	</g>
	<g>
		<path class="st3" d="M117.5,224.1L117.5,224.1c0.2,0.1,0.4,0.2,0.6,0.3c0.3,0.2,0.5,0.4,0.8,0.5c0.2,0.1,0.3,0.3,0.5,0.4
			c0.2,0.2,0.5,0.4,0.7,0.6c0.2,0.1,0.3,0.3,0.4,0.4c0.2,0.2,0.4,0.4,0.6,0.6c0.1,0.2,0.3,0.3,0.4,0.5c0.2,0.2,0.3,0.5,0.5,0.7
			c0.1,0.2,0.2,0.3,0.3,0.5c0.1,0.3,0.3,0.5,0.4,0.8c0.1,0.2,0.1,0.4,0.2,0.6c0.1,0.3,0.2,0.6,0.2,0.9c0,0.2,0.1,0.4,0.1,0.6
			c0,0.3,0,0.7,0,1c0,0.2-0.1,0.5-0.1,0.7c0,0.2-0.1,0.3-0.1,0.5c-0.1,0.3-0.2,0.5-0.3,0.7c-0.1,0.2-0.2,0.4-0.3,0.7
			c0,0.1-0.1,0.2-0.2,0.3c-0.3,0.6-0.8,1.2-1.3,1.8c-0.6,0.6-1.2,1.2-2,1.7c-0.4,0.3-0.9,0.6-1.4,0.9c-0.5,0.3-1,0.5-1.5,0.8
			c-0.9,0.4-1.9,0.8-2.9,1.1c-1,0.3-2,0.6-3.1,0.8l-0.5,0.1c-0.4,0.1-0.8,0.1-1.1,0.2c-0.4,0.1-0.9,0.1-1.3,0.1
			c-0.3,0-0.5,0-0.8,0.1c-0.4,0-0.8,0.1-1.3,0.1c-0.6,0-1.2,0-1.7,0c-0.4,0-0.7,0-1.1,0c-0.5,0-1-0.1-1.5-0.1c-0.3,0-0.7-0.1-1-0.1
			c-0.5-0.1-0.9-0.1-1.4-0.2c-0.3-0.1-0.6-0.1-0.9-0.2c-0.4-0.1-0.8-0.2-1.2-0.3c-0.3-0.1-0.5-0.1-0.8-0.2c-0.4-0.1-0.8-0.2-1.1-0.4
			c-0.2-0.1-0.5-0.2-0.7-0.3c-0.3-0.1-0.7-0.3-1-0.4c-0.2-0.1-0.4-0.2-0.7-0.3c-0.3-0.1-0.6-0.3-0.9-0.5c-0.2-0.1-0.4-0.2-0.5-0.3
			l-0.1,0c-0.3-0.2-0.6-0.3-0.8-0.5c-0.2-0.1-0.4-0.2-0.5-0.4c-0.3-0.2-0.5-0.4-0.7-0.6c-0.2-0.1-0.3-0.3-0.5-0.4
			c-0.2-0.2-0.4-0.4-0.6-0.6c-0.1-0.1-0.3-0.3-0.4-0.4c-0.2-0.2-0.4-0.5-0.5-0.7c-0.1-0.2-0.2-0.3-0.3-0.5c-0.2-0.3-0.3-0.5-0.4-0.8
			c-0.1-0.2-0.2-0.4-0.2-0.5c-0.1-0.3-0.2-0.6-0.3-0.8c-0.1-0.2-0.1-0.4-0.1-0.6c0-0.3-0.1-0.6-0.1-1c0-0.2,0-0.5,0-0.7
			c0-0.4,0.1-0.7,0.2-1.1c0,0,0,0,0,0c0.1-0.3,0.2-0.6,0.3-0.9c0.1-0.2,0.2-0.3,0.2-0.5c0.2-0.3,0.4-0.7,0.6-1
			c0.3-0.5,0.7-0.9,1.1-1.3c0.5-0.5,1.1-1,1.7-1.4c0.4-0.3,0.9-0.6,1.4-0.9c0.5-0.3,1-0.5,1.5-0.8c0.8-0.4,1.6-0.7,2.5-1
			c0.7-0.3,1.5-0.5,2.3-0.7c0.6-0.1,1.1-0.2,1.7-0.4c0.3-0.1,0.6-0.1,0.9-0.1c0.5-0.1,1-0.1,1.5-0.2c0,0,0.1,0,0.1,0
			c0.6-0.1,1.2-0.1,1.9-0.1c0.4,0,0.8,0,1.2,0c0.6,0,1.1,0,1.7,0c0.3,0,0.7,0,1.1,0.1c0.5,0,1,0.1,1.5,0.2c0.3,0,0.6,0.1,0.9,0.1
			c0.4,0.1,0.9,0.1,1.3,0.2c0.3,0.1,0.6,0.1,0.8,0.2c0.4,0.1,0.8,0.2,1.2,0.3c0.3,0.1,0.5,0.1,0.8,0.2c0.4,0.1,0.7,0.2,1.1,0.4
			c0.2,0.1,0.5,0.2,0.7,0.3c0.3,0.1,0.7,0.3,1,0.4c0.2,0.1,0.4,0.2,0.6,0.3C116.9,223.8,117.2,224,117.5,224.1z"/>
		<path class="st4" d="M96.6,221.7l-10.5,6c0.3-0.5,0.7-0.9,1.1-1.3l7-4.1C95.1,222.2,95.9,221.9,96.6,221.7z"/>
		<path class="st4" d="M100.7,221.1L85,230.1c0.1-0.3,0.2-0.6,0.3-0.9l13.9-8C99.7,221.2,100.2,221.1,100.7,221.1z"/>
		<path class="st4" d="M103.9,220.9l-19.1,11c0-0.2,0-0.5,0-0.7l17.9-10.3C103.1,220.9,103.5,220.9,103.9,220.9z"/>
		<path class="st4" d="M106.6,221l-21.7,12.5c-0.1-0.2-0.1-0.4-0.1-0.6l20.7-12C105.9,221,106.3,221,106.6,221z"/>
		<path class="st4" d="M109,221.3l-23.6,13.6c-0.1-0.2-0.2-0.4-0.2-0.5l22.9-13.2C108.4,221.2,108.7,221.3,109,221.3z"/>
		<path class="st4" d="M111.2,221.7l-25,14.4c-0.1-0.2-0.2-0.3-0.3-0.5l24.5-14.1C110.6,221.6,110.9,221.7,111.2,221.7z"/>
		<path class="st4" d="M113.1,222.3l-26,15c-0.1-0.1-0.3-0.3-0.4-0.4l25.7-14.8C112.6,222.1,112.9,222.2,113.1,222.3z"/>
		<path class="st4" d="M114.9,222.9l-26.7,15.4c-0.2-0.1-0.3-0.3-0.5-0.4l26.5-15.3C114.5,222.7,114.7,222.8,114.9,222.9z"/>
		<path class="st4" d="M116.6,223.7l-27.1,15.6c-0.2-0.1-0.4-0.2-0.5-0.4l27-15.6C116.1,223.4,116.4,223.5,116.6,223.7z"/>
		<path class="st4" d="M117.5,224.1L117.5,224.1c0.2,0.1,0.4,0.2,0.6,0.3l-27.1,15.7c-0.2-0.1-0.4-0.2-0.5-0.3l-0.1,0L117.5,224.1z"
			/>
		<path class="st4" d="M118.8,225c0.2,0.1,0.3,0.3,0.5,0.4l-26.9,15.5c-0.2-0.1-0.4-0.2-0.7-0.3L118.8,225z"/>
		<path class="st4" d="M120.1,226c0.2,0.1,0.3,0.3,0.4,0.4l-26.3,15.2c-0.2-0.1-0.5-0.2-0.7-0.3L120.1,226z"/>
		<path class="st4" d="M121.1,227c0.1,0.2,0.3,0.3,0.4,0.5l-25.3,14.6c-0.3-0.1-0.5-0.1-0.8-0.2L121.1,227z"/>
		<path class="st4" d="M122,228.2c0.1,0.2,0.2,0.3,0.3,0.5l-24,13.9c-0.3-0.1-0.6-0.1-0.9-0.2L122,228.2z"/>
		<g>
			<path class="st4" d="M122.6,229.5c0.1,0.2,0.1,0.4,0.2,0.6l-22.2,12.8c-0.3,0-0.7-0.1-1-0.1L122.6,229.5z"/>
		</g>
		<path class="st4" d="M123,231c0,0.2,0.1,0.4,0.1,0.6l-19.9,11.5c-0.4,0-0.7,0-1.1,0L123,231z"/>
		<path class="st4" d="M123.1,232.6c0,0.2-0.1,0.5-0.1,0.7l-16.7,9.7c-0.4,0-0.8,0.1-1.3,0.1L123.1,232.6z"/>
		<path class="st4" d="M122.6,234.6c-0.1,0.2-0.2,0.4-0.3,0.7c0,0.1-0.1,0.2-0.2,0.3l-12.1,7l-0.5,0.1c-0.4,0.1-0.8,0.1-1.1,0.2
			L122.6,234.6z"/>
		<path class="st4" d="M118.9,239c0.8-0.5,1.4-1.1,2-1.7l-2.5,1.4l-2.9,1.6l-2.5,1.4c1-0.3,2-0.7,2.9-1.1L118.9,239z"/>
		<path class="st4" d="M92.5,223l27,15.6l-4.2,2.4l-27-15.6c0.6-0.4,1.3-0.8,2-1.2C91.1,223.8,91.8,223.4,92.5,223z"/>
		<g>
			<path class="st3" d="M85,230.2l0.8,0.5l0.6,0.3l0.9,0.5l0.6,0.3l0.9,0.5l0.6,0.3l0.9,0.5l0.6,0.3l0.9,0.5l0.6,0.3l0.9,0.5
				l0.6,0.3l0.9,0.5l0.6,0.3l0.9,0.5l0.6,0.3l0.9,0.5l0.6,0.3l0.9,0.5l0.6,0.3l0.9,0.5l0.6,0.3l0.9,0.5l0.6,0.3l0.9,0.5l0.6,0.3
				l0.9,0.5l0.6,0.3l0.9,0.5l0.6,0.3l0.4,0.2l1.3-0.1c0.4-0.1,0.8-0.1,1.1-0.2l-0.4-0.2l-0.9-0.5l-0.6-0.3l-0.9-0.5l-0.6-0.3
				l-0.9-0.5l-0.6-0.3l-0.9-0.5l-0.6-0.3l-0.9-0.5l-0.6-0.3l-0.9-0.5l-0.6-0.3l-0.9-0.5l-0.6-0.3l-0.9-0.5l-0.6-0.3l-0.9-0.5
				l-0.6-0.3l-0.9-0.5l-0.6-0.3l-0.9-0.5l-0.6-0.3l-0.9-0.5l-0.6-0.3l-0.9-0.5l-0.6-0.3l-0.9-0.5l-0.6-0.3l-0.9-0.5l-0.6-0.3
				l-0.9-0.5l-0.6-0.3l-0.3-0.2c-0.1,0.2-0.2,0.3-0.2,0.5C85.2,229.6,85.1,229.8,85,230.2L85,230.2z"/>
			<path class="st3" d="M100.7,221.1c-0.5,0-1,0.1-1.5,0.2c-0.3,0-0.6,0.1-0.9,0.1l0.3,0.2l0.6,0.3l0.9,0.5l0.6,0.3l0.9,0.5l0.6,0.3
				l0.9,0.5l0.6,0.3l0.9,0.5l0.6,0.3l0.9,0.5l0.6,0.3l0.9,0.5l0.6,0.3l0.9,0.5l0.6,0.3l0.9,0.5l0.6,0.3l0.9,0.5l0.6,0.3l0.9,0.5
				l0.6,0.3l0.9,0.5l0.6,0.3l0.9,0.5l0.6,0.3l0.9,0.5l0.6,0.3l0.9,0.5l0.6,0.3l0.9,0.5l0.6,0.3l0.9,0.5l0.4,0.2
				c0.1-0.2,0.2-0.4,0.3-0.7c0.1-0.2,0.2-0.5,0.3-0.7l-0.4-0.2l-0.6-0.3l-0.9-0.5l-0.6-0.3l-0.9-0.5l-0.6-0.3l-0.9-0.5l-0.6-0.3
				l-0.9-0.5l-0.6-0.3l-0.9-0.5l-0.6-0.3l-0.9-0.5l-0.6-0.3l-0.9-0.5l-0.6-0.3l-0.9-0.5l-0.6-0.3l-0.9-0.5l-0.6-0.3l-0.9-0.5
				l-0.6-0.3l-0.9-0.5l-0.6-0.3l-0.9-0.5l-0.6-0.3l-0.9-0.5l-0.6-0.3l-0.9-0.5l-0.6-0.3L100.7,221.1L100.7,221.1z"/>
		</g>
	</g>
	<g>
		<path class="st3" d="M150.9,204.6L150.9,204.6c0.2,0.1,0.4,0.2,0.6,0.3c0.3,0.2,0.5,0.4,0.8,0.5c0.2,0.1,0.3,0.3,0.5,0.4
			c0.2,0.2,0.5,0.4,0.7,0.6c0.2,0.1,0.3,0.3,0.4,0.4c0.2,0.2,0.4,0.4,0.6,0.6c0.1,0.2,0.3,0.3,0.4,0.5c0.2,0.2,0.3,0.5,0.5,0.7
			c0.1,0.2,0.2,0.3,0.3,0.5c0.1,0.3,0.3,0.5,0.4,0.8c0.1,0.2,0.1,0.4,0.2,0.6c0.1,0.3,0.2,0.6,0.2,0.9c0,0.2,0.1,0.4,0.1,0.6
			c0,0.3,0,0.7,0,1c0,0.2-0.1,0.5-0.1,0.7c0,0.2-0.1,0.3-0.1,0.5c-0.1,0.3-0.2,0.5-0.3,0.7c-0.1,0.2-0.2,0.4-0.3,0.7
			c0,0.1-0.1,0.2-0.2,0.3c-0.3,0.6-0.8,1.2-1.3,1.8c-0.6,0.6-1.2,1.2-2,1.7c-0.4,0.3-0.9,0.6-1.4,0.9c-0.5,0.3-1,0.5-1.5,0.8
			c-0.9,0.4-1.9,0.8-2.9,1.1c-1,0.3-2,0.6-3.1,0.8L143,223c-0.4,0.1-0.8,0.1-1.1,0.2c-0.4,0.1-0.9,0.1-1.3,0.1c-0.3,0-0.5,0-0.8,0.1
			c-0.4,0-0.8,0.1-1.3,0.1c-0.6,0-1.2,0-1.7,0c-0.4,0-0.7,0-1.1,0c-0.5,0-1-0.1-1.5-0.1c-0.3,0-0.7-0.1-1-0.1
			c-0.5-0.1-0.9-0.1-1.4-0.2c-0.3-0.1-0.6-0.1-0.9-0.2c-0.4-0.1-0.8-0.2-1.2-0.3c-0.3-0.1-0.5-0.1-0.8-0.2c-0.4-0.1-0.8-0.2-1.1-0.4
			c-0.2-0.1-0.5-0.2-0.7-0.3c-0.3-0.1-0.7-0.3-1-0.4c-0.2-0.1-0.4-0.2-0.7-0.3c-0.3-0.1-0.6-0.3-0.9-0.5c-0.2-0.1-0.4-0.2-0.5-0.3
			l-0.1,0c-0.3-0.2-0.6-0.3-0.8-0.5c-0.2-0.1-0.4-0.2-0.5-0.4c-0.3-0.2-0.5-0.4-0.7-0.6c-0.2-0.1-0.3-0.3-0.5-0.4
			c-0.2-0.2-0.4-0.4-0.6-0.6c-0.1-0.1-0.3-0.3-0.4-0.4c-0.2-0.2-0.4-0.5-0.5-0.7c-0.1-0.2-0.2-0.3-0.3-0.5c-0.2-0.3-0.3-0.5-0.4-0.8
			c-0.1-0.2-0.2-0.4-0.2-0.5c-0.1-0.3-0.2-0.6-0.3-0.8c-0.1-0.2-0.1-0.4-0.1-0.6c0-0.3-0.1-0.6-0.1-1c0-0.2,0-0.5,0-0.7
			c0-0.4,0.1-0.7,0.2-1.1c0,0,0,0,0,0c0.1-0.3,0.2-0.6,0.3-0.9c0.1-0.2,0.2-0.3,0.2-0.5c0.2-0.3,0.4-0.7,0.6-1
			c0.3-0.5,0.7-0.9,1.1-1.3c0.5-0.5,1.1-1,1.7-1.4c0.4-0.3,0.9-0.6,1.4-0.9c0.5-0.3,1-0.5,1.5-0.8c0.8-0.4,1.6-0.7,2.5-1
			c0.7-0.3,1.5-0.5,2.3-0.7c0.6-0.1,1.1-0.2,1.7-0.4c0.3-0.1,0.6-0.1,0.9-0.1c0.5-0.1,1-0.1,1.5-0.2c0,0,0.1,0,0.1,0
			c0.6-0.1,1.2-0.1,1.9-0.1c0.4,0,0.8,0,1.2,0c0.6,0,1.1,0,1.7,0c0.3,0,0.7,0,1.1,0.1c0.5,0,1,0.1,1.5,0.2c0.3,0,0.6,0.1,0.9,0.1
			c0.4,0.1,0.9,0.1,1.3,0.2c0.3,0.1,0.6,0.1,0.8,0.2c0.4,0.1,0.8,0.2,1.2,0.3c0.3,0.1,0.5,0.1,0.8,0.2c0.4,0.1,0.7,0.2,1.1,0.4
			c0.2,0.1,0.5,0.2,0.7,0.3c0.3,0.1,0.7,0.3,1,0.4c0.2,0.1,0.4,0.2,0.6,0.3C150.4,204.2,150.6,204.4,150.9,204.6z"/>
		<path class="st4" d="M130.1,202.2l-10.5,6c0.3-0.5,0.7-0.9,1.1-1.3l7-4.1C128.6,202.6,129.3,202.4,130.1,202.2z"/>
		<path class="st4" d="M134.2,201.5l-15.7,9.1c0.1-0.3,0.2-0.6,0.3-0.9l13.9-8C133.2,201.6,133.7,201.6,134.2,201.5z"/>
		<path class="st4" d="M137.4,201.4l-19.1,11c0-0.2,0-0.5,0-0.7l17.9-10.3C136.6,201.4,137,201.4,137.4,201.4z"/>
		<path class="st4" d="M140.1,201.5L118.4,214c-0.1-0.2-0.1-0.4-0.1-0.6l20.7-12C139.4,201.4,139.7,201.4,140.1,201.5z"/>
		<path class="st4" d="M142.5,201.8l-23.6,13.6c-0.1-0.2-0.2-0.4-0.2-0.5l22.9-13.2C141.9,201.7,142.2,201.7,142.5,201.8z"/>
		<path class="st4" d="M144.7,202.2l-25,14.4c-0.1-0.2-0.2-0.3-0.3-0.5l24.5-14.1C144.1,202,144.4,202.1,144.7,202.2z"/>
		<path class="st4" d="M146.6,202.7l-26,15c-0.1-0.1-0.3-0.3-0.4-0.4l25.7-14.8C146.1,202.6,146.4,202.6,146.6,202.7z"/>
		<path class="st4" d="M148.4,203.4l-26.7,15.4c-0.2-0.1-0.3-0.3-0.5-0.4l26.5-15.3C148,203.2,148.2,203.3,148.4,203.4z"/>
		<path class="st4" d="M150,204.1L123,219.7c-0.2-0.1-0.4-0.2-0.5-0.4l27-15.6C149.6,203.9,149.8,204,150,204.1z"/>
		<path class="st4" d="M150.9,204.6L150.9,204.6c0.2,0.1,0.4,0.2,0.6,0.3l-27.1,15.7c-0.2-0.1-0.4-0.2-0.5-0.3l-0.1,0L150.9,204.6z"
			/>
		<path class="st4" d="M152.3,205.5c0.2,0.1,0.3,0.3,0.5,0.4L126,221.3c-0.2-0.1-0.4-0.2-0.7-0.3L152.3,205.5z"/>
		<path class="st4" d="M153.5,206.4c0.2,0.1,0.3,0.3,0.4,0.4L127.7,222c-0.2-0.1-0.5-0.2-0.7-0.3L153.5,206.4z"/>
		<path class="st4" d="M154.6,207.5c0.1,0.2,0.3,0.3,0.4,0.5l-25.3,14.6c-0.3-0.1-0.5-0.1-0.8-0.2L154.6,207.5z"/>
		<path class="st4" d="M155.5,208.7c0.1,0.2,0.2,0.3,0.3,0.5l-24,13.9c-0.3-0.1-0.6-0.1-0.9-0.2L155.5,208.7z"/>
		<g>
			<path class="st4" d="M156.1,210c0.1,0.2,0.1,0.4,0.2,0.6l-22.2,12.8c-0.3,0-0.7-0.1-1-0.1L156.1,210z"/>
		</g>
		<path class="st4" d="M156.5,211.4c0,0.2,0.1,0.4,0.1,0.6l-19.9,11.5c-0.4,0-0.7,0-1.1,0L156.5,211.4z"/>
		<path class="st4" d="M156.6,213c0,0.2-0.1,0.5-0.1,0.7l-16.7,9.7c-0.4,0-0.8,0.1-1.3,0.1L156.6,213z"/>
		<path class="st4" d="M156.1,215c-0.1,0.2-0.2,0.4-0.3,0.7c0,0.1-0.1,0.2-0.2,0.3l-12.1,7L143,223c-0.4,0.1-0.8,0.1-1.1,0.2
			L156.1,215z"/>
		<path class="st4" d="M152.3,219.4c0.8-0.5,1.4-1.1,2-1.7l-2.5,1.4l-2.9,1.6l-2.5,1.4c1-0.3,2-0.7,2.9-1.1L152.3,219.4z"/>
		<path class="st4" d="M126,203.4l27,15.6l-4.2,2.4l-27-15.6c0.6-0.4,1.3-0.8,2-1.2C124.6,204.2,125.3,203.8,126,203.4z"/>
		<g>
			<path class="st3" d="M118.5,210.6l0.8,0.5l0.6,0.3l0.9,0.5l0.6,0.3l0.9,0.5l0.6,0.3l0.9,0.5l0.6,0.3l0.9,0.5l0.6,0.3l0.9,0.5
				l0.6,0.3l0.9,0.5l0.6,0.3l0.9,0.5l0.6,0.3l0.9,0.5l0.6,0.3l0.9,0.5l0.6,0.3l0.9,0.5l0.6,0.3l0.9,0.5l0.6,0.3l0.9,0.5l0.6,0.3
				l0.9,0.5l0.6,0.3l0.9,0.5l0.6,0.3l0.4,0.2l1.3-0.1c0.4-0.1,0.8-0.1,1.1-0.2l-0.4-0.2l-0.9-0.5l-0.6-0.3l-0.9-0.5l-0.6-0.3
				l-0.9-0.5l-0.6-0.3l-0.9-0.5l-0.6-0.3l-0.9-0.5l-0.6-0.3l-0.9-0.5l-0.6-0.3l-0.9-0.5l-0.6-0.3l-0.9-0.5l-0.6-0.3l-0.9-0.5
				l-0.6-0.3l-0.9-0.5l-0.6-0.3l-0.9-0.5l-0.6-0.3l-0.9-0.5l-0.6-0.3l-0.9-0.5l-0.6-0.3l-0.9-0.5l-0.6-0.3l-0.9-0.5l-0.6-0.3
				l-0.9-0.5l-0.6-0.3l-0.3-0.2c-0.1,0.2-0.2,0.3-0.2,0.5C118.7,210,118.6,210.3,118.5,210.6L118.5,210.6z"/>
			<path class="st3" d="M134.2,201.5c-0.5,0-1,0.1-1.5,0.2c-0.3,0-0.6,0.1-0.9,0.1l0.3,0.2l0.6,0.3l0.9,0.5l0.6,0.3l0.9,0.5l0.6,0.3
				l0.9,0.5l0.6,0.3l0.9,0.5l0.6,0.3l0.9,0.5l0.6,0.3l0.9,0.5l0.6,0.3l0.9,0.5l0.6,0.3l0.9,0.5l0.6,0.3l0.9,0.5l0.6,0.3l0.9,0.5
				l0.6,0.3l0.9,0.5l0.6,0.3l0.9,0.5l0.6,0.3l0.9,0.5l0.6,0.3l0.9,0.5l0.6,0.3l0.9,0.5l0.6,0.3l0.9,0.5l0.4,0.2
				c0.1-0.2,0.2-0.4,0.3-0.7c0.1-0.2,0.2-0.5,0.3-0.7l-0.4-0.2l-0.6-0.3l-0.9-0.5l-0.6-0.3l-0.9-0.5l-0.6-0.3l-0.9-0.5l-0.6-0.3
				l-0.9-0.5l-0.6-0.3l-0.9-0.5l-0.6-0.3l-0.9-0.5l-0.6-0.3l-0.9-0.5l-0.6-0.3l-0.9-0.5l-0.6-0.3l-0.9-0.5l-0.6-0.3l-0.9-0.5
				l-0.6-0.3l-0.9-0.5l-0.6-0.3l-0.9-0.5l-0.6-0.3l-0.9-0.5l-0.6-0.3l-0.9-0.5l-0.6-0.3L134.2,201.5L134.2,201.5z"/>
		</g>
	</g>
	<path class="st5" d="M128.7,221.1c0-1.7,1.2-3.3,3.3-4.6c0.9-0.5,1.9-0.9,3-1.2c-0.3,0.7-0.5,1.5-0.5,2.2c0,1.8,0.9,3.5,2.6,4.9
		C134.1,222.4,131.3,222,128.7,221.1 M146,203.9c0,1.7-1.2,3.3-3.3,4.6c-0.9,0.5-1.9,0.9-3,1.2c0.3-0.7,0.5-1.5,0.5-2.2
		c0-1.8-0.9-3.5-2.6-4.9C140.5,202.6,143.4,203.1,146,203.9 M136.2,207.5c0,0.7-0.2,1.4-0.6,2.1c-0.6-0.6-1.5-1.2-2.4-1.8
		c-2.2-1.2-4.9-2.1-7.8-2.4c2.2-1.2,4.8-2,7.5-2.4C135,204.1,136.2,205.8,136.2,207.5 M122.5,207.5c3,0,5.8,0.7,7.9,1.9
		c0.9,0.5,1.6,1.1,2.1,1.7c-1.2-0.2-2.5-0.3-3.9-0.3c-3.1,0-6,0.5-8.5,1.5C120.2,210.7,121,209,122.5,207.5 M120.7,215.1
		c2.1-1.2,4.9-1.9,7.9-1.9c1.2,0,2.4,0.1,3.6,0.3c-1.1,0.4-2.1,0.8-3.1,1.4c-2.2,1.2-3.6,2.8-4.2,4.5
		C122.9,218.1,121.5,216.6,120.7,215.1 M138.5,217.5c0-0.7,0.2-1.4,0.6-2.1c0.6,0.6,1.5,1.2,2.4,1.8c2.2,1.2,4.9,2.1,7.8,2.4
		c-2.2,1.2-4.8,2-7.5,2.4C139.7,220.9,138.5,219.3,138.5,217.5 M152.2,217.5c-3,0-5.8-0.7-7.9-1.9c-0.9-0.5-1.6-1.1-2.1-1.7
		c1.2,0.2,2.5,0.3,3.9,0.3c3.1,0,6-0.5,8.5-1.5C154.4,214.4,153.7,216,152.2,217.5 M153.9,210c-2.1,1.2-4.9,1.9-7.9,1.9
		c-1.2,0-2.4-0.1-3.6-0.3c1.1-0.4,2.1-0.8,3.1-1.4c2.2-1.2,3.6-2.8,4.2-4.5C151.8,206.9,153.2,208.4,153.9,210 M122.3,203.8
		c-8.3,4.8-8.3,12.6,0,17.3c8.3,4.8,21.7,4.8,30,0c8.3-4.8,8.3-12.6,0-17.3C144.1,199.1,130.6,199.1,122.3,203.8"/>
	<path class="st4" d="M133.3,210.2c2.2-1.3,5.9-1.3,8.1,0c2.2,1.3,2.2,3.4,0,4.7c-2.2,1.3-5.9,1.3-8.1,0
		C131,213.6,131,211.5,133.3,210.2"/>
	<path class="st3" d="M135.3,209.4c0.8,0.2,1.5,0.4,2.1,0.8c2.3,1.3,2.2,3.4,0,4.7c-0.6,0.4-1.3,0.6-2.1,0.8c2,0.4,4.4,0.2,6.1-0.8
		c2.3-1.3,2.2-3.4,0-4.7C139.8,209.2,137.4,209,135.3,209.4"/>
	<g>
		<path class="st5" d="M95.3,240.6c0-1.7,1.2-3.3,3.3-4.6c0.9-0.5,1.9-0.9,3-1.2c-0.3,0.7-0.5,1.5-0.5,2.2c0,1.8,0.9,3.5,2.6,4.9
			C100.8,241.9,97.9,241.4,95.3,240.6 M112.6,223.4c0,1.7-1.2,3.3-3.3,4.6c-0.9,0.5-1.9,0.9-3,1.2c0.3-0.7,0.5-1.5,0.5-2.2
			c0-1.8-0.9-3.5-2.6-4.9C107.2,222.1,110,222.6,112.6,223.4 M102.8,227c0,0.7-0.2,1.4-0.6,2.1c-0.6-0.6-1.5-1.2-2.4-1.8
			c-2.2-1.2-4.9-2.1-7.8-2.4c2.2-1.2,4.8-2,7.5-2.4C101.6,223.6,102.8,225.3,102.8,227 M89.1,227c3,0,5.8,0.7,7.9,1.9
			c0.9,0.5,1.6,1.1,2.1,1.7c-1.2-0.2-2.5-0.3-3.9-0.3c-3.1,0-6,0.5-8.5,1.5C86.8,230.2,87.6,228.5,89.1,227 M87.4,234.5
			c2.1-1.2,4.9-1.9,7.9-1.9c1.2,0,2.4,0.1,3.6,0.3c-1.1,0.4-2.1,0.8-3.1,1.4c-2.2,1.2-3.6,2.8-4.2,4.5
			C89.5,237.6,88.1,236.1,87.4,234.5 M105.1,237c0-0.7,0.2-1.4,0.6-2.1c0.6,0.6,1.5,1.2,2.4,1.8c2.2,1.2,4.9,2.1,7.8,2.4
			c-2.2,1.2-4.8,2-7.5,2.4C106.3,240.4,105.1,238.7,105.1,237 M118.8,237c-3,0-5.8-0.7-7.9-1.9c-0.9-0.5-1.6-1.1-2.1-1.7
			c1.2,0.2,2.5,0.3,3.9,0.3c3.1,0,6-0.5,8.5-1.5C121,233.9,120.3,235.5,118.8,237 M120.6,229.5c-2.1,1.2-4.9,1.9-7.9,1.9
			c-1.2,0-2.4-0.1-3.6-0.3c1.1-0.4,2.1-0.8,3.1-1.4c2.2-1.2,3.6-2.8,4.2-4.5C118.4,226.4,119.8,227.9,120.6,229.5 M88.9,223.3
			c-8.3,4.8-8.3,12.6,0,17.3c8.3,4.8,21.7,4.8,30,0c8.3-4.8,8.3-12.6,0-17.3C110.7,218.6,97.2,218.6,88.9,223.3"/>
		<g>
			<path class="st4" d="M99.9,229.7c2.2-1.3,5.9-1.3,8.1,0c2.2,1.3,2.2,3.4,0,4.7c-2.2,1.3-5.9,1.3-8.1,0
				C97.6,233.1,97.6,231,99.9,229.7"/>
			<path class="st3" d="M102,228.9c0.8,0.2,1.5,0.4,2.1,0.8c2.3,1.3,2.2,3.4,0,4.7c-0.6,0.4-1.3,0.6-2.1,0.8c2,0.4,4.4,0.2,6.1-0.8
				c2.3-1.3,2.2-3.4,0-4.7C106.4,228.7,104,228.5,102,228.9"/>
		</g>
	</g>
	<polygon class="st6" points="96.5,281.7 41.1,249.2 41.1,241.6 96.5,271 	"/>
	<path class="st7" d="M75.2,261.4l-3.5,2c-0.9,0.5-2.3,0.5-3.2,0l-17.8-10.3c-0.9-0.5-0.9-1.3,0-1.8l3.5-2L75.2,261.4z"/>
	<path class="st3" d="M42.8,239.1C42.8,239.1,42.8,239.1,42.8,239.1L42.8,239.1c-0.5-0.3-1.3-0.4-1.9-0.4c-0.4,0-0.8,0.2-1.1,0.3
		l-6.4,3.7c-0.8,0.5-0.8,1.3,0,1.8c0.8,0.5,2.2,0.5,3,0l4.9-2.8l51.5,30.2c0.8,0.5,2.2,0.5,3,0l0.1,0c0.8-0.5,0.8-1.2,0-1.7
		L42.8,239.1C42.8,239.1,42.8,239.1,42.8,239.1"/>
	<g>
		<path class="st8" d="M110,266.5l-5.1-2.9l61.4-35.4l2.1,1.2l-2.8,1.6l1.9,0.5l-4.1,2.4l-0.3-0.2c-0.5-0.3-1.3-0.3-1.8,0l0,0
			c-0.5,0.3-0.5,0.7,0,1l1.8,1.1l-39.4,22.8l-1.8-1.1c-0.4-0.2-1-0.2-1.3,0l0,0c-0.4,0.2-0.4,0.6,0,0.8l1.8,1.1l-5.9,3.4l-2.9-1.7
			l-2.2,1.3l2.9,1.7L110,266.5z"/>
		<polygon class="st9" points="165.6,237.2 126.2,259.9 123.8,258.6 163.2,235.8 		"/>
		<path class="st9" d="M116.6,260.2v2.6l2.2,1.3c0,0,5.9-3.3,5.9-3.4s0-2.6,0-2.6L116.6,260.2z"/>
		<polygon class="st8" points="105,261 105,263.6 114.4,264 116.6,262.7 115.1,260.7 105.1,261 		"/>
		<path class="st9" d="M163.5,233.9l2.4,1.4l5.6-3.2c0.7-0.4,0.7-1.1,0-1.6l-1.2-0.7L163.5,233.9z"/>
		<polygon class="st9" points="124.7,260.6 118.8,264 116.6,262.7 122.5,259.3 		"/>
		<polygon class="st9" points="123.8,256 123.8,257.7 126,259.3 127,256.9 		"/>
		<g>
			<path class="st6" d="M110,264L105,261l61.4-35.4l2.1,1.2l-2.8,1.6l1.9,0.5l-4.1,2.4l-0.3-0.2c-0.5-0.3-1.3-0.3-1.8,0l0,0
				c-0.5,0.3-0.5,0.7,0,1l1.8,1.1L123.8,256l-1.8-1.1c-0.4-0.2-1-0.2-1.3,0l0,0c-0.4,0.2-0.4,0.6,0,0.8l1.8,1.1l-5.9,3.4l-2.9-1.7
				l-2.2,1.3l2.9,1.7L110,264z"/>
			<path class="st9" d="M163.5,231.3l2.4,1.4l5.6-3.2c0.7-0.4,0.7-1.1,0-1.6l-1.2-0.7L163.5,231.3z"/>
			<polygon class="st10" points="165.6,234.6 126.2,257.4 123.8,256 163.2,233.2 			"/>
			<polygon class="st10" points="124.7,258 118.8,261.4 116.6,260.2 122.5,256.8 			"/>
		</g>
		<polygon class="st9" points="165.6,234.6 165.6,237.2 162.9,237.5 162.9,236.2 		"/>
		<polygon class="st8" points="168.5,226.8 168.5,228.3 167.4,228.9 165.6,228.5 		"/>
	</g>
	<polygon class="st2" points="80.5,272.3 69.2,265.8 69.2,261.2 80.5,267.7 	"/>
	<polygon class="st2" points="68,265.2 56.7,258.7 56.7,254.2 68,260.7 	"/>
	<polygon class="st2" points="55.5,258.2 44.2,251.7 44.2,247.1 55.5,253.7 	"/>
</g>
<g>
	<polygon class="st1" points="480.8,244.2 480.8,255.1 477.1,253.7 470.8,251.2 472.5,244 472.3,242.4 	"/>
	<path class="st1" d="M470.8,250.5C470.8,250.5,470.8,250.5,470.8,250.5L470.8,250.5c0.5-0.3,1.3-0.4,1.9-0.4c0.4,0,0.8,0.2,1.1,0.3
		l6.4,3.7c0.8,0.5,0.8,1.3,0,1.8c-0.8,0.5-2.2,0.5-3,0l-4.9-2.8l-51.5,30.2c-0.8,0.5-2.2,0.5-3,0l-0.1,0c-0.8-0.5-0.8-1.2,0-1.7
		L470.8,250.5C470.8,250.5,470.8,250.5,470.8,250.5"/>
	<path class="st2" d="M337.1,214.7l8.6,2.8l31.7-18.3c1.5,0.4,2.9,0.9,4.1,1.6l77.5,44.7l9.6-5.5v11.1l-46.2,26.7l-81.5-47
		c-2.4-1.4-3.7-3.2-3.7-5l0,0V214.7z"/>
	<path class="st1" d="M340.9,209.3l36.5-21.1c1.5,0.4,2.9,0.9,4.1,1.6l87.1,50.3l-46.2,26.7l-81.5-47
		C335.8,216.9,335.9,212.2,340.9,209.3"/>
	<g>
		<g>
			<path class="st3" d="M450.2,245.5c0.8-0.5,0.8-1.3,0-1.8l-9.3-5.3c-0.8-0.5-2.2-0.5-3.1,0c-0.8,0.5-0.8,1.3,0,1.8l9.3,5.3
				C447.9,246,449.3,246,450.2,245.5"/>
			<path class="st3" d="M444.1,249c0.8-0.5,0.8-1.3,0-1.8l-9.3-5.3c-0.8-0.5-2.2-0.5-3.1,0c-0.8,0.5-0.8,1.3,0,1.8l9.3,5.3
				C441.9,249.5,443.2,249.5,444.1,249"/>
			<path class="st3" d="M438,252.6c0.8-0.5,0.8-1.3,0-1.8l-9.3-5.3c-0.8-0.5-2.2-0.5-3.1,0c-0.8,0.5-0.8,1.3,0,1.8l9.3,5.3
				C435.8,253,437.1,253,438,252.6"/>
			<path class="st3" d="M431.9,256.1c0.8-0.5,0.8-1.3,0-1.8l-9.3-5.3c-0.8-0.5-2.2-0.5-3.1,0c-0.8,0.5-0.8,1.3,0,1.8l9.3,5.3
				C429.7,256.6,431.1,256.6,431.9,256.1"/>
		</g>
		<path class="st3" d="M389.9,205.4c-7.5-4.3-19.6-4.3-27.1,0c-7.5,4.3-7.5,11.3,0,15.7s19.6,4.3,27.1,0
			C397.4,216.7,397.4,209.7,389.9,205.4"/>
	</g>
	<g>
		<path class="st3" d="M396.2,224.8L396.2,224.8c-0.2,0.1-0.4,0.2-0.6,0.3c-0.3,0.2-0.5,0.4-0.8,0.5c-0.2,0.1-0.3,0.3-0.5,0.4
			c-0.2,0.2-0.5,0.4-0.7,0.6c-0.2,0.1-0.3,0.3-0.4,0.4c-0.2,0.2-0.4,0.4-0.6,0.6c-0.1,0.2-0.3,0.3-0.4,0.5c-0.2,0.2-0.3,0.5-0.5,0.7
			c-0.1,0.2-0.2,0.3-0.3,0.5c-0.1,0.3-0.3,0.5-0.4,0.8c-0.1,0.2-0.1,0.4-0.2,0.6c-0.1,0.3-0.2,0.6-0.2,0.9c0,0.2-0.1,0.4-0.1,0.6
			c0,0.3,0,0.7,0,1c0,0.2,0.1,0.5,0.1,0.7c0,0.2,0.1,0.3,0.1,0.5c0.1,0.3,0.2,0.5,0.3,0.7c0.1,0.2,0.2,0.4,0.3,0.7
			c0,0.1,0.1,0.2,0.2,0.3c0.3,0.6,0.8,1.2,1.3,1.8c0.6,0.6,1.2,1.2,2,1.7c0.4,0.3,0.9,0.6,1.4,0.9c0.5,0.3,1,0.5,1.5,0.8
			c0.9,0.4,1.9,0.8,2.9,1.1c1,0.3,2,0.6,3.1,0.8l0.5,0.1c0.4,0.1,0.8,0.1,1.1,0.2c0.4,0.1,0.9,0.1,1.3,0.1c0.3,0,0.5,0,0.8,0.1
			c0.4,0,0.8,0.1,1.3,0.1c0.6,0,1.2,0,1.7,0c0.4,0,0.7,0,1.1,0c0.5,0,1-0.1,1.5-0.1c0.3,0,0.7-0.1,1-0.1c0.5-0.1,0.9-0.1,1.4-0.2
			c0.3-0.1,0.6-0.1,0.9-0.2c0.4-0.1,0.8-0.2,1.2-0.3c0.3-0.1,0.5-0.1,0.8-0.2c0.4-0.1,0.8-0.2,1.1-0.4c0.2-0.1,0.5-0.2,0.7-0.3
			c0.3-0.1,0.7-0.3,1-0.4c0.2-0.1,0.4-0.2,0.7-0.3c0.3-0.1,0.6-0.3,0.9-0.5c0.2-0.1,0.4-0.2,0.5-0.3l0.1,0c0.3-0.2,0.6-0.3,0.8-0.5
			c0.2-0.1,0.4-0.2,0.5-0.4c0.3-0.2,0.5-0.4,0.7-0.6c0.2-0.1,0.3-0.3,0.5-0.4c0.2-0.2,0.4-0.4,0.6-0.6c0.1-0.1,0.3-0.3,0.4-0.4
			c0.2-0.2,0.4-0.5,0.5-0.7c0.1-0.2,0.2-0.3,0.3-0.5c0.2-0.3,0.3-0.5,0.4-0.8c0.1-0.2,0.2-0.4,0.2-0.5c0.1-0.3,0.2-0.6,0.3-0.8
			c0.1-0.2,0.1-0.4,0.1-0.6c0-0.3,0.1-0.6,0.1-1c0-0.2,0-0.5,0-0.7c0-0.4-0.1-0.7-0.2-1.1c0,0,0,0,0,0c-0.1-0.3-0.2-0.6-0.3-0.9
			c-0.1-0.2-0.2-0.3-0.2-0.5c-0.2-0.3-0.4-0.7-0.6-1c-0.3-0.5-0.7-0.9-1.1-1.3c-0.5-0.5-1.1-1-1.7-1.4c-0.4-0.3-0.9-0.6-1.4-0.9
			c-0.5-0.3-1-0.5-1.5-0.8c-0.8-0.4-1.6-0.7-2.5-1c-0.7-0.3-1.5-0.5-2.3-0.7c-0.6-0.1-1.1-0.2-1.7-0.4c-0.3-0.1-0.6-0.1-0.9-0.1
			c-0.5-0.1-1-0.1-1.5-0.2c0,0-0.1,0-0.1,0c-0.6-0.1-1.2-0.1-1.9-0.1c-0.4,0-0.8,0-1.2,0c-0.6,0-1.1,0-1.7,0c-0.3,0-0.7,0-1.1,0.1
			c-0.5,0-1,0.1-1.5,0.2c-0.3,0-0.6,0.1-0.9,0.1c-0.4,0.1-0.9,0.1-1.3,0.2c-0.3,0.1-0.6,0.1-0.8,0.2c-0.4,0.1-0.8,0.2-1.2,0.3
			c-0.3,0.1-0.5,0.1-0.8,0.2c-0.4,0.1-0.7,0.2-1.1,0.4c-0.2,0.1-0.5,0.2-0.7,0.3c-0.3,0.1-0.7,0.3-1,0.4c-0.2,0.1-0.4,0.2-0.6,0.3
			C396.8,224.5,396.5,224.7,396.2,224.8z"/>
		<path class="st4" d="M417,222.4l10.5,6c-0.3-0.5-0.7-0.9-1.1-1.3l-7-4.1C418.5,222.8,417.8,222.6,417,222.4z"/>
		<path class="st4" d="M412.9,221.8l15.7,9.1c-0.1-0.3-0.2-0.6-0.3-0.9l-13.9-8C413.9,221.9,413.4,221.8,412.9,221.8z"/>
		<path class="st4" d="M409.7,221.6l19.1,11c0-0.2,0-0.5,0-0.7l-17.9-10.3C410.5,221.6,410.1,221.6,409.7,221.6z"/>
		<path class="st4" d="M407,221.7l21.7,12.5c0.1-0.2,0.1-0.4,0.1-0.6l-20.7-12C407.7,221.7,407.4,221.7,407,221.7z"/>
		<path class="st4" d="M404.6,222l23.6,13.6c0.1-0.2,0.2-0.4,0.2-0.5l-22.9-13.2C405.2,221.9,404.9,222,404.6,222z"/>
		<path class="st4" d="M402.4,222.4l25,14.4c0.1-0.2,0.2-0.3,0.3-0.5l-24.5-14.1C403,222.3,402.7,222.4,402.4,222.4z"/>
		<path class="st4" d="M400.5,223l26,15c0.1-0.1,0.3-0.3,0.4-0.4l-25.7-14.8C401,222.8,400.7,222.9,400.5,223z"/>
		<path class="st4" d="M398.7,223.6l26.7,15.4c0.2-0.1,0.3-0.3,0.5-0.4l-26.5-15.3C399.1,223.4,398.9,223.5,398.7,223.6z"/>
		<path class="st4" d="M397.1,224.3l27.1,15.6c0.2-0.1,0.4-0.2,0.5-0.4l-27-15.6C397.5,224.1,397.3,224.2,397.1,224.3z"/>
		<path class="st4" d="M396.2,224.8L396.2,224.8c-0.2,0.1-0.4,0.2-0.6,0.3l27.1,15.7c0.2-0.1,0.4-0.2,0.5-0.3l0.1,0L396.2,224.8z"/>
		<path class="st4" d="M394.8,225.7c-0.2,0.1-0.3,0.3-0.5,0.4l26.9,15.5c0.2-0.1,0.4-0.2,0.7-0.3L394.8,225.7z"/>
		<path class="st4" d="M393.6,226.7c-0.2,0.1-0.3,0.3-0.4,0.4l26.3,15.2c0.2-0.1,0.5-0.2,0.7-0.3L393.6,226.7z"/>
		<path class="st4" d="M392.5,227.7c-0.1,0.2-0.3,0.3-0.4,0.5l25.3,14.6c0.3-0.1,0.5-0.1,0.8-0.2L392.5,227.7z"/>
		<path class="st4" d="M391.6,228.9c-0.1,0.2-0.2,0.3-0.3,0.5l24,13.9c0.3-0.1,0.6-0.1,0.9-0.2L391.6,228.9z"/>
		<g>
			<path class="st4" d="M391,230.2c-0.1,0.2-0.1,0.4-0.2,0.6l22.2,12.8c0.3,0,0.7-0.1,1-0.1L391,230.2z"/>
		</g>
		<path class="st4" d="M390.6,231.7c0,0.2-0.1,0.4-0.1,0.6l19.9,11.5c0.4,0,0.7,0,1.1,0L390.6,231.7z"/>
		<path class="st4" d="M390.5,233.3c0,0.2,0.1,0.5,0.1,0.7l16.7,9.7c0.4,0,0.8,0.1,1.3,0.1L390.5,233.3z"/>
		<path class="st4" d="M391,235.3c0.1,0.2,0.2,0.4,0.3,0.7c0,0.1,0.1,0.2,0.2,0.3l12.1,7l0.5,0.1c0.4,0.1,0.8,0.1,1.1,0.2L391,235.3
			z"/>
		<path class="st4" d="M394.8,239.7c-0.8-0.5-1.4-1.1-2-1.7l2.5,1.4l2.9,1.6l2.5,1.4c-1-0.3-2-0.7-2.9-1.1L394.8,239.7z"/>
		<path class="st4" d="M421.1,223.7l-27,15.6l4.2,2.4l27-15.6c-0.6-0.4-1.3-0.8-2-1.2C422.5,224.5,421.8,224.1,421.1,223.7z"/>
		<g>
			<path class="st3" d="M428.6,230.9l-0.8,0.5l-0.6,0.3l-0.9,0.5l-0.6,0.3l-0.9,0.5l-0.6,0.3l-0.9,0.5l-0.6,0.3l-0.9,0.5l-0.6,0.3
				l-0.9,0.5l-0.6,0.3l-0.9,0.5l-0.6,0.3l-0.9,0.5l-0.6,0.3l-0.9,0.5l-0.6,0.3l-0.9,0.5l-0.6,0.3l-0.9,0.5l-0.6,0.3l-0.9,0.5
				l-0.6,0.3l-0.9,0.5l-0.6,0.3l-0.9,0.5l-0.6,0.3l-0.9,0.5l-0.6,0.3l-0.4,0.2l-1.3-0.1c-0.4-0.1-0.8-0.1-1.1-0.2l0.4-0.2l0.9-0.5
				l0.6-0.3l0.9-0.5l0.6-0.3l0.9-0.5l0.6-0.3l0.9-0.5l0.6-0.3l0.9-0.5l0.6-0.3l0.9-0.5l0.6-0.3l0.9-0.5l0.6-0.3l0.9-0.5l0.6-0.3
				l0.9-0.5l0.6-0.3l0.9-0.5l0.6-0.3l0.9-0.5l0.6-0.3l0.9-0.5l0.6-0.3l0.9-0.5l0.6-0.3l0.9-0.5l0.6-0.3l0.9-0.5l0.6-0.3l0.9-0.5
				l0.6-0.3l0.3-0.2c0.1,0.2,0.2,0.3,0.2,0.5C428.4,230.3,428.5,230.5,428.6,230.9L428.6,230.9z"/>
			<path class="st3" d="M412.9,221.8c0.5,0,1,0.1,1.5,0.2c0.3,0,0.6,0.1,0.9,0.1l-0.3,0.2l-0.6,0.3l-0.9,0.5l-0.6,0.3l-0.9,0.5
				l-0.6,0.3l-0.9,0.5l-0.6,0.3l-0.9,0.5l-0.6,0.3l-0.9,0.5l-0.6,0.3l-0.9,0.5l-0.6,0.3l-0.9,0.5l-0.6,0.3l-0.9,0.5l-0.6,0.3
				l-0.9,0.5l-0.6,0.3l-0.9,0.5l-0.6,0.3l-0.9,0.5l-0.6,0.3l-0.9,0.5l-0.6,0.3l-0.9,0.5l-0.6,0.3l-0.9,0.5l-0.6,0.3l-0.9,0.5
				l-0.6,0.3l-0.9,0.5l-0.4,0.2c-0.1-0.2-0.2-0.4-0.3-0.7c-0.1-0.2-0.2-0.5-0.3-0.7l0.4-0.2l0.6-0.3l0.9-0.5l0.6-0.3l0.9-0.5
				l0.6-0.3l0.9-0.5l0.6-0.3l0.9-0.5l0.6-0.3l0.9-0.5l0.6-0.3l0.9-0.5l0.6-0.3l0.9-0.5l0.6-0.3l0.9-0.5l0.6-0.3l0.9-0.5l0.6-0.3
				l0.9-0.5l0.6-0.3l0.9-0.5l0.6-0.3l0.9-0.5l0.6-0.3l0.9-0.5l0.6-0.3l0.9-0.5l0.6-0.3L412.9,221.8L412.9,221.8z"/>
		</g>
	</g>
	<g>
		<path class="st3" d="M362.7,205.3L362.7,205.3c-0.2,0.1-0.4,0.2-0.6,0.3c-0.3,0.2-0.5,0.4-0.8,0.5c-0.2,0.1-0.3,0.3-0.5,0.4
			c-0.2,0.2-0.5,0.4-0.7,0.6c-0.2,0.1-0.3,0.3-0.4,0.4c-0.2,0.2-0.4,0.4-0.6,0.6c-0.1,0.2-0.3,0.3-0.4,0.5c-0.2,0.2-0.3,0.5-0.5,0.7
			c-0.1,0.2-0.2,0.3-0.3,0.5c-0.1,0.3-0.3,0.5-0.4,0.8c-0.1,0.2-0.1,0.4-0.2,0.6c-0.1,0.3-0.2,0.6-0.2,0.9c0,0.2-0.1,0.4-0.1,0.6
			c0,0.3,0,0.7,0,1c0,0.2,0.1,0.5,0.1,0.7c0,0.2,0.1,0.3,0.1,0.5c0.1,0.3,0.2,0.5,0.3,0.7c0.1,0.2,0.2,0.4,0.3,0.7
			c0,0.1,0.1,0.2,0.2,0.3c0.3,0.6,0.8,1.2,1.3,1.8c0.6,0.6,1.2,1.2,2,1.7c0.4,0.3,0.9,0.6,1.4,0.9c0.5,0.3,1,0.5,1.5,0.8
			c0.9,0.4,1.9,0.8,2.9,1.1c1,0.3,2,0.6,3.1,0.8l0.5,0.1c0.4,0.1,0.8,0.1,1.1,0.2c0.4,0.1,0.9,0.1,1.3,0.1c0.3,0,0.5,0,0.8,0.1
			c0.4,0,0.8,0.1,1.3,0.1c0.6,0,1.2,0,1.7,0c0.4,0,0.7,0,1.1,0c0.5,0,1-0.1,1.5-0.1c0.3,0,0.7-0.1,1-0.1c0.5-0.1,0.9-0.1,1.4-0.2
			c0.3-0.1,0.6-0.1,0.9-0.2c0.4-0.1,0.8-0.2,1.2-0.3c0.3-0.1,0.5-0.1,0.8-0.2c0.4-0.1,0.8-0.2,1.1-0.4c0.2-0.1,0.5-0.2,0.7-0.3
			c0.3-0.1,0.7-0.3,1-0.4c0.2-0.1,0.4-0.2,0.7-0.3c0.3-0.1,0.6-0.3,0.9-0.5c0.2-0.1,0.4-0.2,0.5-0.3l0.1,0c0.3-0.2,0.6-0.3,0.8-0.5
			c0.2-0.1,0.4-0.2,0.5-0.4c0.3-0.2,0.5-0.4,0.7-0.6c0.2-0.1,0.3-0.3,0.5-0.4c0.2-0.2,0.4-0.4,0.6-0.6c0.1-0.1,0.3-0.3,0.4-0.4
			c0.2-0.2,0.4-0.5,0.5-0.7c0.1-0.2,0.2-0.3,0.3-0.5c0.2-0.3,0.3-0.5,0.4-0.8c0.1-0.2,0.2-0.4,0.2-0.5c0.1-0.3,0.2-0.6,0.3-0.8
			c0.1-0.2,0.1-0.4,0.1-0.6c0-0.3,0.1-0.6,0.1-1c0-0.2,0-0.5,0-0.7c0-0.4-0.1-0.7-0.2-1.1c0,0,0,0,0,0c-0.1-0.3-0.2-0.6-0.3-0.9
			c-0.1-0.2-0.2-0.3-0.2-0.5c-0.2-0.3-0.4-0.7-0.6-1c-0.3-0.5-0.7-0.9-1.1-1.3c-0.5-0.5-1.1-1-1.7-1.4c-0.4-0.3-0.9-0.6-1.4-0.9
			c-0.5-0.3-1-0.5-1.5-0.8c-0.8-0.4-1.6-0.7-2.5-1c-0.7-0.3-1.5-0.5-2.3-0.7c-0.6-0.1-1.1-0.2-1.7-0.4c-0.3-0.1-0.6-0.1-0.9-0.1
			c-0.5-0.1-1-0.1-1.5-0.2c0,0-0.1,0-0.1,0c-0.6-0.1-1.2-0.1-1.9-0.1c-0.4,0-0.8,0-1.2,0c-0.6,0-1.1,0-1.7,0c-0.3,0-0.7,0-1.1,0.1
			c-0.5,0-1,0.1-1.5,0.2c-0.3,0-0.6,0.1-0.9,0.1c-0.4,0.1-0.9,0.1-1.3,0.2c-0.3,0.1-0.6,0.1-0.8,0.2c-0.4,0.1-0.8,0.2-1.2,0.3
			c-0.3,0.1-0.5,0.1-0.8,0.2c-0.4,0.1-0.7,0.2-1.1,0.4c-0.2,0.1-0.5,0.2-0.7,0.3c-0.3,0.1-0.7,0.3-1,0.4c-0.2,0.1-0.4,0.2-0.6,0.3
			C363.3,204.9,363,205.1,362.7,205.3z"/>
		<path class="st4" d="M383.5,202.9l10.5,6c-0.3-0.5-0.7-0.9-1.1-1.3l-7-4.1C385,203.3,384.3,203.1,383.5,202.9z"/>
		<path class="st4" d="M379.4,202.2l15.7,9.1c-0.1-0.3-0.2-0.6-0.3-0.9l-13.9-8C380.4,202.3,379.9,202.3,379.4,202.2z"/>
		<path class="st4" d="M376.2,202.1l19.1,11c0-0.2,0-0.5,0-0.7l-17.9-10.3C377.1,202.1,376.7,202.1,376.2,202.1z"/>
		<path class="st4" d="M373.5,202.2l21.7,12.5c0.1-0.2,0.1-0.4,0.1-0.6l-20.7-12C374.2,202.1,373.9,202.1,373.5,202.2z"/>
		<path class="st4" d="M371.1,202.4l23.6,13.6c0.1-0.2,0.2-0.4,0.2-0.5l-22.9-13.2C371.7,202.4,371.4,202.4,371.1,202.4z"/>
		<path class="st4" d="M369,202.9l25,14.4c0.1-0.2,0.2-0.3,0.3-0.5l-24.5-14.1C369.5,202.7,369.2,202.8,369,202.9z"/>
		<path class="st4" d="M367,203.4l26,15c0.1-0.1,0.3-0.3,0.4-0.4l-25.7-14.8C367.5,203.3,367.2,203.3,367,203.4z"/>
		<path class="st4" d="M365.2,204.1l26.7,15.4c0.2-0.1,0.3-0.3,0.5-0.4l-26.5-15.3C365.7,203.9,365.4,204,365.2,204.1z"/>
		<path class="st4" d="M363.6,204.8l27.1,15.6c0.2-0.1,0.4-0.2,0.5-0.4l-27-15.6C364,204.6,363.8,204.7,363.6,204.8z"/>
		<path class="st4" d="M362.7,205.3L362.7,205.3c-0.2,0.1-0.4,0.2-0.6,0.3l27.1,15.7c0.2-0.1,0.4-0.2,0.5-0.3l0.1,0L362.7,205.3z"/>
		<path class="st4" d="M361.3,206.1c-0.2,0.1-0.3,0.3-0.5,0.4l26.9,15.5c0.2-0.1,0.4-0.2,0.7-0.3L361.3,206.1z"/>
		<path class="st4" d="M360.1,207.1c-0.2,0.1-0.3,0.3-0.4,0.4l26.3,15.2c0.2-0.1,0.5-0.2,0.7-0.3L360.1,207.1z"/>
		<path class="st4" d="M359,208.2c-0.1,0.2-0.3,0.3-0.4,0.5l25.3,14.6c0.3-0.1,0.5-0.1,0.8-0.2L359,208.2z"/>
		<path class="st4" d="M358.1,209.4c-0.1,0.2-0.2,0.3-0.3,0.5l24,13.9c0.3-0.1,0.6-0.1,0.9-0.2L358.1,209.4z"/>
		<g>
			<path class="st4" d="M357.5,210.7c-0.1,0.2-0.1,0.4-0.2,0.6l22.2,12.8c0.3,0,0.7-0.1,1-0.1L357.5,210.7z"/>
		</g>
		<path class="st4" d="M357.1,212.1c0,0.2-0.1,0.4-0.1,0.6l19.9,11.5c0.4,0,0.7,0,1.1,0L357.1,212.1z"/>
		<path class="st4" d="M357,213.7c0,0.2,0.1,0.5,0.1,0.7l16.7,9.7c0.4,0,0.8,0.1,1.3,0.1L357,213.7z"/>
		<path class="st4" d="M357.5,215.7c0.1,0.2,0.2,0.4,0.3,0.7c0,0.1,0.1,0.2,0.2,0.3l12.1,7l0.5,0.1c0.4,0.1,0.8,0.1,1.1,0.2
			L357.5,215.7z"/>
		<path class="st4" d="M361.3,220.1c-0.8-0.5-1.4-1.1-2-1.7l2.5,1.4l2.9,1.6l2.5,1.4c-1-0.3-2-0.7-2.9-1.1L361.3,220.1z"/>
		<path class="st4" d="M387.6,204.1l-27,15.6l4.2,2.4l27-15.6c-0.6-0.4-1.3-0.8-2-1.2C389.1,204.9,388.3,204.5,387.6,204.1z"/>
		<g>
			<path class="st3" d="M395.1,211.3l-0.8,0.5l-0.6,0.3l-0.9,0.5l-0.6,0.3l-0.9,0.5l-0.6,0.3l-0.9,0.5l-0.6,0.3l-0.9,0.5l-0.6,0.3
				L387,216l-0.6,0.3l-0.9,0.5l-0.6,0.3l-0.9,0.5l-0.6,0.3l-0.9,0.5l-0.6,0.3l-0.9,0.5l-0.6,0.3l-0.9,0.5l-0.6,0.3l-0.9,0.5
				l-0.6,0.3l-0.9,0.5l-0.6,0.3l-0.9,0.5l-0.6,0.3l-0.9,0.5l-0.6,0.3l-0.4,0.2l-1.3-0.1c-0.4-0.1-0.8-0.1-1.1-0.2l0.4-0.2l0.9-0.5
				l0.6-0.3l0.9-0.5l0.6-0.3l0.9-0.5l0.6-0.3l0.9-0.5l0.6-0.3l0.9-0.5l0.6-0.3l0.9-0.5l0.6-0.3l0.9-0.5l0.6-0.3l0.9-0.5l0.6-0.3
				l0.9-0.5l0.6-0.3l0.9-0.5l0.6-0.3l0.9-0.5l0.6-0.3l0.9-0.5l0.6-0.3l0.9-0.5l0.6-0.3l0.9-0.5l0.6-0.3l0.9-0.5l0.6-0.3l0.9-0.5
				l0.6-0.3l0.3-0.2c0.1,0.2,0.2,0.3,0.2,0.5C394.9,210.7,395,211,395.1,211.3L395.1,211.3z"/>
			<path class="st3" d="M379.4,202.2c0.5,0,1,0.1,1.5,0.2c0.3,0,0.6,0.1,0.9,0.1l-0.3,0.2l-0.6,0.3l-0.9,0.5l-0.6,0.3l-0.9,0.5
				l-0.6,0.3l-0.9,0.5l-0.6,0.3l-0.9,0.5l-0.6,0.3l-0.9,0.5l-0.6,0.3l-0.9,0.5l-0.6,0.3l-0.9,0.5l-0.6,0.3l-0.9,0.5l-0.6,0.3
				l-0.9,0.5l-0.6,0.3l-0.9,0.5l-0.6,0.3l-0.9,0.5l-0.6,0.3l-0.9,0.5l-0.6,0.3l-0.9,0.5l-0.6,0.3l-0.9,0.5l-0.6,0.3l-0.9,0.5
				l-0.6,0.3l-0.9,0.5l-0.4,0.2c-0.1-0.2-0.2-0.4-0.3-0.7c-0.1-0.2-0.2-0.5-0.3-0.7l0.4-0.2l0.6-0.3l0.9-0.5l0.6-0.3l0.9-0.5
				l0.6-0.3l0.9-0.5l0.6-0.3l0.9-0.5l0.6-0.3l0.9-0.5l0.6-0.3l0.9-0.5l0.6-0.3l0.9-0.5l0.6-0.3l0.9-0.5l0.6-0.3l0.9-0.5l0.6-0.3
				l0.9-0.5l0.6-0.3l0.9-0.5l0.6-0.3l0.9-0.5l0.6-0.3l0.9-0.5l0.6-0.3l0.9-0.5l0.6-0.3L379.4,202.2L379.4,202.2z"/>
		</g>
	</g>
	<path class="st5" d="M384.9,221.8c-2.6,0.9-5.4,1.3-8.3,1.3c1.6-1.4,2.6-3.1,2.6-4.9c0-0.8-0.2-1.5-0.5-2.2c1.1,0.3,2.1,0.7,3,1.2
		C383.7,218.4,384.9,220.1,384.9,221.8 M367.7,204.6c2.6-0.9,5.4-1.3,8.3-1.3c-1.6,1.4-2.6,3.1-2.6,4.9c0,0.8,0.2,1.5,0.5,2.2
		c-1.1-0.3-2.1-0.7-3-1.2C368.8,208,367.7,206.3,367.7,204.6 M377.5,208.2c0-1.7,1.2-3.4,3.2-4.6c2.7,0.4,5.3,1.2,7.5,2.4
		c-2.9,0.3-5.6,1.2-7.8,2.4c-0.9,0.5-1.7,1.1-2.4,1.8C377.6,209.6,377.5,208.9,377.5,208.2 M391.2,208.2c1.5,1.5,2.3,3.1,2.3,4.8
		c-2.5-0.9-5.4-1.5-8.5-1.5c-1.3,0-2.6,0.1-3.9,0.3c0.5-0.6,1.2-1.2,2.1-1.7C385.4,208.9,388.2,208.2,391.2,208.2 M392.9,215.7
		c-0.7,1.6-2.1,3.1-4.2,4.3c-0.6-1.7-2-3.3-4.2-4.5c-0.9-0.5-2-1-3.1-1.4c1.1-0.2,2.4-0.3,3.6-0.3
		C388,213.9,390.8,214.6,392.9,215.7 M375.1,218.2c0,1.7-1.2,3.3-3.2,4.6c-2.7-0.4-5.3-1.2-7.5-2.4c2.9-0.3,5.6-1.2,7.8-2.4
		c0.9-0.5,1.7-1.1,2.4-1.8C375,216.8,375.1,217.5,375.1,218.2 M361.4,218.2c-1.5-1.5-2.3-3.1-2.3-4.8c2.5,1,5.4,1.5,8.5,1.5
		c1.3,0,2.6-0.1,3.9-0.3c-0.5,0.6-1.2,1.2-2.1,1.7C367.2,217.5,364.4,218.2,361.4,218.2 M359.7,210.7c0.7-1.6,2.1-3.1,4.2-4.3
		c0.6,1.7,2,3.3,4.2,4.5c0.9,0.5,2,1,3.1,1.4c-1.1,0.2-2.4,0.3-3.6,0.3C364.6,212.5,361.8,211.9,359.7,210.7 M391.3,204.5
		c-8.3-4.8-21.7-4.8-30,0c-8.3,4.8-8.3,12.5,0,17.3c8.3,4.8,21.7,4.8,30,0C399.6,217.1,399.6,209.3,391.3,204.5"/>
	<path class="st4" d="M380.4,210.9c-2.2-1.3-5.9-1.3-8.1,0c-2.2,1.3-2.2,3.4,0,4.7s5.9,1.3,8.1,0
		C382.6,214.3,382.6,212.2,380.4,210.9"/>
	<path class="st3" d="M378.3,210.1c-0.8,0.2-1.5,0.4-2.1,0.8c-2.3,1.3-2.2,3.4,0,4.7c0.6,0.4,1.3,0.6,2.1,0.8
		c-2,0.4-4.4,0.2-6.1-0.8c-2.3-1.3-2.2-3.4,0-4.7C373.9,209.9,376.3,209.7,378.3,210.1"/>
	<g>
		<path class="st5" d="M418.3,241.3c-2.6,0.9-5.4,1.3-8.3,1.3c1.6-1.4,2.6-3.1,2.6-4.9c0-0.8-0.2-1.5-0.5-2.2c1.1,0.3,2.1,0.7,3,1.2
			C417.1,237.9,418.3,239.6,418.3,241.3 M401,224.1c2.6-0.9,5.4-1.3,8.3-1.3c-1.6,1.4-2.6,3.1-2.6,4.9c0,0.8,0.2,1.5,0.5,2.2
			c-1.1-0.3-2.1-0.7-3-1.2C402.2,227.5,401.1,225.8,401,224.1 M410.8,227.7c0-1.7,1.2-3.4,3.2-4.6c2.7,0.4,5.3,1.2,7.5,2.4
			c-2.9,0.3-5.6,1.2-7.8,2.4c-0.9,0.5-1.7,1.1-2.4,1.8C411,229.1,410.8,228.4,410.8,227.7 M424.5,227.7c1.5,1.5,2.3,3.1,2.3,4.8
			c-2.5-0.9-5.4-1.5-8.5-1.5c-1.3,0-2.6,0.1-3.9,0.3c0.5-0.6,1.2-1.2,2.1-1.7C418.8,228.4,421.6,227.7,424.5,227.7 M426.3,235.2
			c-0.7,1.6-2.1,3.1-4.2,4.3c-0.6-1.7-2-3.3-4.2-4.5c-0.9-0.5-2-1-3.1-1.4c1.1-0.2,2.4-0.3,3.6-0.3
			C421.3,233.4,424.2,234.1,426.3,235.2 M408.5,237.7c0,1.7-1.2,3.3-3.2,4.6c-2.7-0.4-5.3-1.2-7.5-2.4c2.9-0.3,5.6-1.2,7.8-2.4
			c0.9-0.5,1.7-1.1,2.4-1.8C408.3,236.3,408.5,237,408.5,237.7 M394.8,237.7c-1.5-1.5-2.3-3.1-2.3-4.8c2.5,1,5.4,1.5,8.5,1.5
			c1.3,0,2.6-0.1,3.9-0.3c-0.5,0.6-1.2,1.2-2.1,1.7C400.6,237,397.8,237.7,394.8,237.7 M393.1,230.2c0.7-1.6,2.1-3.1,4.2-4.3
			c0.6,1.7,2,3.3,4.2,4.5c0.9,0.5,2,1,3.1,1.4c-1.1,0.2-2.4,0.3-3.6,0.3C398,232,395.2,231.4,393.1,230.2 M424.7,224
			c-8.3-4.8-21.7-4.8-30,0c-8.3,4.8-8.3,12.5,0,17.3c8.3,4.8,21.7,4.8,30,0C432.9,236.6,433,228.8,424.7,224"/>
		<g>
			<path class="st4" d="M413.7,230.4c-2.2-1.3-5.9-1.3-8.1,0c-2.2,1.3-2.2,3.4,0,4.7c2.2,1.3,5.9,1.3,8.1,0
				C416,233.7,416,231.6,413.7,230.4"/>
			<path class="st3" d="M411.7,229.6c-0.8,0.2-1.5,0.4-2.1,0.8c-2.3,1.3-2.2,3.4,0,4.7c0.6,0.4,1.3,0.6,2.1,0.8
				c-2,0.4-4.4,0.2-6.1-0.8c-2.3-1.3-2.2-3.4,0-4.7C407.2,229.4,409.6,229.1,411.7,229.6"/>
		</g>
	</g>
	<polygon class="st6" points="417.1,282.4 472.5,249.9 472.5,242.3 417.1,271.7 	"/>
	<path class="st7" d="M438.4,262.1l3.5,2c0.9,0.5,2.3,0.5,3.2,0l17.8-10.3c0.9-0.5,0.9-1.3,0-1.8l-3.5-2L438.4,262.1z"/>
	<path class="st3" d="M470.8,239.8C470.8,239.8,470.8,239.8,470.8,239.8L470.8,239.8c0.5-0.3,1.3-0.4,1.9-0.4c0.4,0,0.8,0.2,1.1,0.3
		l6.4,3.7c0.8,0.5,0.8,1.3,0,1.8c-0.8,0.5-2.2,0.5-3,0l-4.9-2.8l-51.5,30.2c-0.8,0.5-2.2,0.5-3,0l-0.1,0c-0.8-0.5-0.8-1.2,0-1.7
		L470.8,239.8C470.8,239.8,470.8,239.8,470.8,239.8"/>
	<g>
		<path class="st8" d="M403.6,267.2l5.1-2.9l-61.4-35.4l-2.1,1.2l2.8,1.6l-1.9,0.5l4.1,2.4l0.3-0.2c0.5-0.3,1.3-0.3,1.8,0l0,0
			c0.5,0.3,0.5,0.7,0,1l-1.8,1.1l39.4,22.8l1.8-1.1c0.4-0.2,1-0.2,1.3,0l0,0c0.4,0.2,0.4,0.6,0,0.8l-1.8,1.1l5.9,3.4l2.9-1.7
			l2.2,1.3l-2.9,1.7L403.6,267.2z"/>
		<polygon class="st9" points="348,237.9 387.4,260.6 389.8,259.2 350.4,236.5 		"/>
		<path class="st9" d="M397,260.9v2.6l-2.2,1.3c0,0-5.9-3.3-5.9-3.4c0-0.1,0-2.6,0-2.6L397,260.9z"/>
		<polygon class="st8" points="408.6,261.7 408.6,264.3 399.2,264.7 397,263.4 398.5,261.4 408.5,261.7 		"/>
		<path class="st9" d="M350.2,234.6l-2.4,1.4l-5.6-3.2c-0.7-0.4-0.7-1.1,0-1.6l1.2-0.7L350.2,234.6z"/>
		<polygon class="st9" points="388.9,261.3 394.8,264.7 397,263.4 391.1,260 		"/>
		<polygon class="st9" points="389.8,256.7 389.8,258.4 387.6,260 386.6,257.6 		"/>
		<g>
			<path class="st6" d="M403.6,264.6l5.1-2.9l-61.4-35.4l-2.1,1.2l2.8,1.6l-1.9,0.5l4.1,2.4l0.3-0.2c0.5-0.3,1.3-0.3,1.8,0l0,0
				c0.5,0.3,0.5,0.7,0,1l-1.8,1.1l39.4,22.8l1.8-1.1c0.4-0.2,1-0.2,1.3,0l0,0c0.4,0.2,0.4,0.6,0,0.8l-1.8,1.1l5.9,3.4l2.9-1.7
				l2.2,1.3l-2.9,1.7L403.6,264.6z"/>
			<path class="st9" d="M350.2,232l-2.4,1.4l-5.6-3.2c-0.7-0.4-0.7-1.1,0-1.6l1.2-0.7L350.2,232z"/>
			<polygon class="st10" points="348,235.3 387.4,258.1 389.8,256.7 350.4,233.9 			"/>
			<polygon class="st10" points="388.9,258.7 394.8,262.1 397,260.9 391.1,257.4 			"/>
		</g>
		<polygon class="st9" points="348,235.3 348,237.9 350.7,238.2 350.7,236.9 		"/>
		<polygon class="st8" points="345.2,227.5 345.2,229 346.2,229.6 348,229.2 		"/>
	</g>
	<polygon class="st2" points="433.1,273 444.4,266.4 444.4,261.9 433.1,268.4 	"/>
	<polygon class="st2" points="445.6,265.9 456.9,259.4 456.9,254.9 445.6,261.4 	"/>
	<polygon class="st2" points="458.1,258.9 469.4,252.4 469.4,247.8 458.1,254.4 	"/>
</g>
<g>
	<g>
		<g id="_x31_2_3_">
			<g id="XMLID_1_">
				<path id="XMLID_10_" class="st0" d="M293.4,167.2l0-5l-4.9,0l-25.9-15c-3.9-2.2-10.6-2-15.1,0.6l-23.9,13.7
					c-0.2,0.1-0.4,0.2-0.6,0.3l-3.1,0v4.7h0c0,1.4,0.9,2.7,2.6,3.7l28.2,16.4c3.9,2.2,10.6,2,15.1-0.6l23.9-13.7
					C292.2,170.8,293.4,168.9,293.4,167.2L293.4,167.2z"/>
				<path id="XMLID_8_" class="st11" d="M250.7,181.9l-28.2-16.4c-3.9-2.2-3.4-6.1,1.1-8.7l23.9-13.7c4.5-2.6,11.2-2.8,15.1-0.6
					l28.2,16.4c3.9,2.2,3.4,6.1-1.1,8.7l-23.9,13.7C261.3,183.8,254.5,184.1,250.7,181.9z"/>
			</g>
		</g>
		<path class="st12" d="M238.4,143.3C238.4,143.2,238.4,143.2,238.4,143.3c-0.4-0.4-0.6-0.7-0.9-1c-0.1-0.2-0.3-0.4-0.4-0.5
			c-0.2-0.2-0.3-0.5-0.5-0.7c-0.1-0.1-0.2-0.3-0.3-0.4c-0.2-0.3-0.3-0.6-0.5-0.9c0-0.1-0.1-0.1-0.1-0.2c-0.2-0.4-0.3-0.8-0.4-1.1
			c0-0.1,0-0.2-0.1-0.3c-0.1-0.3-0.1-0.6-0.2-0.9c0-0.1,0-0.2,0-0.3c0-0.4,0-0.8,0-1.2l0,0c0,0,0,0,0,0l-0.6,23.9c0,0,0,0.1,0,0.1
			c0,0.3,0,0.6,0,0.9c0,0.1,0,0.1,0,0.2c0,0.1,0,0.2,0,0.3c0,0.1,0,0.3,0.1,0.4c0,0.2,0.1,0.3,0.1,0.5c0,0.1,0,0.2,0.1,0.3
			c0,0.1,0,0.1,0,0.2c0.1,0.3,0.2,0.6,0.3,0.9c0,0,0,0,0,0.1c0,0.1,0.1,0.1,0.1,0.2c0.1,0.2,0.2,0.5,0.3,0.7c0,0.1,0.1,0.2,0.1,0.2
			c0.1,0.1,0.2,0.3,0.3,0.4c0.1,0.1,0.2,0.3,0.2,0.4c0.1,0.1,0.2,0.2,0.3,0.3c0.1,0.2,0.3,0.4,0.4,0.5c0.1,0.1,0.1,0.2,0.2,0.3
			c0.2,0.2,0.4,0.4,0.6,0.6c0,0,0,0,0.1,0.1c0.2,0.2,0.5,0.5,0.8,0.7c0.1,0.1,0.2,0.2,0.3,0.3c0.1,0.1,0.2,0.2,0.3,0.3
			c0.4,0.3,0.9,0.7,1.4,1c0.5,0.3,1,0.7,1.6,1c0.2,0.1,0.4,0.2,0.5,0.3c0.4,0.2,0.8,0.4,1.1,0.6c0.2,0.1,0.4,0.2,0.7,0.3
			c0.4,0.2,0.7,0.3,1.1,0.5c0.2,0.1,0.5,0.2,0.7,0.3c0.1,0.1,0.3,0.1,0.4,0.2c0.2,0.1,0.3,0.1,0.5,0.1c0.5,0.2,1,0.3,1.5,0.5
			c0.2,0,0.3,0.1,0.5,0.1c0.1,0,0.3,0.1,0.4,0.1c0.3,0.1,0.6,0.2,1,0.2c0.2,0,0.4,0.1,0.6,0.1c0.2,0,0.4,0.1,0.5,0.1
			c0.3,0,0.5,0.1,0.8,0.1c0.2,0,0.3,0.1,0.5,0.1c0.3,0,0.6,0.1,0.9,0.1c0.2,0,0.4,0.1,0.6,0.1c0.1,0,0.2,0,0.2,0
			c0.5,0.1,1.1,0.1,1.6,0.1c0,0,0.1,0,0.1,0c0.1,0,0.2,0,0.3,0c0.4,0,0.8,0,1.1,0.1c0.2,0,0.4,0,0.5,0c0.2,0,0.4,0,0.5,0
			c0.2,0,0.3,0,0.5,0c0.4,0,0.8,0,1.3,0c0.1,0,0.2,0,0.2,0c0,0,0,0,0.1,0c0.5,0,1.1-0.1,1.6-0.1c0.1,0,0.2,0,0.3,0
			c0.2,0,0.4,0,0.6-0.1c0.3,0,0.5-0.1,0.8-0.1c0.2,0,0.4-0.1,0.6-0.1c0.2,0,0.5-0.1,0.7-0.1c0.1,0,0.3,0,0.4-0.1
			c0.3,0,0.5-0.1,0.7-0.2c0.3-0.1,0.6-0.1,0.8-0.2c0.1,0,0.2,0,0.3-0.1c0.2-0.1,0.4-0.1,0.6-0.2c0.4-0.1,0.9-0.2,1.3-0.4
			c0.1,0,0.2-0.1,0.4-0.1c0.3-0.1,0.5-0.2,0.8-0.3c0.2-0.1,0.4-0.1,0.5-0.2c0.6-0.2,1.1-0.5,1.6-0.7c4.6-2.3,7.1-5.5,7.3-8.9
			l0.6-23.9c-0.2,3.4-2.7,6.6-7.3,8.9c-0.5,0.3-1.1,0.5-1.7,0.7c-0.2,0.1-0.4,0.1-0.5,0.2c-0.4,0.1-0.7,0.3-1.1,0.4
			c-0.4,0.1-0.8,0.3-1.3,0.4c-0.3,0.1-0.6,0.2-0.9,0.2c-0.3,0.1-0.6,0.1-0.8,0.2c-0.4,0.1-0.8,0.2-1.2,0.2c-0.2,0-0.5,0.1-0.7,0.1
			c-0.5,0.1-0.9,0.1-1.4,0.2c-0.2,0-0.4,0-0.6,0.1c-0.6,0.1-1.3,0.1-1.9,0.1c-0.1,0-0.1,0-0.2,0c-0.6,0-1.2,0-1.7,0
			c-0.2,0-0.4,0-0.6,0c-0.6,0-1.1,0-1.7-0.1c-0.1,0-0.2,0-0.3,0c-0.7,0-1.3-0.1-2-0.2c-0.2,0-0.4-0.1-0.6-0.1
			c-0.5-0.1-0.9-0.1-1.4-0.2c-0.3,0-0.5-0.1-0.8-0.1c-0.4-0.1-0.8-0.2-1.2-0.2c-0.3-0.1-0.7-0.1-1-0.2c-0.3-0.1-0.6-0.2-0.9-0.2
			c-0.5-0.1-1-0.3-1.5-0.5c-0.3-0.1-0.6-0.2-0.9-0.3c-0.2-0.1-0.5-0.2-0.7-0.3c-0.4-0.2-0.8-0.3-1.1-0.5c-0.2-0.1-0.4-0.2-0.7-0.3
			c-0.4-0.2-0.8-0.4-1.1-0.6c-0.2-0.1-0.4-0.2-0.5-0.3c-0.5-0.3-1.1-0.6-1.6-1c-0.5-0.3-0.9-0.7-1.4-1c-0.1-0.1-0.2-0.2-0.3-0.3
			C239.2,143.9,238.8,143.6,238.4,143.3z"/>
		<path class="st11" d="M234.8,147c0,0.2,0,0.4,0,0.6c0,0.1,0,0.2,0,0.3c0,0.3,0.1,0.6,0.2,0.9c0,0.1,0,0.2,0.1,0.3
			c0.1,0.4,0.2,0.8,0.4,1.1c0,0.1,0.1,0.1,0.1,0.2c0.1,0.3,0.3,0.6,0.5,0.9c0.1,0.1,0.2,0.3,0.3,0.4c0.2,0.2,0.3,0.5,0.5,0.7
			c0.1,0.2,0.3,0.4,0.4,0.5c0.3,0.3,0.5,0.6,0.8,0.9c0,0,0,0,0.1,0.1c0.3,0.3,0.7,0.7,1.1,1c0.1,0.1,0.2,0.2,0.3,0.3
			c0.4,0.3,0.9,0.7,1.4,1c0.5,0.3,1,0.7,1.6,1c0.2,0.1,0.4,0.2,0.5,0.3c0.4,0.2,0.7,0.4,1.1,0.6c0.2,0.1,0.4,0.2,0.7,0.3
			c0.4,0.2,0.7,0.3,1.1,0.5c0.2,0.1,0.5,0.2,0.7,0.3c0.3,0.1,0.6,0.2,0.9,0.3c0.5,0.2,1,0.3,1.5,0.5c0.3,0.1,0.6,0.2,0.9,0.2
			c0.3,0.1,0.6,0.2,1,0.2c0.4,0.1,0.8,0.2,1.2,0.2c0.2,0.1,0.5,0.1,0.7,0.1c0.5,0.1,0.9,0.1,1.4,0.2c0.2,0,0.4,0.1,0.6,0.1
			c0.6,0.1,1.3,0.1,1.9,0.2c0.1,0,0.2,0,0.3,0c0.6,0,1.1,0.1,1.7,0.1h0.6c0.6,0,1.2,0,1.7,0c0.1,0,0.1,0,0.2,0
			c0.6,0,1.3-0.1,1.9-0.1c0.2,0,0.4,0,0.6-0.1c0.5-0.1,0.9-0.1,1.4-0.2c0.2,0,0.5-0.1,0.7-0.1c0.4-0.1,0.8-0.2,1.2-0.2
			c0.3-0.1,0.6-0.1,0.8-0.2c0.3-0.1,0.6-0.2,0.9-0.2c0.4-0.1,0.9-0.2,1.3-0.4c0.4-0.1,0.7-0.3,1.1-0.4c0.2-0.1,0.4-0.1,0.5-0.2
			c0.6-0.2,1.1-0.5,1.6-0.7c4.6-2.3,7.1-5.5,7.3-8.9l-0.1,5.1c-0.6,3-3,5.9-7.2,8c-0.5,0.3-1.1,0.5-1.6,0.7
			c-0.2,0.1-0.4,0.1-0.5,0.2c-0.4,0.1-0.7,0.3-1.1,0.4c-0.4,0.1-0.8,0.3-1.3,0.4c-0.3,0.1-0.6,0.2-0.9,0.2c-0.3,0.1-0.6,0.1-0.8,0.2
			c-0.4,0.1-0.8,0.2-1.2,0.2c-0.2,0-0.5,0.1-0.7,0.1c-0.5,0.1-0.9,0.1-1.4,0.2c-0.2,0-0.4,0.1-0.6,0.1c-0.6,0.1-1.3,0.1-1.9,0.1
			c-0.1,0-0.2,0-0.2,0c-0.6,0-1.2,0-1.7,0c-0.2,0-0.4,0-0.6,0c-0.6,0-1.1,0-1.7-0.1c-0.1,0-0.2,0-0.3,0c-0.7,0-1.3-0.1-1.9-0.2
			c-0.2,0-0.4-0.1-0.6-0.1c-0.5-0.1-0.9-0.1-1.4-0.2c-0.2,0-0.5-0.1-0.7-0.1c-0.4-0.1-0.8-0.2-1.2-0.2c-0.3-0.1-0.6-0.1-1-0.2
			c-0.3-0.1-0.6-0.2-0.9-0.2c-0.5-0.1-1-0.3-1.5-0.5c-0.3-0.1-0.6-0.2-0.9-0.3c-0.2-0.1-0.5-0.2-0.7-0.3c-0.4-0.2-0.8-0.3-1.1-0.5
			c-0.2-0.1-0.4-0.2-0.7-0.3c-0.4-0.2-0.8-0.4-1.1-0.6c-0.2-0.1-0.4-0.2-0.5-0.3c-0.5-0.3-1.1-0.6-1.6-1c-0.5-0.3-0.9-0.7-1.4-1
			c-0.1-0.1-0.2-0.2-0.3-0.3c-0.4-0.3-0.8-0.7-1.1-1l-0.1-0.1c-0.3-0.3-0.6-0.6-0.8-0.9c-0.1-0.2-0.3-0.4-0.4-0.5
			c-0.2-0.2-0.3-0.5-0.5-0.7c-0.1-0.1-0.2-0.3-0.3-0.4c-0.2-0.3-0.3-0.6-0.5-0.9c0-0.1-0.1-0.1-0.1-0.2c-0.2-0.4-0.3-0.8-0.4-1.1
			c0-0.1,0-0.2-0.1-0.3c-0.1-0.3-0.1-0.6-0.2-0.9c0-0.1,0-0.2,0-0.3c0-0.2,0-0.4,0-0.6"/>
		<g>
			<g>
				<path class="st11" d="M241.2,145.5c-8.6-5.8-8.1-14.2,1.1-18.8c9.3-4.6,23.8-3.6,32.5,2.2c8.6,5.8,8.1,14.2-1.1,18.8
					C264.4,152.3,249.9,151.3,241.2,145.5z"/>
			</g>
		</g>
		<g>
			<path class="st12" d="M274.2,143.1c-0.9,0.9-2.1,1.8-3.6,2.5c-7.4,3.7-19.1,2.9-26-1.7c-1.1-0.7-1.9-1.5-2.7-2.3
				c-4-4.4-2.7-9.7,3.6-12.8c7.4-3.7,19.1-2.9,26,1.7C277.1,134.2,277.9,139.3,274.2,143.1z"/>
		</g>
		<g>
			<path class="st13" d="M274.2,143.1c-0.9,0.9-2.1,1.8-3.6,2.5c-7.4,3.7-19.1,2.9-26-1.7c-1.1-0.7-1.9-1.5-2.7-2.3
				c0.9-0.9,2.1-1.8,3.6-2.5c7.4-3.7,19.1-2.9,26,1.7C272.6,141.6,273.5,142.3,274.2,143.1z"/>
		</g>
		<g class="st14">
			<path class="st15" d="M235.1,135.6L235.1,135.6C235.1,135.6,235.1,135.6,235.1,135.6L235.1,135.6L235.1,135.6c0,0.4,0,0.8,0,1.2
				c0,0.1,0,0.2,0,0.3c0,0.3,0.1,0.6,0.2,0.9c0,0.1,0,0.2,0.1,0.3c0.1,0.4,0.2,0.8,0.4,1.1c0,0.1,0.1,0.1,0.1,0.2
				c0.1,0.3,0.3,0.6,0.5,0.9c0.1,0.1,0.2,0.3,0.3,0.4c0.2,0.2,0.3,0.5,0.5,0.7c0.1,0.2,0.3,0.4,0.4,0.5c0.3,0.3,0.5,0.6,0.8,0.9
				c0,0,0,0,0.1,0.1c0.3,0.3,0.7,0.7,1.1,1c0.1,0.1,0.2,0.2,0.3,0.3c0.4,0.3,0.9,0.7,1.4,1c0.5,0.3,1,0.7,1.6,1
				c0.2,0.1,0.4,0.2,0.5,0.3c0.4,0.2,0.8,0.4,1.1,0.6c0.2,0.1,0.4,0.2,0.7,0.3c0.4,0.2,0.7,0.3,1.1,0.5c0.2,0.1,0.5,0.2,0.7,0.3
				c0.3,0.1,0.6,0.2,0.9,0.3c0.5,0.2,1,0.3,1.5,0.5c0.3,0.1,0.6,0.2,0.9,0.2c0.3,0.1,0.6,0.2,1,0.2c0.4,0.1,0.8,0.2,1.2,0.2
				c0.2,0,0.5,0.1,0.8,0.1c0.5,0.1,0.9,0.1,1.4,0.2c0.2,0,0.4,0.1,0.6,0.1c0.6,0.1,1.3,0.1,2,0.2c0.1,0,0.2,0,0.3,0
				c0.6,0,1.1,0.1,1.7,0.1c0.2,0,0.4,0,0.6,0c0.6,0,1.2,0,1.7,0c0.1,0,0.1,0,0.2,0c0.6,0,1.3-0.1,1.9-0.1c0.2,0,0.4,0,0.6-0.1
				c0.5-0.1,0.9-0.1,1.4-0.2c0.2,0,0.5-0.1,0.7-0.1c0.4-0.1,0.8-0.2,1.2-0.2c0.3-0.1,0.6-0.1,0.8-0.2c0.3-0.1,0.6-0.2,0.9-0.2
				c0.4-0.1,0.9-0.2,1.3-0.4c0.4-0.1,0.7-0.3,1.1-0.4c0.2-0.1,0.4-0.1,0.5-0.2c0.6-0.2,1.1-0.5,1.7-0.7c4.5-2.2,6.9-5.3,7.3-8.6
				l0.1-84.9c0-12.7-10.2-22.9-22.9-23h0c-12.7,0-23,10.2-23,22.9l-0.1,82.3L235.1,135.6z"/>
		</g>
	</g>
</g>
<linearGradient id="SVGID_1_" gradientUnits="userSpaceOnUse" x1="241.7286" y1="216.0338" x2="241.7286" y2="283.2615">
	<stop  offset="0" style="stop-color:#5A5E6D"/>
	<stop  offset="1" style="stop-color:#FFFFFF;stop-opacity:0"/>
</linearGradient>
<rect x="228.2" y="217.4" class="st16" width="27.1" height="69.9"/>
<polygon class="st17" points="255.3,217.4 241.7,225.2 228.2,217.4 241.7,209.6 "/>
<linearGradient id="SVGID_2_" gradientUnits="userSpaceOnUse" x1="283.8884" y1="259.9555" x2="283.8884" y2="307.0688">
	<stop  offset="0" style="stop-color:#5A5E6D"/>
	<stop  offset="1" style="stop-color:#FFFFFF;stop-opacity:0"/>
</linearGradient>
<rect x="274.4" y="260.9" class="st18" width="19" height="49"/>
<polygon class="st17" points="293.4,260.9 283.9,266.4 274.4,260.9 283.9,255.4 "/>
<path class="st0" d="M445.6,182.1l-30-17.3l30-17.3l30,17.3L445.6,182.1z M418.2,164.8l27.4,15.8l27.4-15.8L445.6,149L418.2,164.8z"
	/>
<polygon class="st19" points="465.4,159.1 445.6,170.5 445.6,147.7 465.4,136.3 "/>
<polygon class="st17" points="445.6,147.7 425.8,136.3 445.6,124.9 465.4,136.3 "/>
<polygon class="st12" points="445.6,170.5 425.8,159.1 425.8,136.3 445.6,147.7 "/>
<polygon class="st20" points="438.5,158.2 433,155 433,148.6 438.5,151.8 "/>
<g>
	<path class="st0" d="M66.6,182.1l-30-17.3l30-17.3l30,17.3L66.6,182.1z M39.2,164.8l27.4,15.8L94,164.8L66.6,149L39.2,164.8z"/>
	<polygon class="st19" points="86.4,159.1 66.6,170.5 66.6,147.7 86.4,136.3 	"/>
	<polygon class="st17" points="66.6,147.7 46.8,136.3 66.6,124.9 86.4,136.3 	"/>
	<polygon class="st12" points="66.6,170.5 46.8,159.1 46.8,136.3 66.6,147.7 	"/>
</g>
<polygon class="st20" points="59.5,158.2 54,155 54,148.6 59.5,151.8 "/>
<linearGradient id="SVGID_3_" gradientUnits="userSpaceOnUse" x1="256.8736" y1="50.4918" x2="256.8736" y2="130.2503">
	<stop  offset="0" style="stop-color:#F88604"/>
	<stop  offset="1" style="stop-color:#FFFFFF;stop-opacity:0"/>
</linearGradient>
<polygon class="st21" points="270.6,62.7 270.6,135 243.1,124.3 243.1,52.1 "/>
<g>
	<g>
		<g>
			<g>
				<g>
					<g class="st22">
						<path class="st10" d="M249.2,46.3C249.2,46.3,249.2,46.2,249.2,46.3c0.1-0.4,0.2-0.6,0.4-0.9c0.1-0.2,0.1-0.3,0.2-0.5
							c0.1-0.2,0.2-0.4,0.3-0.6c0.1-0.1,0.1-0.2,0.2-0.3c0.1-0.2,0.3-0.4,0.5-0.6c0,0,0.1-0.1,0.1-0.1c0.2-0.2,0.4-0.4,0.6-0.6
							c0.1,0,0.1-0.1,0.2-0.1c0.2-0.2,0.4-0.3,0.6-0.4c0.1,0,0.1-0.1,0.2-0.1c0.3-0.2,0.5-0.3,0.8-0.4l0,0c0,0,0,0,0,0l-5.3,2.2
							c0,0,0,0-0.1,0c-0.2,0.1-0.4,0.2-0.6,0.3c0,0-0.1,0-0.1,0.1c-0.1,0-0.1,0.1-0.2,0.1c-0.1,0.1-0.2,0.1-0.3,0.2
							c-0.1,0.1-0.2,0.2-0.3,0.2c-0.1,0-0.1,0.1-0.2,0.1c0,0-0.1,0-0.1,0.1c-0.2,0.2-0.4,0.3-0.5,0.5c0,0,0,0,0,0
							c0,0-0.1,0.1-0.1,0.1c-0.1,0.1-0.2,0.3-0.4,0.5c0,0.1-0.1,0.1-0.1,0.2c-0.1,0.1-0.1,0.2-0.2,0.3c-0.1,0.1-0.1,0.2-0.2,0.3
							c0,0.1-0.1,0.2-0.1,0.3c-0.1,0.2-0.1,0.3-0.2,0.5c0,0.1-0.1,0.2-0.1,0.2c-0.1,0.2-0.2,0.4-0.2,0.6c0,0,0,0,0,0.1
							c-0.1,0.2-0.2,0.5-0.2,0.8c0,0.1,0,0.2-0.1,0.3c0,0.1,0,0.2-0.1,0.3c-0.1,0.4-0.2,0.8-0.2,1.2c-0.1,0.4-0.1,0.9-0.1,1.4
							c0,0.2,0,0.3,0,0.5c0,0.3,0,0.6,0,1c0,0.2,0,0.4,0,0.5c0,0.3,0,0.6,0.1,0.9c0,0.2,0,0.4,0.1,0.6c0,0.1,0,0.2,0,0.4
							c0,0.1,0,0.3,0.1,0.4c0.1,0.4,0.1,0.8,0.2,1.2c0,0.1,0,0.2,0.1,0.4c0,0.1,0.1,0.2,0.1,0.3c0.1,0.2,0.1,0.5,0.2,0.7
							c0,0.2,0.1,0.3,0.1,0.5c0,0.1,0.1,0.3,0.1,0.4c0.1,0.2,0.1,0.4,0.2,0.5c0,0.1,0.1,0.3,0.1,0.4c0.1,0.2,0.1,0.4,0.2,0.6
							c0,0.1,0.1,0.3,0.1,0.4c0,0.1,0,0.1,0.1,0.2c0.1,0.4,0.3,0.8,0.4,1.1c0,0,0,0,0,0.1c0,0.1,0.1,0.1,0.1,0.2
							c0.1,0.3,0.2,0.5,0.3,0.8c0.1,0.1,0.1,0.2,0.2,0.4c0.1,0.1,0.1,0.2,0.2,0.4c0.1,0.1,0.1,0.2,0.2,0.3c0.1,0.3,0.3,0.6,0.4,0.8
							c0,0.1,0.1,0.1,0.1,0.2c0,0,0,0,0,0c0.2,0.3,0.4,0.7,0.6,1c0,0.1,0.1,0.1,0.1,0.2c0.1,0.1,0.2,0.2,0.2,0.4
							c0.1,0.2,0.2,0.3,0.3,0.5c0.1,0.1,0.2,0.2,0.3,0.4c0.1,0.1,0.2,0.3,0.3,0.4c0.1,0.1,0.1,0.2,0.2,0.3c0.1,0.2,0.2,0.3,0.4,0.4
							c0.1,0.2,0.3,0.3,0.4,0.5c0,0.1,0.1,0.1,0.1,0.2c0.1,0.1,0.2,0.2,0.3,0.3c0.2,0.2,0.4,0.5,0.7,0.7c0.1,0.1,0.1,0.1,0.2,0.2
							c0.1,0.1,0.3,0.3,0.4,0.4c0.1,0.1,0.2,0.2,0.3,0.3c0.3,0.3,0.7,0.6,1,0.9c3.1,2.3,6,2.9,8.4,1.9l5.3-2.2
							c-2.3,1-5.3,0.4-8.4-1.9c-0.4-0.3-0.7-0.6-1-0.9c-0.1-0.1-0.2-0.2-0.3-0.3c-0.2-0.2-0.4-0.4-0.6-0.6c-0.2-0.2-0.5-0.5-0.7-0.7
							c-0.2-0.2-0.3-0.3-0.5-0.5c-0.1-0.2-0.3-0.3-0.4-0.5c-0.2-0.2-0.4-0.5-0.6-0.7c-0.1-0.1-0.2-0.3-0.3-0.4
							c-0.2-0.3-0.4-0.6-0.6-0.9c-0.1-0.1-0.2-0.2-0.2-0.4c-0.3-0.4-0.5-0.8-0.7-1.2c0,0-0.1-0.1-0.1-0.1c-0.2-0.4-0.4-0.8-0.6-1.2
							c-0.1-0.1-0.1-0.2-0.2-0.4c-0.2-0.4-0.3-0.8-0.5-1.1c0-0.1-0.1-0.2-0.1-0.2c-0.2-0.5-0.4-0.9-0.5-1.4c0-0.1-0.1-0.3-0.1-0.4
							c-0.1-0.3-0.2-0.7-0.3-1c-0.1-0.2-0.1-0.4-0.2-0.5c-0.1-0.3-0.2-0.6-0.2-0.9c-0.1-0.2-0.1-0.5-0.2-0.7c0-0.2-0.1-0.5-0.1-0.7
							c-0.1-0.4-0.1-0.8-0.2-1.2c0-0.2-0.1-0.5-0.1-0.7c0-0.2,0-0.4-0.1-0.6c0-0.3,0-0.6-0.1-0.9c0-0.2,0-0.4,0-0.5c0-0.3,0-0.6,0-1
							c0-0.2,0-0.3,0-0.5c0-0.5,0.1-0.9,0.1-1.4c0.1-0.4,0.1-0.8,0.2-1.2c0-0.1,0-0.2,0.1-0.3C249,47,249.1,46.6,249.2,46.3z"/>
						<g>
							<path class="st9" d="M248.6,48.9c1-7.7,6.8-10.2,13-5.5c6.2,4.7,10.3,14.7,9.3,22.4c-1,7.7-6.8,10.2-13,5.5
								C251.8,66.7,247.6,56.6,248.6,48.9z"/>
						</g>
					</g>
				</g>
				<g>
					<g>
						<path class="st10" d="M250.8,50.6c0.8-6.2,5.5-8.1,10.4-4.4c4.9,3.8,8.3,11.8,7.5,18c-0.8,6.2-5.5,8.2-10.4,4.4
							C253.3,64.8,250,56.8,250.8,50.6z"/>
					</g>
				</g>
				<g>
					
						<ellipse transform="matrix(0.9243 -0.3817 0.3817 0.9243 -2.251 103.4891)" class="st9" cx="259.8" cy="57.4" rx="7.4" ry="12.7"/>
				</g>
			</g>
		</g>
	</g>
	<g id="XMLID_9_">
		<g>
			<g id="XMLID_119_">
				<g>
					<path class="st20" d="M265.8,61.1l-1.2-0.9c0,0.3-0.1,0.6-0.1,0.9l-0.1,0.5l1.2,0.9l-0.2,1.5l-1.2-0.9l-0.2,1.4l-9-6.9l0.2-1.4
						l-1.2-0.9l0.2-1.5l1.2,0.9l0.1-1c0-0.1,0-0.2,0.1-0.4l-1.2-0.9l0.2-1.5l1.3,1c0.1-0.3,0.3-0.5,0.5-0.6c0.2-0.2,0.5-0.2,0.9-0.2
						c0.3,0,0.7,0.2,1.1,0.5c0.4,0.3,0.8,0.7,1.1,1.3c0.3,0.5,0.5,1.1,0.7,1.6c0.2-0.5,0.6-0.7,1-0.7c0.4,0,0.9,0.2,1.4,0.6
						c0.4,0.3,0.8,0.7,1.2,1.2c0.4,0.5,0.6,1,0.8,1.6c0.2,0.5,0.3,1,0.3,1.6l1.3,1L265.8,61.1z M260.4,59.5l2.4,1.8l0.2-1.8
						c0.1-0.7,0.1-1.2,0.1-1.4c0-0.3-0.1-0.7-0.3-1c-0.2-0.3-0.4-0.6-0.7-0.9c-0.3-0.2-0.5-0.3-0.7-0.3c-0.2,0-0.4,0.1-0.5,0.3
						c-0.1,0.2-0.2,0.8-0.4,1.6L260.4,59.5z M256.8,56.7l2.1,1.6L259,57c0.1-0.8,0.2-1.3,0.2-1.5c0-0.4-0.1-0.7-0.2-1
						c-0.2-0.3-0.4-0.6-0.7-0.8c-0.3-0.2-0.5-0.3-0.7-0.3c-0.2,0-0.3,0.2-0.4,0.5c0,0.2-0.1,0.7-0.3,1.7L256.8,56.7z"/>
				</g>
			</g>
		</g>
	</g>
</g>
</svg>
