<svg height="47" viewBox="0 0 60 47" width="60" xmlns="http://www.w3.org/2000/svg"><path d="m9.83 46.416v-2.739c0-.834-.348-1.297-1.079-1.297-.71 0-1.204.454-1.204 1.308v2.729h-1.082v-2.74c0-.833-.36-1.297-1.07-1.297-.732 0-1.206.454-1.206 1.309v2.728h-1.079v-4.921h1.071v.608c.402-.576.916-.73 1.441-.73.752 0 1.287.33 1.627.875.453-.69 1.101-.886 1.73-.875 1.195.01 1.936.793 1.936 1.956v3.088zm17.084-3.941h-1.75v2.224c0 .494.175.823.71.823.278 0 .628-.093.948-.278l.309.916c-.34.237-.875.381-1.34.381-1.265 0-1.708-.68-1.708-1.822v-2.245h-.998v-.978h.998v-1.493h1.082v1.493h1.75zm9.132-1.103c.217 0 .526.042.763.135l-.33 1.01a1.732 1.732 0 0 0 -.67-.123c-.699 0-1.049.453-1.049 1.27v2.763h-1.07v-4.93h1.06v.599c.277-.433.68-.723 1.297-.723zm-13.816.517-.462.865a3.162 3.162 0 0 0 -1.53-.422c-.586 0-.936.216-.936.576 0 .33.37.423.833.483l.503.073c1.069.155 1.716.607 1.716 1.472 0 .937-.822 1.606-2.24 1.606-.801 0-1.54-.206-2.126-.638l.502-.835c.36.278.893.515 1.633.515.73 0 1.119-.217 1.119-.597 0-.278-.276-.433-.862-.515l-.504-.072c-1.098-.155-1.694-.65-1.694-1.452 0-.978.8-1.576 2.044-1.576.781 0 1.489.176 2.003.515zm28.693-.517c.217 0 .526.042.763.135l-.33 1.009a1.735 1.735 0 0 0 -.67-.124c-.699 0-1.049.452-1.049 1.267v2.758h-1.071v-4.921h1.06v.597c.278-.433.68-.721 1.298-.721zm-13.795 2.584c0-1.493 1.039-2.584 2.625-2.584.74 0 1.234.164 1.77.586l-.515.865c-.403-.288-.825-.443-1.289-.443-.854.011-1.482.628-1.482 1.576 0 .947.628 1.565 1.482 1.576.466 0 .888-.155 1.29-.443l.513.865c-.534.421-1.028.586-1.769.586-1.586 0-2.625-1.091-2.625-2.584zm10.028.002v2.462h-1.07v-.598c-.34.443-.855.721-1.555.721-1.38 0-2.461-1.081-2.461-2.584s1.082-2.584 2.461-2.584c.7 0 1.214.278 1.555.72v-.599h1.07v2.46zm-3.985-.002c0 .865.567 1.576 1.493 1.576.885 0 1.483-.68 1.483-1.576s-.598-1.576-1.483-1.576c-.926 0-1.493.71-1.493 1.576zm-12.92-2.584c1.377 0 2.326 1.05 2.337 2.584 0 .144-.011.278-.022.411h-3.654c.155.886.782 1.206 1.472 1.206.494 0 1.02-.185 1.432-.515l.524.793c-.597.505-1.276.69-2.017.69-1.474 0-2.523-1.02-2.523-2.585 0-1.535 1.009-2.584 2.451-2.584zm-.016.96c-.766 0-1.199.487-1.313 1.203h2.563c-.113-.767-.558-1.203-1.25-1.204zm26.848 4.088h-1.07v-.598c-.338.443-.852.721-1.55.721-1.378 0-2.458-1.081-2.458-2.584s1.08-2.584 2.457-2.584c.699 0 1.213.278 1.552.72v-2.575h1.069zm-3.976-2.462c0 .865.565 1.575 1.488 1.575.883 0 1.478-.68 1.478-1.575 0-.896-.595-1.576-1.478-1.576-.923 0-1.488.71-1.488 1.576zm-36.16 0v2.462h-1.07v-.598c-.34.443-.854.721-1.554.721-1.38 0-2.462-1.081-2.462-2.584s1.083-2.584 2.462-2.584c.7 0 1.215.278 1.554.72v-.599h1.07zm-3.984 0c0 .865.567 1.575 1.493 1.575.885 0 1.482-.68 1.482-1.575 0-.896-.597-1.576-1.482-1.576-.926 0-1.493.71-1.493 1.576zm45.908 1.752a.492.492 0 0 1 .454.686.512.512 0 0 1 -.105.157.529.529 0 0 1 -.156.106.484.484 0 0 1 -.648-.268.497.497 0 0 1 .457-.686zm.005.866a.386.386 0 0 0 .348-.231.388.388 0 0 0 0-.297.392.392 0 0 0 -.2-.2.393.393 0 0 0 -.297 0 .383.383 0 0 0 -.123.08.387.387 0 0 0 0 .54.384.384 0 0 0 .272.111zm.03-.61a.208.208 0 0 1 .134.039c.032.026.05.065.048.106a.122.122 0 0 1 -.038.093.184.184 0 0 1 -.108.045l.15.17h-.115l-.138-.169h-.045v.17h-.096v-.454h.21zm-.113.205h.118a.13.13 0 0 0 .063-.016.052.052 0 0 0 .024-.046.05.05 0 0 0 -.024-.044.118.118 0 0 0 -.063-.015h-.118z" fill="#231f20"/><path d="m58.213 30.33v-.829h.24v-.169h-.613v.17h.24v.828zm1.189 0v-1h-.187l-.217.686-.216-.686h-.188v1h.133v-.753l.203.65h.138l.203-.652v.755z" fill="#f79410"/><path d="m38.098 33.135h-16.218v-29.145h16.218z" fill="#ff5f00"/><path d="m22.909 18.566c0-5.912 2.768-11.179 7.078-14.573a18.455 18.455 0 0 0 -11.454-3.963c-10.236 0-18.533 8.299-18.533 18.536s8.297 18.536 18.533 18.536a18.455 18.455 0 0 0 11.455-3.963c-4.31-3.394-7.08-8.66-7.08-14.573" fill="#eb001b"/><path d="m59.98 18.566c0 10.237-8.298 18.536-18.534 18.536a18.46 18.46 0 0 1 -11.456-3.963c4.312-3.394 7.08-8.66 7.08-14.573s-2.768-11.179-7.08-14.573a18.46 18.46 0 0 1 11.455-3.963c10.236 0 18.535 8.299 18.535 18.536" fill="#f79e1b"/></svg>