<svg xmlns="http://www.w3.org/2000/svg" width="101" height="22" viewBox="0 0 101 22"><g><g><g><path fill="#f7931a" d="M20.893 13.294c-1.394 5.593-7.058 8.996-12.651 7.601-5.59-1.394-8.994-7.058-7.6-12.65C2.037 2.652 7.7-.752 13.293.642c5.592 1.395 8.995 7.06 7.601 12.652z"/></g><g><path fill="#fff" d="M13.088 9.254c-.322 1.294-2.308.636-2.953.475l.569-2.287c.644.161 2.72.462 2.384 1.812zm-.344 3.697c-.354 1.427-2.749.656-3.525.462l.629-2.53c.776.195 3.266.58 2.896 2.068zm.32-6.31l.47-1.882-1.146-.286-.456 1.832c-.301-.075-.61-.145-.918-.215l.46-1.845-1.145-.285-.469 1.881c-.25-.057-.494-.113-.731-.172v-.006L7.55 5.27l-.304 1.223s.85.195.832.207c.463.116.547.423.533.666l-.534 2.144c.032.008.073.02.119.038l-.121-.03-.749 3.003c-.057.14-.2.352-.525.272.011.016-.832-.208-.832-.208l-.569 1.31 1.49.372c.278.07.55.143.817.211l-.474 1.903 1.144.286.47-1.883c.312.085.615.163.912.237l-.468 1.874 1.146.285.474-1.9c1.953.37 3.421.221 4.04-1.545.498-1.423-.025-2.243-1.053-2.778.749-.173 1.312-.665 1.463-1.682.207-1.389-.85-2.135-2.296-2.633z"/></g><g><path fill="#4d4d4d" d="M27.485 17.953h-.474a2.87 2.87 0 0 1-.568-.055 9.117 9.117 0 0 0-.277-.053l1.742-7.238c.32-.28.675-.466 1.072-.556.396-.085.715-.132.963-.132.757 0 1.278.239 1.56.713.28.477.422 1.136.422 1.982 0 .688-.115 1.349-.344 1.983a6.064 6.064 0 0 1-.937 1.704 4.589 4.589 0 0 1-1.415 1.203 3.587 3.587 0 0 1-1.744.449zm3.434-11.31a4.69 4.69 0 0 0-1.135.133c-.352.09-.705.212-1.056.37L30.365.33 26.27.964 21.7 20.171a8.144 8.144 0 0 0 1.626.58c.571.142 1.113.248 1.625.32.509.068.963.109 1.359.117.395.008.675.013.834.013 1.231 0 2.378-.234 3.433-.7a8.637 8.637 0 0 0 2.748-1.901 8.944 8.944 0 0 0 1.836-2.828 8.896 8.896 0 0 0 .673-3.448c0-.792-.097-1.531-.29-2.22a5.12 5.12 0 0 0-.896-1.796 4.414 4.414 0 0 0-1.536-1.216c-.615-.297-1.346-.45-2.193-.45z"/></g><g><path fill="#4d4d4d" d="M43.026 5.046a2.755 2.755 0 0 0 1.452-1.415c.15-.327.224-.675.224-1.047 0-.668-.22-1.167-.66-1.495A2.424 2.424 0 0 0 42.565.6c-.37 0-.718.07-1.045.21a2.794 2.794 0 0 0-1.454 1.417 2.492 2.492 0 0 0-.223 1.045c0 .672.219 1.171.661 1.495.44.327.934.49 1.48.49.37 0 .716-.068 1.043-.211zm.383 1.892h-3.937l-3.302 13.9h3.91z"/></g><g><path fill="#4d4d4d" d="M46.836 3.474l4.095-.634-1.005 4.096h4.386l-.792 3.222h-4.36L48 15.018a5.497 5.497 0 0 0-.185 1.136c-.02.353.026.657.131.912.105.256.294.454.568.593.273.142.663.214 1.176.214.421 0 .832-.04 1.23-.12a8.722 8.722 0 0 0 1.2-.33l.292 3.013c-.529.194-1.1.36-1.717.5-.618.143-1.349.211-2.194.211-1.215 0-2.156-.18-2.827-.54-.67-.36-1.144-.855-1.428-1.48-.28-.624-.404-1.343-.37-2.152.037-.812.16-1.665.37-2.564l2.59-10.937z"/></g><g><path fill="#4d4d4d" d="M54.14 15.28c0-1.197.194-2.326.581-3.382a8.32 8.32 0 0 1 1.666-2.776 7.8 7.8 0 0 1 2.63-1.875c1.027-.457 2.178-.687 3.446-.687.793 0 1.502.075 2.126.225a8.61 8.61 0 0 1 1.705.594l-1.348 3.067a12.626 12.626 0 0 0-1.096-.383c-.379-.117-.84-.173-1.387-.173-1.305 0-2.337.45-3.105 1.347-.765.897-1.15 2.105-1.15 3.62 0 .898.194 1.624.582 2.18.387.556 1.102.832 2.14.832.512 0 1.006-.054 1.48-.158a7.29 7.29 0 0 0 1.268-.396l.292 3.143c-.494.192-1.04.365-1.638.517-.6.147-1.313.223-2.14.223-1.093 0-2.018-.16-2.775-.475-.756-.32-1.382-.744-1.874-1.282a4.83 4.83 0 0 1-1.07-1.89 7.755 7.755 0 0 1-.333-2.271z"/></g><g><path fill="#4d4d4d" d="M74.979 10.63c.281.493.422 1.181.422 2.06 0 .546-.075 1.124-.222 1.73a6.291 6.291 0 0 1-.674 1.678c-.3.511-.669.934-1.106 1.268-.44.336-.948.503-1.528.503-.738 0-1.246-.247-1.528-.739-.28-.494-.421-1.18-.421-2.062 0-.547.073-1.122.222-1.73.151-.607.374-1.166.674-1.678.298-.51.667-.933 1.106-1.269a2.46 2.46 0 0 1 1.526-.5c.738 0 1.248.247 1.529.738zm-3.476 10.568c1.286 0 2.419-.27 3.395-.807a7.755 7.755 0 0 0 2.444-2.073 9.159 9.159 0 0 0 1.48-2.852c.332-1.059.5-2.117.5-3.172 0-.845-.114-1.617-.344-2.311a5.16 5.16 0 0 0-1.015-1.81 4.521 4.521 0 0 0-1.717-1.189c-.697-.281-1.503-.424-2.42-.424-1.248 0-2.36.27-3.327.805a8.12 8.12 0 0 0-2.455 2.077 8.981 8.981 0 0 0-1.52 2.852 10.197 10.197 0 0 0-.514 3.172c0 .844.11 1.614.342 2.31.23.696.567 1.3 1.017 1.81.449.511 1.017.906 1.703 1.188.687.281 1.498.424 2.431.424z"/></g><g><path fill="#4d4d4d" d="M85.488 5.256c.372 0 .72-.067 1.048-.21.325-.142.611-.33.86-.568.246-.24.445-.52.594-.847.148-.327.227-.675.227-1.047 0-.668-.223-1.167-.664-1.495A2.433 2.433 0 0 0 86.07.6c-.37 0-.719.07-1.044.21a2.926 2.926 0 0 0-.86.57c-.248.24-.448.52-.597.848-.15.327-.225.674-.225 1.044 0 .672.221 1.171.662 1.495.44.327.935.49 1.482.49zm-1.904 15.581L86.91 6.938h-3.939l-3.302 13.9z"/></g><g><path fill="#4d4d4d" d="M89.729 7.572c.296-.087.628-.19.988-.304a14.579 14.579 0 0 1 2.722-.554 16.919 16.919 0 0 1 1.888-.094c2.062 0 3.484.6 4.269 1.798.784 1.198.92 2.837.41 4.914l-1.798 7.503h-3.936l1.743-7.345c.107-.459.19-.902.252-1.335.062-.43.059-.808-.014-1.136a1.36 1.36 0 0 0-.488-.793c-.258-.202-.647-.304-1.176-.304-.51 0-1.029.055-1.558.16l-2.563 10.752H86.53l3.199-13.262z"/></g></g></g></svg>