<svg height="26" viewBox="0 0 99 26" width="99" xmlns="http://www.w3.org/2000/svg"><path d="m36.122 5.746a1.31 1.31 0 0 1 -1.306 1.306 1.31 1.31 0 0 1 -1.306-1.306 1.31 1.31 0 0 1 1.306-1.306c.731.026 1.306.6 1.306 1.306z" fill="#626264"/><path d="m85.962 5.776a1.31 1.31 0 0 1 -1.306 1.306 1.31 1.31 0 0 1 -1.306-1.306 1.31 1.31 0 0 1 1.306-1.306c.731 0 1.306.6 1.306 1.306z" fill="#626264"/><path d="m25.681 12.876c0 7.078-5.747 12.825-12.825 12.825-7.08 0-12.826-5.747-12.826-12.825.026-7.08 5.747-12.826 12.826-12.826 7.078 0 12.825 5.747 12.825 12.826zm-17.057.418-1.593.626-.575 2.142 1.62-.548-1.072 4.44 11.598.027.706-2.848h-7.053l.914-3.422 1.907-.81.548-2.089-1.854.627 1.463-5.59-4.598-.078z" fill="#b8b9bb"/><g fill="#626264"><path d="m29.18 3.74h1.724v18.363h-1.724z"/><path d="m43.705 10.217-.026 1.567-2.455.026v10.318h-1.724v-10.318h-2.09v-1.62h2.09v-4.44h1.724v4.44h2.481z"/><path d="m47.412 12.903c1.124-1.123 2.955-1.49 4.472-.967 1.49.47 2.51 1.933 2.641 3.448h-8.343c.157-.914.55-1.828 1.23-2.481zm1.592-2.743c-1.698.34-3.213 1.489-3.945 3.082a7.033 7.033 0 0 0 -.157 5.538 5.759 5.759 0 0 0 3.266 3.187 6.517 6.517 0 0 0 4.858-.13c1.254-.55 2.299-1.568 2.847-2.822-.548-.104-1.097-.261-1.671-.34l-.235.236c-1.306 1.933-4.284 2.298-6.139.914-.94-.68-1.489-1.75-1.646-2.873h10.058c.287-2.142-.444-4.572-2.272-5.878-1.411-1.045-3.266-1.254-4.963-.914z"/><path d="m59.248 11.991c2.246-2.481 6.556-2.664 8.986-.365-.392.418-.81.81-1.228 1.227-1.698-1.489-4.44-1.489-6.139-.026-2.037 1.724-1.907 5.303.21 6.896 1.697 1.332 4.31 1.254 5.929-.209l1.228 1.202c-2.3 2.09-6.217 2.168-8.516.104-2.455-2.194-2.664-6.4-.47-8.829z"/><path d="m90.274 12.116c.653-1.386 2.325-2.116 3.918-2.116.732 0 1.463.13 2.064.418 1.201.522 1.88 1.541 2.22 2.717.21.679.287 1.41.287 2.115l-.026 6.896h-1.697v-6.791c0-1.019-.209-2.116-.914-2.873-.705-.706-1.802-.889-2.743-.68-1.097.157-2.141.81-2.664 1.829-.313.627-.444 1.306-.444 2.011v6.504h-1.725v-11.885l1.724.026z"/><path d="m74.054 11.86c1.931-.523 4.227.26 5.193 2.09.834 1.514.704 3.526-.314 4.936-1.409 1.96-4.435 2.325-6.366.915-1.644-1.124-2.218-3.422-1.54-5.277.47-1.332 1.644-2.35 3.027-2.664zm-.153-1.724c-1.698.313-3.265 1.384-4.075 2.925-1.28 2.377-.966 5.616 1.019 7.523 1.175 1.202 2.873 1.829 4.545 1.75 1.985.026 3.97-.966 5.068-2.612.94-1.384 1.201-3.134.94-4.78-.261-1.567-1.176-3.03-2.534-3.892-1.437-.967-3.265-1.228-4.963-.914z"/><path d="m33.96 22.121v-11.859l1.646-.052.026 11.911z"/><path d="m85.492 22.121h-1.672l.026-11.911h1.646z"/></g></svg>