<?xml version="1.0" encoding="utf-8"?>
<!-- Generator: Adobe Illustrator 22.1.0, SVG Export Plug-In . SVG Version: 6.00 Build 0)  -->
<svg version="1.1" id="Слой_1" xmlns="http://www.w3.org/2000/svg" xmlns:xlink="http://www.w3.org/1999/xlink" x="0px" y="0px"
	 viewBox="0 0 100.9 22" style="enable-background:new 0 0 100.9 22;" xml:space="preserve" width="180" height="35">
<style type="text/css">
	.st0{fill:#FFFFFF;}
	.st1{fill:#F01010;}
</style>
<path class="st0" d="M13,9.3c-0.3,1.3-2.3,0.6-3,0.5l0.6-2.3C11.3,7.6,13.4,7.9,13,9.3z M12.7,13c-0.4,1.4-2.7,0.7-3.5,0.5l0.6-2.5
	C10.6,11.1,13.1,11.5,12.7,13z M13,6.6l0.5-1.9l-1.1-0.3l-0.5,1.8c-0.3-0.1-0.6-0.1-0.9-0.2l0.5-1.8L10.3,4L9.8,5.8
	C9.6,5.8,9.3,5.7,9.1,5.7v0L7.5,5.3L7.2,6.5c0,0,0.8,0.2,0.8,0.2c0.5,0.1,0.5,0.4,0.5,0.7L8,9.5c0,0,0.1,0,0.1,0L8,9.5l-0.7,3
	c-0.1,0.1-0.2,0.4-0.5,0.3c0,0-0.8-0.2-0.8-0.2l-0.6,1.3l1.5,0.4c0.3,0.1,0.6,0.1,0.8,0.2l-0.5,1.9l1.1,0.3l0.5-1.9
	c0.3,0.1,0.6,0.2,0.9,0.2l-0.5,1.9l1.1,0.3l0.5-1.9c2,0.4,3.4,0.2,4-1.5c0.5-1.4,0-2.2-1.1-2.8c0.7-0.2,1.3-0.7,1.5-1.7
	C15.5,7.9,14.5,7.1,13,6.6L13,6.6z"/>
<g>
	<g>
		<path class="st1" d="M91,2.7c1.7,0,3,1.4,3,3l0,0c0,1.7-1.4,3-3,3c-1.7,0-3-1.4-3-3C87.9,4.1,89.3,2.7,91,2.7z"/>
		<path class="st1" d="M84.2,8.2c-0.1,0-0.1,0.1-0.1,0.2c0,0.1,0,0.2,0.1,0.2l0.4,0.1c0.1,0,0.2,0.1,0.3,0.1
			c0.1,0.1,0.1,0.1,0.1,0.1c0,0.1-0.1,0.2-0.1,0.5c-0.1,0.2-0.2,0.6-0.4,1l-0.5,1.2c-0.1,0.3-0.2,0.6-0.4,0.7
			c-0.1,0.2-0.2,0.3-0.2,0.3s-0.1-0.1-0.1-0.2c-0.1-0.1-0.1-0.3-0.2-0.4c-0.1-0.2-0.1-0.3-0.1-0.4l-0.4-1.4
			c-0.1-0.1-0.1-0.2-0.2-0.4c-0.1-0.2-0.1-0.4-0.2-0.6c-0.1-0.2-0.1-0.3-0.1-0.4s0-0.1,0.1-0.1c0.1,0,0.1-0.1,0.2-0.1l0.4-0.1
			c0.1-0.1,0.1-0.1,0.1-0.2s-0.1-0.1-0.1-0.2c-0.2,0-0.4,0-0.7,0.1h-0.6h-0.7c-0.2,0-0.4,0-0.7-0.1c-0.1,0-0.1,0.1-0.1,0.2
			c0,0.1,0,0.2,0.1,0.2l0.4,0.1c0.2,0.1,0.4,0.2,0.6,0.4c0.1,0.2,0.2,0.4,0.3,0.8l1.2,3.2c0.1,0.2,0.2,0.4,0.2,0.6
			c0,0.1,0.1,0.3,0.1,0.4s0,0.2-0.1,0.4c0,0.1-0.1,0.2-0.1,0.3c-0.1,0.2-0.2,0.4-0.3,0.7c-0.1,0.3-0.3,0.6-0.6,1
			c-0.1,0.1-0.1,0.1-0.2,0.2c-0.1,0.1-0.2,0.1-0.3,0.1h-0.3c-0.2,0-0.3,0.1-0.4,0.2c-0.1,0.1-0.2,0.2-0.2,0.4c0,0.2,0.1,0.4,0.2,0.4
			c0.1,0.1,0.3,0.2,0.5,0.2s0.4,0,0.5-0.1c0.2-0.1,0.3-0.3,0.4-0.6c0.2-0.4,0.4-0.9,0.6-1.4c0.2-0.5,0.4-1,0.7-1.5
			c0.2-0.5,0.4-1,0.6-1.4s0.4-0.7,0.5-1l0.8-1.7c0.2-0.5,0.4-0.9,0.6-1.1C85.8,9,86,8.9,86.3,8.8l0.2-0.1c0.1-0.1,0.1-0.1,0.1-0.2
			s-0.1-0.1-0.1-0.2c-0.2,0-0.4,0-0.6,0.1h-0.6h-0.6C84.6,8.2,84.4,8.2,84.2,8.2L84.2,8.2z"/>
		<path class="st1" d="M37.7,8.1C37.4,8,37.2,8,37.1,8c-0.8,0-1.5,0.2-2,0.5c-0.5,0.4-0.9,0.7-1.2,1.2s-0.4,1.1-0.4,1.5
			c0,0.5,0.1,0.9,0.2,1.2c0.2,0.4,0.4,0.7,0.6,0.9s0.6,0.4,0.9,0.6c0.4,0.1,0.7,0.2,1.1,0.2c0.3,0,0.6-0.1,0.9-0.1
			c0.3-0.1,0.6-0.3,0.9-0.5c0.3-0.2,0.5-0.5,0.7-0.9c0-0.1-0.1-0.1-0.1-0.1c-0.1,0-0.2,0-0.2,0c-0.2,0.2-0.4,0.4-0.6,0.6
			s-0.6,0.2-1,0.2c-0.6,0-1-0.1-1.4-0.4s-0.6-0.6-0.8-1c-0.2-0.4-0.3-0.8-0.3-1.2c0-0.6,0.1-1,0.3-1.4c0.2-0.4,0.4-0.6,0.7-0.8
			c0.3-0.2,0.6-0.2,1-0.2c0.3,0,0.6,0.1,0.9,0.2c0.2,0.1,0.4,0.3,0.6,0.5C38,9.3,38,9.3,38.1,9.4h0.1c0.1,0,0.2-0.1,0.2-0.2
			c0.1-0.1,0.1-0.2,0.1-0.4s0-0.2-0.1-0.4c-0.1,0-0.1-0.1-0.2-0.2C38.1,8.2,37.9,8.2,37.7,8.1L37.7,8.1z"/>
		<path class="st1" d="M31.8,9c0.1,0.1,0.1,0.3,0.1,0.4s0,0.2-0.1,0.2c0,0.1-0.1,0.1-0.1,0.1c-0.1,0.1-0.2,0.1-0.4,0.1
			c-0.2,0-0.6,0.1-1.2,0.1h-1.1c-0.1,0-0.1,0-0.1,0c0,0,0,0,0-0.1c0-0.2,0.1-0.4,0.2-0.6c0.2-0.2,0.4-0.4,0.6-0.5
			c0.2-0.1,0.5-0.2,0.8-0.2s0.5,0.1,0.7,0.2C31.6,8.8,31.7,8.9,31.8,9L31.8,9z M33,10.1c0-0.1,0-0.2,0-0.2c0-0.3-0.1-0.6-0.2-0.9
			c-0.2-0.2-0.4-0.5-0.7-0.7S31.3,8,30.9,8c-0.6,0-1.1,0.2-1.5,0.5s-0.8,0.7-1.1,1.2s-0.4,1.1-0.4,1.7c0,0.3,0.1,0.7,0.1,1
			c0.1,0.3,0.2,0.6,0.4,0.9c0.2,0.3,0.5,0.5,0.9,0.7c0.4,0.2,0.8,0.2,1.3,0.3c0.2,0,0.5-0.1,0.8-0.1c0.3-0.1,0.6-0.2,0.9-0.4
			c0.2-0.2,0.4-0.5,0.6-0.8c0-0.1-0.1-0.1-0.1-0.2c-0.1,0-0.1-0.1-0.2,0c-0.2,0.3-0.4,0.5-0.7,0.6c-0.2,0.1-0.4,0.2-0.7,0.1
			c-0.6,0-1-0.1-1.4-0.4c-0.4-0.2-0.6-0.6-0.8-1c-0.2-0.4-0.3-0.9-0.3-1.4c0-0.2,0-0.3,0.1-0.4c0.1-0.1,0.1-0.1,0.3-0.1h2.7
			c0.3,0,0.5,0,0.7,0c0.1,0,0.2-0.1,0.2-0.1C33,10.2,33,10.1,33,10.1L33,10.1z"/>
		<path class="st1" d="M39.2,8.8c0,0.1,0.1,0.1,0.1,0.1h0.4c0.1,0,0.2,0,0.3,0.1c0,0.1,0.1,0.2,0.1,0.4v3.4c0,0.3,0,0.6,0.1,0.8
			s0.2,0.4,0.4,0.6c0.2,0.1,0.6,0.2,1,0.2c0.4,0,0.7-0.1,1-0.2c0.2-0.1,0.4-0.3,0.6-0.4c0-0.1,0-0.1,0-0.1s-0.1-0.1-0.1-0.1
			c0,0-0.1,0.1-0.2,0.1c-0.1,0.1-0.1,0.1-0.2,0.1c-0.1,0-0.1,0.1-0.2,0.1s-0.2,0-0.2,0c-0.3,0-0.6-0.1-0.7-0.2
			c-0.2-0.1-0.2-0.4-0.3-0.6c-0.1-0.2-0.1-0.5-0.1-0.8V9.3c0-0.1,0-0.2,0.1-0.3c0-0.1,0.1-0.1,0.2-0.1h1.7c0.1-0.1,0.1-0.2,0.1-0.3
			c0-0.1,0-0.2-0.1-0.3h-1.7c-0.1,0-0.2,0-0.2-0.1c0,0-0.1-0.1-0.1-0.2V7.3C41,7.3,41,7.3,40.9,7.3s-0.1,0-0.2,0
			c-0.1,0.2-0.2,0.3-0.3,0.5c-0.1,0.2-0.2,0.3-0.3,0.4c-0.1,0.1-0.2,0.2-0.4,0.2c-0.2,0.1-0.4,0.2-0.6,0.2
			C39.3,8.6,39.2,8.7,39.2,8.8L39.2,8.8z"/>
		<path class="st1" d="M21,8c0-0.1,0-0.1-0.1-0.1h-0.1c-0.1,0.1-0.3,0.2-0.5,0.2c-0.1,0.1-0.3,0.2-0.5,0.2c-0.2,0.1-0.4,0.2-0.4,0.2
			c-0.1,0-0.1,0.1-0.1,0.1c0,0.1,0,0.1,0.1,0.1l0.1,0.1C19.7,9,19.8,9,19.9,9.1S20,9.3,20,9.4c0,0.1,0,0.2,0,0.4v2.6
			c0,0.4,0,0.6,0,0.8s-0.1,0.3-0.2,0.4c-0.1,0.1-0.2,0.1-0.4,0.1l-0.3,0.1c-0.1,0.1-0.1,0.1-0.1,0.2c0,0.1,0.1,0.1,0.1,0.2
			c0.2,0,0.4-0.1,0.6-0.1h0.7h0.7c0.2,0,0.6,0.1,0.9,0.1c0.1-0.1,0.1-0.1,0.1-0.2c0-0.1,0-0.2-0.1-0.2l-0.6-0.1
			c-0.2,0-0.3-0.1-0.4-0.1c-0.1-0.1-0.2-0.2-0.2-0.4c0-0.2,0-0.4,0-0.8v-2c0-0.2,0-0.5,0.1-0.7c0.1-0.2,0.1-0.4,0.2-0.4
			c0.1-0.1,0.1-0.2,0.2-0.2C21.6,9,21.7,9,21.8,9s0.2,0,0.3,0.1c0.1,0.1,0.2,0.1,0.4,0.2c0.1,0,0.1,0.1,0.1,0.1c0.1,0,0.1,0,0.2,0
			c0.1,0,0.3-0.1,0.4-0.1c0.1-0.1,0.2-0.3,0.2-0.5c0-0.2-0.1-0.4-0.2-0.4C23.2,8.1,23,8,22.9,8c-0.3,0-0.6,0.1-0.8,0.3
			c-0.3,0.2-0.6,0.4-0.8,0.6c0,0-0.1-0.1-0.1-0.1V8H21z"/>
		<path class="st1" d="M17.5,9c0.1,0.1,0.1,0.3,0.1,0.4c0,0.1,0,0.2,0,0.2c0,0.1-0.1,0.1-0.1,0.1c-0.1,0.1-0.2,0.1-0.4,0.1
			c-0.2,0-0.6,0.1-1.1,0.1H15c-0.1,0-0.1,0-0.1,0c0,0,0,0,0-0.1c0-0.2,0.1-0.4,0.2-0.6c0.2-0.2,0.4-0.4,0.6-0.5s0.5-0.2,0.8-0.2
			c0.3,0,0.5,0.1,0.7,0.2C17.3,8.8,17.4,8.9,17.5,9L17.5,9z M18.7,10.1c0-0.1,0-0.2,0-0.2c0-0.3-0.1-0.6-0.2-0.9
			c-0.2-0.2-0.4-0.5-0.7-0.7C17.4,8.1,17,8,16.6,8C16,8,15.4,8.2,15,8.5c-0.4,0.3-0.8,0.7-1.1,1.2s-0.4,1.1-0.4,1.7
			c0,0.3,0.1,0.7,0.1,1c0.1,0.3,0.2,0.6,0.4,0.9c0.2,0.3,0.5,0.5,0.9,0.7c0.4,0.2,0.8,0.2,1.3,0.3c0.2,0,0.5-0.1,0.8-0.1
			c0.3-0.1,0.6-0.2,0.9-0.4c0.2-0.2,0.4-0.5,0.6-0.8c0-0.1-0.1-0.1-0.1-0.2c-0.1,0-0.1-0.1-0.2,0c-0.2,0.3-0.4,0.5-0.7,0.6
			c-0.2,0.1-0.4,0.2-0.7,0.1c-0.6,0-1-0.1-1.4-0.4s-0.6-0.6-0.8-1c-0.2-0.4-0.3-0.9-0.3-1.4c0-0.2,0-0.3,0.1-0.4s0.1-0.1,0.3-0.1
			h2.7c0.3,0,0.5,0,0.7,0c0.1,0,0.2-0.1,0.2-0.1C18.7,10.2,18.7,10.1,18.7,10.1L18.7,10.1z"/>
		<path class="st1" d="M29,3.8c-0.3-0.2-0.6-0.2-1.1-0.2c-0.5,0-0.9,0.1-1.2,0.3c-0.4,0.2-0.6,0.4-0.9,0.7c-0.2,0.3-0.4,0.6-0.5,0.9
			C25.2,5.9,25,6.3,25,6.7c-0.1,0.4-0.1,0.9-0.1,1.3c0,0.1,0,0.1-0.1,0.2c-0.1,0-0.1,0.1-0.2,0.1L24,8.6c0,0.1-0.1,0.1,0,0.2
			c0,0.1,0,0.1,0.1,0.1h0.5c0.1,0,0.2,0,0.2,0.1c0.1,0.1,0.1,0.2,0,0.4v3.2c0,0.4,0,0.6,0,0.8s-0.1,0.3-0.1,0.4
			c-0.1,0.1-0.2,0.1-0.4,0.1l-0.4,0.1c-0.1,0.1-0.1,0.1-0.1,0.2c0,0.1,0.1,0.1,0.1,0.2c0.2,0,0.4-0.1,0.7-0.1h0.8h0.7
			c0.2,0,0.5,0.1,0.9,0.1c0.1-0.1,0.1-0.1,0.1-0.2c0-0.1,0-0.2-0.1-0.2l-0.5-0.1c-0.2,0-0.3-0.1-0.4-0.1c-0.1-0.1-0.1-0.2-0.1-0.4
			c0-0.2,0-0.4,0-0.8V9.3c0-0.2,0-0.3,0-0.4s0.1-0.1,0.2-0.1h1.5c0.1,0,0.1-0.1,0.2-0.1C28,8.6,28,8.6,28,8.5c0-0.1,0-0.2-0.1-0.2
			h-1.7c-0.1,0-0.2,0-0.2-0.1c0-0.1,0-0.2,0-0.4V7.4c0-0.2,0-0.5,0-0.8S26,6,26.1,5.7c0-0.3,0.1-0.6,0.2-0.8s0.2-0.4,0.4-0.6
			c0.2-0.1,0.4-0.2,0.6-0.2s0.5,0.1,0.7,0.2c0.2,0.1,0.4,0.3,0.5,0.4c0.1,0.1,0.1,0.1,0.2,0.1c0.1,0,0.1,0.1,0.2,0.1
			c0.2,0,0.3-0.1,0.4-0.1c0.1-0.1,0.2-0.2,0.2-0.4C29.4,4.1,29.3,3.9,29,3.8L29,3.8z"/>
		<path class="st1" d="M69.2,7.8c-0.1,0-0.1,0-0.1,0c-0.1,0.1-0.2,0.2-0.4,0.2c-0.3,0.1-0.7,0.4-1.1,0.4c-0.1,0-0.1,0.1-0.1,0.1
			s0,0.1,0.1,0.1l0.1,0.1C67.8,9,67.9,9,68,9.1c0.1,0.1,0.1,0.1,0.1,0.2c0,0.1,0,0.3,0,0.5v2.6c0,0.4,0,0.6,0,0.8
			c0,0.2-0.1,0.3-0.1,0.4c-0.1,0.1-0.2,0.1-0.4,0.1l-0.3,0.1c-0.1,0.1-0.1,0.1-0.1,0.2c0,0.1,0,0.1,0.1,0.2c0.2,0,0.4-0.1,0.7-0.1
			h0.7h0.7c0.2,0,0.4,0.1,0.6,0.1c0.1-0.1,0.1-0.1,0.1-0.2c0-0.1,0-0.2-0.1-0.2l-0.2-0.1c-0.2,0-0.3-0.1-0.4-0.1
			c-0.1-0.1-0.1-0.2-0.1-0.4c0-0.2,0-0.4,0-0.8v-2.3c0-0.4,0-0.6,0.2-0.9C69.7,9,69.9,8.8,70,8.8c0.2-0.1,0.4-0.1,0.7-0.1
			c0.5,0,0.9,0.2,1.1,0.4c0.2,0.2,0.3,0.6,0.3,1.1v2.2c0,0.4,0,0.6,0,0.8s-0.1,0.3-0.1,0.4c-0.1,0.1-0.2,0.1-0.4,0.1l-0.3,0.1
			c-0.1,0.1-0.1,0.1-0.1,0.2c0,0.1,0.1,0.1,0.1,0.2c0.2,0,0.4-0.1,0.6-0.1h0.7h0.7c0.2,0,0.4,0.1,0.7,0.1c0.1-0.1,0.1-0.1,0.1-0.2
			c0-0.1,0-0.2-0.1-0.2l-0.3-0.1c-0.2,0-0.3-0.1-0.4-0.1s-0.1-0.2-0.1-0.4c0-0.2,0-0.4,0-0.8V9.8c0-0.4-0.1-0.6-0.2-0.9
			c-0.1-0.3-0.3-0.5-0.6-0.7c-0.2-0.2-0.6-0.2-1-0.2c-0.4,0-0.7,0.1-1.1,0.2c-0.4,0.1-0.7,0.3-1,0.5c-0.1,0-0.1,0-0.1-0.1
			c0,0-0.1-0.1-0.1-0.1V8.3c0-0.1,0-0.2,0-0.4C69.2,7.9,69.2,7.9,69.2,7.8L69.2,7.8z"/>
		<path class="st1" d="M64.9,9c0.3,0.3,0.5,0.6,0.6,1.1c0.1,0.4,0.2,0.9,0.2,1.3c0,0.4-0.1,0.8-0.2,1.2c-0.1,0.4-0.3,0.7-0.5,1
			c-0.2,0.2-0.6,0.4-1.1,0.4c-0.4,0-0.8-0.1-1.1-0.4c-0.3-0.3-0.5-0.6-0.6-1.1c-0.1-0.4-0.2-0.9-0.2-1.4c0-0.8,0.2-1.5,0.5-1.9
			c0.3-0.4,0.7-0.7,1.2-0.7C64.3,8.5,64.7,8.6,64.9,9L64.9,9z M66.6,12.8c0.2-0.5,0.4-1.1,0.4-1.7c0-0.6-0.2-1.1-0.4-1.6
			c-0.2-0.4-0.6-0.8-1.1-1.1C65,8.2,64.4,8,63.9,8c-0.6,0-1.1,0.2-1.6,0.4c-0.5,0.2-0.9,0.6-1.1,1.1c-0.3,0.5-0.4,1.1-0.4,1.7
			c0,0.6,0.1,1.2,0.4,1.6c0.2,0.4,0.6,0.8,1.1,1.1c0.4,0.2,1,0.4,1.5,0.4c0.6,0,1.2-0.1,1.7-0.4C66,13.7,66.3,13.3,66.6,12.8
			L66.6,12.8z"/>
		<path class="st1" d="M75.7,9.8C75.6,9.8,75.6,9.8,75.7,9.8C75.6,9.8,75.6,9.8,75.7,9.8c-0.1-0.2,0.1-0.4,0.2-0.6
			c0.2-0.2,0.4-0.4,0.6-0.5c0.2-0.1,0.5-0.2,0.8-0.2c0.3,0,0.5,0.1,0.7,0.2c0.2,0.1,0.3,0.2,0.4,0.4c0.1,0.1,0.1,0.3,0.1,0.4
			c0,0.1,0,0.2,0,0.2c0,0.1-0.1,0.1-0.1,0.1c-0.1,0.1-0.2,0.1-0.4,0.1c-0.2,0-0.6,0.1-1.2,0.1L75.7,9.8L75.7,9.8z M75.4,10.4
			c0.1-0.1,0.2-0.1,0.4-0.1h2.7c0.3,0,0.5,0,0.7,0c0.2-0.1,0.3-0.2,0.3-0.5c0-0.3-0.1-0.6-0.3-0.9c-0.2-0.2-0.4-0.5-0.7-0.7
			C78.2,8.1,77.8,8,77.4,8c-0.6,0-1.1,0.2-1.5,0.5c-0.4,0.3-0.8,0.7-1.1,1.2c-0.2,0.5-0.4,1.1-0.4,1.7c0,0.3,0.1,0.7,0.2,1
			c0.1,0.3,0.2,0.6,0.4,0.9c0.2,0.3,0.5,0.5,0.9,0.7c0.4,0.2,0.8,0.2,1.3,0.3c0.2,0,0.6-0.1,0.9-0.1c0.3-0.1,0.6-0.2,0.9-0.4
			c0.2-0.2,0.5-0.5,0.7-0.8c0-0.1-0.1-0.1-0.1-0.2c-0.1,0-0.1-0.1-0.2,0c-0.2,0.3-0.4,0.5-0.7,0.6c-0.2,0.1-0.4,0.2-0.7,0.1
			c-0.6,0-1-0.1-1.4-0.4s-0.6-0.6-0.9-1c-0.1-0.2-0.2-0.5-0.2-0.8c-0.1-0.2-0.1-0.5-0.1-0.7C75.4,10.4,75.4,10.4,75.4,10.4z"/>
		<path class="st1" d="M49.9,4.3h-0.6c-0.2,0-0.4,0-0.6-0.1c-0.1,0-0.1,0.1-0.1,0.2c0,0.1,0,0.1,0.1,0.2h0.2
			c0.3,0.1,0.5,0.1,0.7,0.2c0.1,0.1,0.2,0.2,0.3,0.4c0.1,0.2,0.1,0.4,0.1,0.7c0,0.4-0.1,0.9-0.1,1.5s-0.1,1.2-0.1,1.8
			c0,0.5-0.1,0.9-0.1,1.2c0,0.4-0.1,0.7-0.1,1.1s-0.1,0.6-0.1,1c-0.1,0.4-0.1,0.6-0.1,0.7c-0.1,0.2-0.2,0.2-0.3,0.3
			c-0.1,0.1-0.3,0.1-0.5,0.1l-0.3,0.1c-0.1,0.1-0.1,0.1-0.1,0.2c0,0.1,0,0.1,0.1,0.2c0.2,0,0.5-0.1,0.7-0.1h0.7h0.8
			c0.3,0,0.6,0.1,0.8,0.1c0.1-0.1,0.1-0.1,0.1-0.2c0-0.1,0-0.1-0.1-0.2l-0.6,0c-0.2,0-0.3-0.1-0.4-0.1c-0.1-0.1-0.2-0.2-0.2-0.4
			c-0.1-0.2-0.1-0.5-0.1-0.9c0-0.6,0-1.2,0.1-1.9c0-0.6,0.1-1.2,0.1-1.6c0-0.4,0.1-0.9,0.1-1.3c0-0.4,0.1-0.9,0.1-1.3h0.1
			c0.2,0.4,0.3,0.7,0.4,1.1c0.2,0.4,0.3,0.7,0.5,1.1l1.4,2.8c0.1,0.2,0.2,0.6,0.4,0.9c0.2,0.4,0.4,0.7,0.5,1.1
			c0.2,0.4,0.3,0.7,0.4,1c0,0,0.1,0,0.1,0.1h0.1c0.1,0,0.1,0,0.1,0c0,0,0.1,0,0.1-0.1c0.1-0.2,0.2-0.6,0.4-0.9
			c0.2-0.4,0.4-0.7,0.6-1.2c0.2-0.4,0.4-0.9,0.7-1.3l0.8-1.6c0.5-1,0.9-2.2,1.5-3l0,0l0.1,6.2c0,0.3,0,0.6,0,0.7
			c-0.1,0.4-0.4,0.5-0.7,0.5l-0.4,0.1c-0.1,0.1-0.1,0.1-0.1,0.2c0,0.1,0,0.1,0.1,0.2c0.3,0,0.6-0.1,0.9-0.1H59h0.9
			c0.3,0,0.6,0.1,0.9,0.1c0.1-0.1,0.1-0.1,0.1-0.2c0-0.1,0-0.1-0.1-0.2l-0.5-0.1c-0.3-0.1-0.6-0.2-0.7-0.6c0-0.2-0.1-0.4-0.1-0.6
			c-0.1-0.7-0.1-1.5-0.1-2.3S59.5,8.7,59.5,8V6c0-0.4,0-0.6,0.1-0.8s0.1-0.4,0.3-0.4c0.1-0.1,0.4-0.1,0.7-0.2h0.3c0-0.1,0-0.1,0-0.2
			c0-0.1,0-0.1-0.1-0.2c-0.2,0-0.5,0-0.7,0.1h-0.6c-0.4,0-0.7,0-1.1-0.1c0,0.4-0.1,0.7-0.3,1.2c-0.2,0.4-0.5,1.1-0.8,1.7l-1.4,2.8
			c-0.2,0.4-0.4,0.7-0.6,1.1c-0.2,0.4-0.4,0.7-0.6,1.1h-0.1c-0.2-0.4-0.4-0.7-0.5-1c-0.2-0.4-0.4-0.7-0.5-1.1l-1.7-3.4
			c-0.2-0.5-0.4-0.9-0.6-1.4c-0.1-0.4-0.2-0.8-0.2-1.1C50.7,4.3,50.3,4.3,49.9,4.3L49.9,4.3z"/>
		<path class="st1" d="M6.8,4.6c0,0.1,0,0.1,0.1,0.2l0.5,0.1c0.2,0,0.4,0.1,0.5,0.2C8,5.1,8.1,5.2,8.1,5.4c0.1,0.2,0.1,0.6,0.1,1v3
			c0.4,0,0.8,0,1.2,0V5.3c0-0.2,0-0.3,0.1-0.4c0-0.1,0.1-0.1,0.2-0.1c0.1,0,0.3,0,0.6,0c0.7,0,1.4,0.2,1.8,0.6
			c0.4,0.4,0.6,1,0.6,1.7c0,0.6-0.1,1.2-0.5,1.6c-0.3,0.4-0.7,0.7-1.4,0.8c-0.6,0.1-1.4,0.2-2.5,0.2c-1,0-2-0.1-3.2-0.2
			c1.2,0.2,2.2,0.4,2.8,0.5c1.1,0.1,2,0.1,2.9-0.1c0.4-0.1,0.9-0.2,1.2-0.3C12.3,9.5,12.7,9.3,13,9c0.2-0.2,0.4-0.4,0.6-0.7
			c0.1-0.3,0.2-0.7,0.2-1.2s-0.1-0.9-0.4-1.3S13,5.1,12.7,4.9c-0.4-0.2-0.7-0.4-1.2-0.4c-0.4-0.1-1-0.2-1.6-0.2c-0.6,0-1.1,0-1.6,0
			C7.8,4.3,7.3,4.3,6.9,4.4C6.9,4.4,6.8,4.5,6.8,4.6L6.8,4.6z"/>
		<path class="st1" d="M9.3,11.9v-1.4c-0.4,0-0.9,0-1.2-0.1v1.5c0,0.5,0,0.9-0.1,1.1c0,0.2-0.1,0.4-0.2,0.5
			c-0.1,0.1-0.3,0.2-0.6,0.2l-0.3,0.1c0,0.1-0.1,0.1,0,0.2c0,0.1,0,0.1,0.1,0.2c0.3,0,0.6-0.1,0.9-0.1h0.9h0.9
			c0.3,0,0.7,0.1,1.1,0.1c0.1-0.1,0.1-0.1,0.1-0.2c0-0.1,0-0.2-0.1-0.2l-0.4-0.1c-0.3,0-0.6-0.1-0.7-0.2c-0.1-0.1-0.2-0.2-0.3-0.5
			C9.3,12.8,9.3,12.4,9.3,11.9L9.3,11.9z"/>
	</g>
	<path d="M49.6,16.6h0.6v2.2c0,0.9-0.4,1.2-1.1,1.2c-0.2,0-0.4,0-0.5-0.1l0.1-0.5c0.1,0,0.2,0.1,0.4,0.1c0.4,0,0.6-0.2,0.6-0.7
		C49.6,18.7,49.6,16.6,49.6,16.6z"/>
	<path d="M53.4,19.2c0,0.3,0,0.6,0,0.7h-0.6v-0.4l0,0C52.7,19.7,52.5,20,52,20s-0.9-0.2-0.9-1.1v-1.4h0.6v1.3c0,0.4,0.1,0.7,0.4,0.7
		c0.2,0,0.4-0.2,0.5-0.3c0-0.1,0.1-0.1,0.1-0.2v-1.5h0.6C53.4,17.5,53.4,19.2,53.4,19.2z"/>
	<path d="M54.4,19.4c0.1,0.1,0.4,0.2,0.6,0.2c0.2,0,0.4-0.1,0.4-0.2c0-0.2-0.1-0.2-0.4-0.4c-0.5-0.2-0.7-0.4-0.7-0.7
		c0-0.4,0.4-0.7,0.9-0.7c0.2,0,0.5,0.1,0.6,0.1L55.8,18c-0.1-0.1-0.3-0.1-0.5-0.1c-0.2,0-0.3,0.1-0.3,0.2c0,0.1,0.1,0.2,0.4,0.3
		c0.4,0.2,0.6,0.4,0.6,0.7c0,0.4-0.4,0.7-1,0.7c-0.3,0-0.6-0.1-0.7-0.2L54.4,19.4z"/>
	<path d="M57.7,16.9v0.6h0.6v0.4h-0.6V19c0,0.3,0.1,0.4,0.3,0.4c0.1,0,0.2,0,0.2,0v0.5C58.2,20,58,20,57.8,20
		c-0.2,0-0.4-0.1-0.6-0.2c-0.1-0.2-0.2-0.4-0.2-0.7V18h-0.4v-0.4H57v-0.4L57.7,16.9z"/>
	<path d="M61.1,18.9c0,0.1,0,0.1,0,0.2c0.1,0.2,0.3,0.4,0.6,0.4c0.4,0,0.6-0.3,0.6-0.8c0-0.4-0.2-0.8-0.6-0.8
		c-0.2,0-0.5,0.2-0.6,0.4c0,0.1,0,0.1,0,0.1V18.9z M60.5,18.3c0-0.3,0-0.6,0-0.8h0.6v0.4l0,0c0.2-0.2,0.4-0.4,0.8-0.4
		c0.6,0,1.1,0.5,1.1,1.2c0,0.9-0.6,1.3-1.1,1.3c-0.3,0-0.6-0.1-0.7-0.3l0,0v1.2h-0.6V18.3z"/>
	<path d="M65.3,18.4c0-0.2-0.1-0.6-0.5-0.6s-0.6,0.4-0.6,0.6H65.3z M64.3,18.9c0,0.4,0.4,0.6,0.7,0.6c0.3,0,0.5-0.1,0.7-0.1l0.1,0.4
		c-0.2,0.1-0.5,0.1-0.9,0.1c-0.8,0-1.2-0.5-1.2-1.2c0-0.7,0.4-1.3,1.2-1.3c0.8,0,1.1,0.6,1.1,1.2c0,0.1,0,0.2,0,0.2L64.3,18.9z"/>
	<path d="M66.8,18.2c0-0.3,0-0.6,0-0.8h0.6v0.4l0,0c0.1-0.4,0.4-0.5,0.7-0.5c0.1,0,0.1,0,0.1,0v0.6c-0.1,0-0.1,0-0.2,0
		c-0.3,0-0.5,0.2-0.6,0.4c0,0.1,0,0.1,0,0.2v1.2h-0.6L66.8,18.2z"/>
	<path d="M69.2,19.9v-2h-0.3v-0.4h0.3v-0.1c0-0.3,0.1-0.6,0.3-0.8c0.2-0.2,0.4-0.2,0.6-0.2s0.3,0,0.4,0.1l-0.1,0.5
		c-0.1,0-0.1-0.1-0.2-0.1c-0.3,0-0.4,0.2-0.4,0.6v0.1h0.6v0.4h-0.6v2H69.2z"/>
	<path d="M72.6,18.4c0-0.2-0.1-0.6-0.5-0.6c-0.4,0-0.6,0.4-0.6,0.6H72.6z M71.5,18.9c0,0.4,0.4,0.6,0.7,0.6c0.3,0,0.5-0.1,0.7-0.1
		l0.1,0.4c-0.2,0.1-0.5,0.1-0.9,0.1c-0.8,0-1.2-0.5-1.2-1.2c0-0.7,0.4-1.3,1.2-1.3c0.8,0,1.1,0.6,1.1,1.2c0,0.1,0,0.2,0,0.2
		L71.5,18.9z"/>
	<path d="M75.9,19.9c-0.1,0.1-0.4,0.1-0.7,0.1c-0.7,0-1.2-0.5-1.2-1.2s0.5-1.3,1.4-1.3c0.2,0,0.4,0.1,0.6,0.1L75.8,18
		c-0.1-0.1-0.2-0.1-0.4-0.1c-0.5,0-0.7,0.4-0.7,0.8c0,0.5,0.3,0.8,0.7,0.8c0.2,0,0.4-0.1,0.5-0.1V19.9z"/>
	<path d="M77.5,16.9v0.6H78v0.4h-0.6V19c0,0.3,0.1,0.4,0.3,0.4c0.1,0,0.2,0,0.2,0v0.5C78,20,77.8,20,77.6,20c-0.2,0-0.4-0.1-0.6-0.2
		c-0.1-0.1-0.2-0.4-0.2-0.7V18h-0.4v-0.4h0.4v-0.4L77.5,16.9z"/>
	<path class="st0" d="M90.8,4.7h-0.1h-0.1c-0.1,0-0.1,0-0.1,0s0,0,0,0.1v0.1h0.1c0.1,0,0.1,0,0.1,0.1c0.1,0,0.1,0.1,0.1,0.1
		s0,0.1,0,0.2c0,0.1,0,0.2,0,0.4c0,0.1,0,0.2,0,0.4c0,0.2,0,0.7-0.1,0.9C90.7,7,90.6,7,90.6,7c-0.1,0-0.1,0-0.1,0.1h-0.1
		c0,0,0,0,0,0.1c0,0,0,0,0,0.1c0.1,0,0.1,0,0.2,0h0.2H91c0.1,0,0.1,0,0.2,0c0,0,0,0,0-0.1V7.1H91c-0.1,0-0.1,0-0.1-0.1
		c0,0,0,0,0-0.1c0-0.1,0-0.2,0-0.2c0-0.1,0-0.3,0-0.4s0-0.2,0-0.4s0-0.2,0-0.3s0-0.2,0-0.3l0,0C91,5.4,91,5.5,91,5.6
		c0.1,0.1,0.1,0.2,0.1,0.2l0.3,0.7c0,0.1,0.1,0.1,0.1,0.2c0.1,0.1,0.1,0.2,0.1,0.2C91.7,7,91.8,7,91.8,7c0,0,0,0.1,0.1,0.1h0.1
		C91.9,7.1,92,7,92,7c0.1-0.2,0.2-0.4,0.3-0.6l0.3-0.6c0-0.1,0.1-0.1,0.1-0.2c0.1-0.1,0.1-0.1,0.1-0.2c0-0.1,0.1-0.1,0.1-0.1l0,0
		v1.4c0,0.1,0,0.1,0,0.2c0,0.1,0,0.1-0.1,0.1c0,0-0.1,0.1-0.1,0.1h-0.1c0,0,0,0,0,0.1c0,0,0,0,0,0.1c0.1,0,0.1,0,0.2,0h0.2h0.2
		c0.1,0,0.1,0,0.2,0c0,0,0,0,0-0.1V7h-0.1C93.1,7,93.1,7,93,7L93,6.9c0-0.1,0-0.1,0-0.1c0-0.2,0-0.4,0-0.5c0-0.2,0-0.4,0-0.6V5.2
		c0-0.1,0-0.1,0-0.2S93,4.9,93,4.9c0.1,0,0.1-0.1,0.2-0.1h0.1c0,0,0,0,0-0.1c0,0,0,0,0-0.1c-0.1,0-0.1,0-0.2,0H93h-0.1
		c-0.1,0-0.1,0-0.1,0c0,0.1-0.1,0.2-0.1,0.2c-0.1,0.1-0.1,0.2-0.2,0.4L92.1,6c-0.1,0.2-0.2,0.4-0.2,0.5l0,0
		c-0.1-0.2-0.2-0.3-0.2-0.5l-0.4-0.8c-0.1-0.1-0.1-0.2-0.1-0.3c-0.1-0.1-0.1-0.2-0.1-0.2C91,4.7,90.9,4.7,90.8,4.7L90.8,4.7z
		 M88.9,6.5c0,0.1,0,0.2,0,0.2c0,0.1-0.1,0.2-0.2,0.2h-0.1V7c0.1,0,0.3,0,0.4,0c0.2,0,0.3,0,0.4,0c0,0,0,0,0-0.1V6.9h-0.1
		c-0.1,0-0.1,0-0.2-0.1l0,0c0,0-0.1-0.1-0.1-0.1c0-0.1,0-0.1,0-0.2V6.2c-0.1,0-0.2,0-0.3,0L88.9,6.5z M88.6,4.8
		C88.6,4.8,88.7,4.8,88.6,4.8l0.1,0.1c0.1,0,0.1,0,0.1,0.1c0,0,0.1,0.1,0.1,0.1c0,0.1,0,0.1,0,0.2V6c0.1,0,0.2,0,0.3,0V4.9
		c0-0.1,0-0.1,0-0.1s0,0,0.1-0.1c0,0,0.1,0,0.1,0c0.2,0,0.3,0.1,0.4,0.1C90,5.1,90,5.2,90,5.4c0,0.1-0.1,0.3-0.1,0.4
		c-0.1,0.1-0.2,0.2-0.3,0.2C89.4,6,89.2,6,88.9,6c-0.2,0-0.5,0-0.7-0.1C88.5,6,88.7,6,88.9,6c0.2,0,0.4,0,0.7,0
		C89.7,6,89.7,6,89.9,6c0.1-0.1,0.2-0.1,0.2-0.1c0.1-0.1,0.1-0.1,0.1-0.2c0.1-0.1,0.1-0.2,0.1-0.2c0-0.1-0.1-0.2-0.1-0.3
		c-0.1-0.1-0.1-0.2-0.2-0.2c-0.1-0.1-0.2-0.1-0.3-0.1c-0.1,0-0.2,0-0.4,0c-0.1,0-0.2,0-0.4,0C88.9,4.7,88.7,4.7,88.6,4.8
		C88.7,4.7,88.6,4.7,88.6,4.8L88.6,4.8z"/>
</g>
</svg>
