<svg height="28" viewBox="0 0 84 28" width="84" xmlns="http://www.w3.org/2000/svg"><path d="m60.062 7.081c-2.933-1.616-9.608-1.998-9.609.979 0 2.976 9.565 3.613 9.565 10.458 0 6.592-7.056 9.013-11.733 9.013-4.676 0-7.737-1.486-7.737-1.486l1.019-5.911c2.806 2.252 11.31 2.892 11.31-.68 0-3.573-9.48-3.657-9.48-10.459 0-7.228 8.077-8.715 11.478-8.715 3.147 0 6.165 1.148 6.165 1.148zm15.64 10.684-2.027-9.853-3.6 9.853zm1.112 5.402h-8.714l-1.429 3.91h-7.145l10.224-24.365s.619-1.962 3.163-1.962h5.51l5.487 26.327h-6.294zm-45.734-22.417-10.904 26.328h-7.141l-5.955-22.873c-3.866-2.321-7.17-3.009-7.17-3.009l.127-.446h10.803c2.972 0 3.251 2.37 3.251 2.37l2.306 11.84v-.001l.773 3.9 6.534-18.109zm5.244 26.327h-6.854l4.284-26.327h6.855z" fill="#2566af"/><path d="m16.397 14.96-2.306-11.84s-.279-2.37-3.251-2.37h-10.803l-.127.446s5.192 1.076 10.173 5.108c4.761 3.853 6.314 8.656 6.314 8.656z" fill="#e6a540"/></svg>