<svg height="24" viewBox="0 0 120 24" width="120" xmlns="http://www.w3.org/2000/svg"><path d="m119.25 20.152a.392.392 0 0 1 -.386.386.376.376 0 0 1 -.386-.386v-4.947c0-1.66-.939-3.288-2.79-3.288-2.325 0-3.208 2.486-3.208 4.42v3.815a.392.392 0 0 1 -.386.386.376.376 0 0 1 -.385-.386v-4.947c0-1.66-.939-3.288-2.791-3.288-2.35 0-3.319 1.852-3.232 4.313 0 .056.025.167 0 .193v3.72c0 .187-.127.36-.315.39-.259.04-.462-.137-.462-.38v-8.444c0-.188.127-.36.31-.391.259-.04.462.137.462.38v1.411c.664-1.187 1.852-1.963 3.232-1.963 1.573 0 2.79.994 3.288 2.46.634-1.435 1.878-2.46 3.481-2.46 2.268 0 3.567 1.958 3.567 4.059zm-19.547.051a.392.392 0 0 1 -.385.386.376.376 0 0 1 -.385-.386v-1.603c-.634 1.273-1.769 2.182-3.203 2.182-2.29 0-3.562-1.99-3.562-4.09v-4.948c0-.193.167-.385.385-.385.223 0 .385.192.385.385v4.948c0 1.659.937 3.318 2.787 3.318 2.595 0 3.203-2.43 3.203-5.115v-3.15c0-.224.223-.452.496-.371a.415.415 0 0 1 .28.39zm-16.933-8.312c-2.02 0-3.456 1.74-3.648 3.649h7.296c-.167-1.908-1.628-3.649-3.648-3.649zm4.084 4.42h-7.732c.193 1.908 1.631 3.649 3.653 3.649 1.382 0 2.408-.528 3.18-1.63.112-.151.28-.248.493-.157.117.051.198.158.218.28.02.126-.015.197-.05.268-.778 1.355-2.327 2.02-3.846 2.02-2.601 0-4.455-2.324-4.455-4.81 0-2.487 1.854-4.81 4.455-4.81 2.6-.006 4.48 2.313 4.486 4.794a.4.4 0 0 1 -.402.396zm-12.654-4.227c-2.268.33-3.288 2.182-3.288 4.339v3.694c0 .188-.127.36-.31.39-.258.041-.461-.136-.461-.38v-8.417c0-.188.127-.36.31-.391.258-.04.461.137.461.38v1.716c.635-1.076 1.908-2.101 3.233-2.101.192-.005.416.137.416.355 0 .249-.137.386-.36.416zm-9.95 3.456c-.168-1.908-1.63-3.649-3.649-3.649-2.02 0-3.455 1.74-3.648 3.649zm.421.771h-7.72c.194 1.908 1.628 3.649 3.645 3.649 1.379 0 2.403-.528 3.173-1.63.112-.151.279-.248.492-.157.116.051.198.158.218.28.02.126-.015.197-.05.268-.776 1.355-2.322 2.02-3.838 2.02-2.595 0-4.445-2.324-4.445-4.81 0-2.487 1.85-4.81 4.445-4.81 2.6-.006 4.476 2.313 4.48 4.794a.4.4 0 0 1 -.4.396zm-13.437 3.847a.392.392 0 0 1 -.386.385.376.376 0 0 1 -.385-.385v-4.923c0-1.659-.939-3.318-2.791-3.318-2.375 0-3.4 2.075-3.263 4.201 0 .056.025.305.025.33v3.694c0 .188-.126.36-.31.391-.258.04-.46-.137-.46-.38v-16.168c0-.193.167-.386.385-.386.223 0 .385.193.385.386v9.149c.665-1.188 1.853-1.99 3.233-1.99 2.268 0 3.567 1.99 3.567 4.09zm-12.63-8.85c.223 0 .386.193.386.386a.376.376 0 0 1 -.386.385h-2.07v8.124a.395.395 0 0 1 -.386.386.392.392 0 0 1 -.386-.386v-8.123h-1.989a.376.376 0 0 1 -.385-.385c0-.193.167-.386.385-.386h1.99v-2.975c0-.187.126-.36.309-.39.259-.041.462.137.462.38v2.984zm-10.21 4.232c-.167-1.908-1.626-3.649-3.643-3.649s-3.45 1.74-3.643 3.649zm.437.771h-7.723c.193 1.908 1.629 3.649 3.648 3.649 1.38 0 2.405-.528 3.177-1.63.111-.151.279-.248.492-.157.117.051.198.158.218.28.02.126-.015.197-.05.268-.777 1.355-2.325 2.02-3.842 2.02-2.598 0-4.45-2.324-4.45-4.81 0-2.487 1.852-4.81 4.45-4.81 2.598-.006 4.476 2.313 4.48 4.794a.4.4 0 0 1 -.4.396z" fill="#3c3c3b"/><g fill="#010101"><path d="m7.436 8.93-7.416 3.373 7.416 4.381 7.413-4.381z" opacity=".36"/><path d="m.02 12.304 7.416 4.382v-16.686z" opacity=".2025"/><path d="m7.43 0v16.686l7.413-4.382z" opacity=".64"/><path d="m.02 13.71 7.416 10.447v-6.066z" opacity=".2025"/><path d="m7.43 18.091v6.066l7.419-10.447z" opacity=".64"/></g></svg>